G75*
%MOIN*%
%OFA0B0*%
%FSLAX25Y25*%
%IPPOS*%
%LPD*%
%AMOC8*
5,1,8,0,0,1.08239X$1,22.5*
%
%ADD10C,0.00000*%
%ADD11C,0.01200*%
%ADD12C,0.00394*%
%ADD13C,0.00400*%
%ADD14C,0.00600*%
%ADD15C,0.00500*%
D10*
X0465665Y0068126D02*
X0465667Y0068329D01*
X0465675Y0068532D01*
X0465687Y0068734D01*
X0465705Y0068936D01*
X0465727Y0069138D01*
X0465754Y0069339D01*
X0465787Y0069540D01*
X0465824Y0069739D01*
X0465866Y0069938D01*
X0465913Y0070135D01*
X0465964Y0070331D01*
X0466021Y0070526D01*
X0466082Y0070720D01*
X0466148Y0070911D01*
X0466219Y0071102D01*
X0466294Y0071290D01*
X0466374Y0071477D01*
X0466459Y0071661D01*
X0466548Y0071843D01*
X0466641Y0072024D01*
X0466739Y0072201D01*
X0466841Y0072377D01*
X0466948Y0072549D01*
X0467058Y0072719D01*
X0467173Y0072887D01*
X0467292Y0073051D01*
X0467415Y0073213D01*
X0467542Y0073371D01*
X0467672Y0073526D01*
X0467807Y0073678D01*
X0467945Y0073827D01*
X0468087Y0073972D01*
X0468232Y0074114D01*
X0468381Y0074252D01*
X0468533Y0074387D01*
X0468688Y0074517D01*
X0468846Y0074644D01*
X0469008Y0074767D01*
X0469172Y0074886D01*
X0469340Y0075001D01*
X0469510Y0075111D01*
X0469682Y0075218D01*
X0469858Y0075320D01*
X0470035Y0075418D01*
X0470216Y0075511D01*
X0470398Y0075600D01*
X0470582Y0075685D01*
X0470769Y0075765D01*
X0470957Y0075840D01*
X0471148Y0075911D01*
X0471339Y0075977D01*
X0471533Y0076038D01*
X0471728Y0076095D01*
X0471924Y0076146D01*
X0472121Y0076193D01*
X0472320Y0076235D01*
X0472519Y0076272D01*
X0472720Y0076305D01*
X0472921Y0076332D01*
X0473123Y0076354D01*
X0473325Y0076372D01*
X0473527Y0076384D01*
X0473730Y0076392D01*
X0473933Y0076394D01*
X0474136Y0076392D01*
X0474339Y0076384D01*
X0474541Y0076372D01*
X0474743Y0076354D01*
X0474945Y0076332D01*
X0475146Y0076305D01*
X0475347Y0076272D01*
X0475546Y0076235D01*
X0475745Y0076193D01*
X0475942Y0076146D01*
X0476138Y0076095D01*
X0476333Y0076038D01*
X0476527Y0075977D01*
X0476718Y0075911D01*
X0476909Y0075840D01*
X0477097Y0075765D01*
X0477284Y0075685D01*
X0477468Y0075600D01*
X0477650Y0075511D01*
X0477831Y0075418D01*
X0478008Y0075320D01*
X0478184Y0075218D01*
X0478356Y0075111D01*
X0478526Y0075001D01*
X0478694Y0074886D01*
X0478858Y0074767D01*
X0479020Y0074644D01*
X0479178Y0074517D01*
X0479333Y0074387D01*
X0479485Y0074252D01*
X0479634Y0074114D01*
X0479779Y0073972D01*
X0479921Y0073827D01*
X0480059Y0073678D01*
X0480194Y0073526D01*
X0480324Y0073371D01*
X0480451Y0073213D01*
X0480574Y0073051D01*
X0480693Y0072887D01*
X0480808Y0072719D01*
X0480918Y0072549D01*
X0481025Y0072377D01*
X0481127Y0072201D01*
X0481225Y0072024D01*
X0481318Y0071843D01*
X0481407Y0071661D01*
X0481492Y0071477D01*
X0481572Y0071290D01*
X0481647Y0071102D01*
X0481718Y0070911D01*
X0481784Y0070720D01*
X0481845Y0070526D01*
X0481902Y0070331D01*
X0481953Y0070135D01*
X0482000Y0069938D01*
X0482042Y0069739D01*
X0482079Y0069540D01*
X0482112Y0069339D01*
X0482139Y0069138D01*
X0482161Y0068936D01*
X0482179Y0068734D01*
X0482191Y0068532D01*
X0482199Y0068329D01*
X0482201Y0068126D01*
X0482199Y0067923D01*
X0482191Y0067720D01*
X0482179Y0067518D01*
X0482161Y0067316D01*
X0482139Y0067114D01*
X0482112Y0066913D01*
X0482079Y0066712D01*
X0482042Y0066513D01*
X0482000Y0066314D01*
X0481953Y0066117D01*
X0481902Y0065921D01*
X0481845Y0065726D01*
X0481784Y0065532D01*
X0481718Y0065341D01*
X0481647Y0065150D01*
X0481572Y0064962D01*
X0481492Y0064775D01*
X0481407Y0064591D01*
X0481318Y0064409D01*
X0481225Y0064228D01*
X0481127Y0064051D01*
X0481025Y0063875D01*
X0480918Y0063703D01*
X0480808Y0063533D01*
X0480693Y0063365D01*
X0480574Y0063201D01*
X0480451Y0063039D01*
X0480324Y0062881D01*
X0480194Y0062726D01*
X0480059Y0062574D01*
X0479921Y0062425D01*
X0479779Y0062280D01*
X0479634Y0062138D01*
X0479485Y0062000D01*
X0479333Y0061865D01*
X0479178Y0061735D01*
X0479020Y0061608D01*
X0478858Y0061485D01*
X0478694Y0061366D01*
X0478526Y0061251D01*
X0478356Y0061141D01*
X0478184Y0061034D01*
X0478008Y0060932D01*
X0477831Y0060834D01*
X0477650Y0060741D01*
X0477468Y0060652D01*
X0477284Y0060567D01*
X0477097Y0060487D01*
X0476909Y0060412D01*
X0476718Y0060341D01*
X0476527Y0060275D01*
X0476333Y0060214D01*
X0476138Y0060157D01*
X0475942Y0060106D01*
X0475745Y0060059D01*
X0475546Y0060017D01*
X0475347Y0059980D01*
X0475146Y0059947D01*
X0474945Y0059920D01*
X0474743Y0059898D01*
X0474541Y0059880D01*
X0474339Y0059868D01*
X0474136Y0059860D01*
X0473933Y0059858D01*
X0473730Y0059860D01*
X0473527Y0059868D01*
X0473325Y0059880D01*
X0473123Y0059898D01*
X0472921Y0059920D01*
X0472720Y0059947D01*
X0472519Y0059980D01*
X0472320Y0060017D01*
X0472121Y0060059D01*
X0471924Y0060106D01*
X0471728Y0060157D01*
X0471533Y0060214D01*
X0471339Y0060275D01*
X0471148Y0060341D01*
X0470957Y0060412D01*
X0470769Y0060487D01*
X0470582Y0060567D01*
X0470398Y0060652D01*
X0470216Y0060741D01*
X0470035Y0060834D01*
X0469858Y0060932D01*
X0469682Y0061034D01*
X0469510Y0061141D01*
X0469340Y0061251D01*
X0469172Y0061366D01*
X0469008Y0061485D01*
X0468846Y0061608D01*
X0468688Y0061735D01*
X0468533Y0061865D01*
X0468381Y0062000D01*
X0468232Y0062138D01*
X0468087Y0062280D01*
X0467945Y0062425D01*
X0467807Y0062574D01*
X0467672Y0062726D01*
X0467542Y0062881D01*
X0467415Y0063039D01*
X0467292Y0063201D01*
X0467173Y0063365D01*
X0467058Y0063533D01*
X0466948Y0063703D01*
X0466841Y0063875D01*
X0466739Y0064051D01*
X0466641Y0064228D01*
X0466548Y0064409D01*
X0466459Y0064591D01*
X0466374Y0064775D01*
X0466294Y0064962D01*
X0466219Y0065150D01*
X0466148Y0065341D01*
X0466082Y0065532D01*
X0466021Y0065726D01*
X0465964Y0065921D01*
X0465913Y0066117D01*
X0465866Y0066314D01*
X0465824Y0066513D01*
X0465787Y0066712D01*
X0465754Y0066913D01*
X0465727Y0067114D01*
X0465705Y0067316D01*
X0465687Y0067518D01*
X0465675Y0067720D01*
X0465667Y0067923D01*
X0465665Y0068126D01*
X0090075Y0717142D02*
X0090077Y0717345D01*
X0090085Y0717548D01*
X0090097Y0717750D01*
X0090115Y0717952D01*
X0090137Y0718154D01*
X0090164Y0718355D01*
X0090197Y0718556D01*
X0090234Y0718755D01*
X0090276Y0718954D01*
X0090323Y0719151D01*
X0090374Y0719347D01*
X0090431Y0719542D01*
X0090492Y0719736D01*
X0090558Y0719927D01*
X0090629Y0720118D01*
X0090704Y0720306D01*
X0090784Y0720493D01*
X0090869Y0720677D01*
X0090958Y0720859D01*
X0091051Y0721040D01*
X0091149Y0721217D01*
X0091251Y0721393D01*
X0091358Y0721565D01*
X0091468Y0721735D01*
X0091583Y0721903D01*
X0091702Y0722067D01*
X0091825Y0722229D01*
X0091952Y0722387D01*
X0092082Y0722542D01*
X0092217Y0722694D01*
X0092355Y0722843D01*
X0092497Y0722988D01*
X0092642Y0723130D01*
X0092791Y0723268D01*
X0092943Y0723403D01*
X0093098Y0723533D01*
X0093256Y0723660D01*
X0093418Y0723783D01*
X0093582Y0723902D01*
X0093750Y0724017D01*
X0093920Y0724127D01*
X0094092Y0724234D01*
X0094268Y0724336D01*
X0094445Y0724434D01*
X0094626Y0724527D01*
X0094808Y0724616D01*
X0094992Y0724701D01*
X0095179Y0724781D01*
X0095367Y0724856D01*
X0095558Y0724927D01*
X0095749Y0724993D01*
X0095943Y0725054D01*
X0096138Y0725111D01*
X0096334Y0725162D01*
X0096531Y0725209D01*
X0096730Y0725251D01*
X0096929Y0725288D01*
X0097130Y0725321D01*
X0097331Y0725348D01*
X0097533Y0725370D01*
X0097735Y0725388D01*
X0097937Y0725400D01*
X0098140Y0725408D01*
X0098343Y0725410D01*
X0098546Y0725408D01*
X0098749Y0725400D01*
X0098951Y0725388D01*
X0099153Y0725370D01*
X0099355Y0725348D01*
X0099556Y0725321D01*
X0099757Y0725288D01*
X0099956Y0725251D01*
X0100155Y0725209D01*
X0100352Y0725162D01*
X0100548Y0725111D01*
X0100743Y0725054D01*
X0100937Y0724993D01*
X0101128Y0724927D01*
X0101319Y0724856D01*
X0101507Y0724781D01*
X0101694Y0724701D01*
X0101878Y0724616D01*
X0102060Y0724527D01*
X0102241Y0724434D01*
X0102418Y0724336D01*
X0102594Y0724234D01*
X0102766Y0724127D01*
X0102936Y0724017D01*
X0103104Y0723902D01*
X0103268Y0723783D01*
X0103430Y0723660D01*
X0103588Y0723533D01*
X0103743Y0723403D01*
X0103895Y0723268D01*
X0104044Y0723130D01*
X0104189Y0722988D01*
X0104331Y0722843D01*
X0104469Y0722694D01*
X0104604Y0722542D01*
X0104734Y0722387D01*
X0104861Y0722229D01*
X0104984Y0722067D01*
X0105103Y0721903D01*
X0105218Y0721735D01*
X0105328Y0721565D01*
X0105435Y0721393D01*
X0105537Y0721217D01*
X0105635Y0721040D01*
X0105728Y0720859D01*
X0105817Y0720677D01*
X0105902Y0720493D01*
X0105982Y0720306D01*
X0106057Y0720118D01*
X0106128Y0719927D01*
X0106194Y0719736D01*
X0106255Y0719542D01*
X0106312Y0719347D01*
X0106363Y0719151D01*
X0106410Y0718954D01*
X0106452Y0718755D01*
X0106489Y0718556D01*
X0106522Y0718355D01*
X0106549Y0718154D01*
X0106571Y0717952D01*
X0106589Y0717750D01*
X0106601Y0717548D01*
X0106609Y0717345D01*
X0106611Y0717142D01*
X0106609Y0716939D01*
X0106601Y0716736D01*
X0106589Y0716534D01*
X0106571Y0716332D01*
X0106549Y0716130D01*
X0106522Y0715929D01*
X0106489Y0715728D01*
X0106452Y0715529D01*
X0106410Y0715330D01*
X0106363Y0715133D01*
X0106312Y0714937D01*
X0106255Y0714742D01*
X0106194Y0714548D01*
X0106128Y0714357D01*
X0106057Y0714166D01*
X0105982Y0713978D01*
X0105902Y0713791D01*
X0105817Y0713607D01*
X0105728Y0713425D01*
X0105635Y0713244D01*
X0105537Y0713067D01*
X0105435Y0712891D01*
X0105328Y0712719D01*
X0105218Y0712549D01*
X0105103Y0712381D01*
X0104984Y0712217D01*
X0104861Y0712055D01*
X0104734Y0711897D01*
X0104604Y0711742D01*
X0104469Y0711590D01*
X0104331Y0711441D01*
X0104189Y0711296D01*
X0104044Y0711154D01*
X0103895Y0711016D01*
X0103743Y0710881D01*
X0103588Y0710751D01*
X0103430Y0710624D01*
X0103268Y0710501D01*
X0103104Y0710382D01*
X0102936Y0710267D01*
X0102766Y0710157D01*
X0102594Y0710050D01*
X0102418Y0709948D01*
X0102241Y0709850D01*
X0102060Y0709757D01*
X0101878Y0709668D01*
X0101694Y0709583D01*
X0101507Y0709503D01*
X0101319Y0709428D01*
X0101128Y0709357D01*
X0100937Y0709291D01*
X0100743Y0709230D01*
X0100548Y0709173D01*
X0100352Y0709122D01*
X0100155Y0709075D01*
X0099956Y0709033D01*
X0099757Y0708996D01*
X0099556Y0708963D01*
X0099355Y0708936D01*
X0099153Y0708914D01*
X0098951Y0708896D01*
X0098749Y0708884D01*
X0098546Y0708876D01*
X0098343Y0708874D01*
X0098140Y0708876D01*
X0097937Y0708884D01*
X0097735Y0708896D01*
X0097533Y0708914D01*
X0097331Y0708936D01*
X0097130Y0708963D01*
X0096929Y0708996D01*
X0096730Y0709033D01*
X0096531Y0709075D01*
X0096334Y0709122D01*
X0096138Y0709173D01*
X0095943Y0709230D01*
X0095749Y0709291D01*
X0095558Y0709357D01*
X0095367Y0709428D01*
X0095179Y0709503D01*
X0094992Y0709583D01*
X0094808Y0709668D01*
X0094626Y0709757D01*
X0094445Y0709850D01*
X0094268Y0709948D01*
X0094092Y0710050D01*
X0093920Y0710157D01*
X0093750Y0710267D01*
X0093582Y0710382D01*
X0093418Y0710501D01*
X0093256Y0710624D01*
X0093098Y0710751D01*
X0092943Y0710881D01*
X0092791Y0711016D01*
X0092642Y0711154D01*
X0092497Y0711296D01*
X0092355Y0711441D01*
X0092217Y0711590D01*
X0092082Y0711742D01*
X0091952Y0711897D01*
X0091825Y0712055D01*
X0091702Y0712217D01*
X0091583Y0712381D01*
X0091468Y0712549D01*
X0091358Y0712719D01*
X0091251Y0712891D01*
X0091149Y0713067D01*
X0091051Y0713244D01*
X0090958Y0713425D01*
X0090869Y0713607D01*
X0090784Y0713791D01*
X0090704Y0713978D01*
X0090629Y0714166D01*
X0090558Y0714357D01*
X0090492Y0714548D01*
X0090431Y0714742D01*
X0090374Y0714937D01*
X0090323Y0715133D01*
X0090276Y0715330D01*
X0090234Y0715529D01*
X0090197Y0715728D01*
X0090164Y0715929D01*
X0090137Y0716130D01*
X0090115Y0716332D01*
X0090097Y0716534D01*
X0090085Y0716736D01*
X0090077Y0716939D01*
X0090075Y0717142D01*
X0840960Y0716551D02*
X0840962Y0716754D01*
X0840970Y0716957D01*
X0840982Y0717159D01*
X0841000Y0717361D01*
X0841022Y0717563D01*
X0841049Y0717764D01*
X0841082Y0717965D01*
X0841119Y0718164D01*
X0841161Y0718363D01*
X0841208Y0718560D01*
X0841259Y0718756D01*
X0841316Y0718951D01*
X0841377Y0719145D01*
X0841443Y0719336D01*
X0841514Y0719527D01*
X0841589Y0719715D01*
X0841669Y0719902D01*
X0841754Y0720086D01*
X0841843Y0720268D01*
X0841936Y0720449D01*
X0842034Y0720626D01*
X0842136Y0720802D01*
X0842243Y0720974D01*
X0842353Y0721144D01*
X0842468Y0721312D01*
X0842587Y0721476D01*
X0842710Y0721638D01*
X0842837Y0721796D01*
X0842967Y0721951D01*
X0843102Y0722103D01*
X0843240Y0722252D01*
X0843382Y0722397D01*
X0843527Y0722539D01*
X0843676Y0722677D01*
X0843828Y0722812D01*
X0843983Y0722942D01*
X0844141Y0723069D01*
X0844303Y0723192D01*
X0844467Y0723311D01*
X0844635Y0723426D01*
X0844805Y0723536D01*
X0844977Y0723643D01*
X0845153Y0723745D01*
X0845330Y0723843D01*
X0845511Y0723936D01*
X0845693Y0724025D01*
X0845877Y0724110D01*
X0846064Y0724190D01*
X0846252Y0724265D01*
X0846443Y0724336D01*
X0846634Y0724402D01*
X0846828Y0724463D01*
X0847023Y0724520D01*
X0847219Y0724571D01*
X0847416Y0724618D01*
X0847615Y0724660D01*
X0847814Y0724697D01*
X0848015Y0724730D01*
X0848216Y0724757D01*
X0848418Y0724779D01*
X0848620Y0724797D01*
X0848822Y0724809D01*
X0849025Y0724817D01*
X0849228Y0724819D01*
X0849431Y0724817D01*
X0849634Y0724809D01*
X0849836Y0724797D01*
X0850038Y0724779D01*
X0850240Y0724757D01*
X0850441Y0724730D01*
X0850642Y0724697D01*
X0850841Y0724660D01*
X0851040Y0724618D01*
X0851237Y0724571D01*
X0851433Y0724520D01*
X0851628Y0724463D01*
X0851822Y0724402D01*
X0852013Y0724336D01*
X0852204Y0724265D01*
X0852392Y0724190D01*
X0852579Y0724110D01*
X0852763Y0724025D01*
X0852945Y0723936D01*
X0853126Y0723843D01*
X0853303Y0723745D01*
X0853479Y0723643D01*
X0853651Y0723536D01*
X0853821Y0723426D01*
X0853989Y0723311D01*
X0854153Y0723192D01*
X0854315Y0723069D01*
X0854473Y0722942D01*
X0854628Y0722812D01*
X0854780Y0722677D01*
X0854929Y0722539D01*
X0855074Y0722397D01*
X0855216Y0722252D01*
X0855354Y0722103D01*
X0855489Y0721951D01*
X0855619Y0721796D01*
X0855746Y0721638D01*
X0855869Y0721476D01*
X0855988Y0721312D01*
X0856103Y0721144D01*
X0856213Y0720974D01*
X0856320Y0720802D01*
X0856422Y0720626D01*
X0856520Y0720449D01*
X0856613Y0720268D01*
X0856702Y0720086D01*
X0856787Y0719902D01*
X0856867Y0719715D01*
X0856942Y0719527D01*
X0857013Y0719336D01*
X0857079Y0719145D01*
X0857140Y0718951D01*
X0857197Y0718756D01*
X0857248Y0718560D01*
X0857295Y0718363D01*
X0857337Y0718164D01*
X0857374Y0717965D01*
X0857407Y0717764D01*
X0857434Y0717563D01*
X0857456Y0717361D01*
X0857474Y0717159D01*
X0857486Y0716957D01*
X0857494Y0716754D01*
X0857496Y0716551D01*
X0857494Y0716348D01*
X0857486Y0716145D01*
X0857474Y0715943D01*
X0857456Y0715741D01*
X0857434Y0715539D01*
X0857407Y0715338D01*
X0857374Y0715137D01*
X0857337Y0714938D01*
X0857295Y0714739D01*
X0857248Y0714542D01*
X0857197Y0714346D01*
X0857140Y0714151D01*
X0857079Y0713957D01*
X0857013Y0713766D01*
X0856942Y0713575D01*
X0856867Y0713387D01*
X0856787Y0713200D01*
X0856702Y0713016D01*
X0856613Y0712834D01*
X0856520Y0712653D01*
X0856422Y0712476D01*
X0856320Y0712300D01*
X0856213Y0712128D01*
X0856103Y0711958D01*
X0855988Y0711790D01*
X0855869Y0711626D01*
X0855746Y0711464D01*
X0855619Y0711306D01*
X0855489Y0711151D01*
X0855354Y0710999D01*
X0855216Y0710850D01*
X0855074Y0710705D01*
X0854929Y0710563D01*
X0854780Y0710425D01*
X0854628Y0710290D01*
X0854473Y0710160D01*
X0854315Y0710033D01*
X0854153Y0709910D01*
X0853989Y0709791D01*
X0853821Y0709676D01*
X0853651Y0709566D01*
X0853479Y0709459D01*
X0853303Y0709357D01*
X0853126Y0709259D01*
X0852945Y0709166D01*
X0852763Y0709077D01*
X0852579Y0708992D01*
X0852392Y0708912D01*
X0852204Y0708837D01*
X0852013Y0708766D01*
X0851822Y0708700D01*
X0851628Y0708639D01*
X0851433Y0708582D01*
X0851237Y0708531D01*
X0851040Y0708484D01*
X0850841Y0708442D01*
X0850642Y0708405D01*
X0850441Y0708372D01*
X0850240Y0708345D01*
X0850038Y0708323D01*
X0849836Y0708305D01*
X0849634Y0708293D01*
X0849431Y0708285D01*
X0849228Y0708283D01*
X0849025Y0708285D01*
X0848822Y0708293D01*
X0848620Y0708305D01*
X0848418Y0708323D01*
X0848216Y0708345D01*
X0848015Y0708372D01*
X0847814Y0708405D01*
X0847615Y0708442D01*
X0847416Y0708484D01*
X0847219Y0708531D01*
X0847023Y0708582D01*
X0846828Y0708639D01*
X0846634Y0708700D01*
X0846443Y0708766D01*
X0846252Y0708837D01*
X0846064Y0708912D01*
X0845877Y0708992D01*
X0845693Y0709077D01*
X0845511Y0709166D01*
X0845330Y0709259D01*
X0845153Y0709357D01*
X0844977Y0709459D01*
X0844805Y0709566D01*
X0844635Y0709676D01*
X0844467Y0709791D01*
X0844303Y0709910D01*
X0844141Y0710033D01*
X0843983Y0710160D01*
X0843828Y0710290D01*
X0843676Y0710425D01*
X0843527Y0710563D01*
X0843382Y0710705D01*
X0843240Y0710850D01*
X0843102Y0710999D01*
X0842967Y0711151D01*
X0842837Y0711306D01*
X0842710Y0711464D01*
X0842587Y0711626D01*
X0842468Y0711790D01*
X0842353Y0711958D01*
X0842243Y0712128D01*
X0842136Y0712300D01*
X0842034Y0712476D01*
X0841936Y0712653D01*
X0841843Y0712834D01*
X0841754Y0713016D01*
X0841669Y0713200D01*
X0841589Y0713387D01*
X0841514Y0713575D01*
X0841443Y0713766D01*
X0841377Y0713957D01*
X0841316Y0714151D01*
X0841259Y0714346D01*
X0841208Y0714542D01*
X0841161Y0714739D01*
X0841119Y0714938D01*
X0841082Y0715137D01*
X0841049Y0715338D01*
X0841022Y0715539D01*
X0841000Y0715741D01*
X0840982Y0715943D01*
X0840970Y0716145D01*
X0840962Y0716348D01*
X0840960Y0716551D01*
D11*
X0901835Y0369941D02*
X0905205Y0357362D01*
X0908350Y0358205D01*
X0910652Y0362192D01*
X0909809Y0365337D01*
X0901835Y0369941D01*
X0898690Y0369098D01*
X0896388Y0365111D01*
X0897231Y0361966D01*
X0905205Y0357362D01*
X0902903Y0353375D02*
X0904897Y0352224D01*
X0903746Y0350231D01*
X0901752Y0351382D01*
X0902903Y0353375D01*
X0901444Y0346244D02*
X0896840Y0338269D01*
X0894538Y0334282D02*
X0893387Y0332289D01*
X0891394Y0333440D01*
X0892545Y0335433D01*
X0894538Y0334282D01*
X0899142Y0342256D02*
X0887181Y0349162D01*
X0888866Y0342873D01*
X0883111Y0332906D02*
X0881960Y0330912D01*
X0883645Y0324623D01*
X0887632Y0322321D02*
X0879658Y0326925D01*
X0879350Y0321787D02*
X0881343Y0320636D01*
X0876739Y0312662D01*
X0874746Y0313812D02*
X0873903Y0316957D01*
X0876205Y0320944D01*
X0879350Y0321787D01*
X0884179Y0316340D02*
X0881877Y0312353D01*
X0878733Y0311511D01*
X0874746Y0313812D01*
X0874437Y0308674D02*
X0866463Y0313278D01*
X0861859Y0305304D02*
X0869833Y0300700D01*
X0876122Y0302385D01*
X0874437Y0308674D01*
X0854335Y0309648D02*
X0849731Y0301674D01*
X0837770Y0308580D01*
X0842373Y0316554D01*
X0846052Y0309114D02*
X0843750Y0305127D01*
X0847429Y0297687D02*
X0842825Y0289713D01*
X0830864Y0296618D01*
X0830555Y0291480D02*
X0832549Y0290329D01*
X0833391Y0287185D01*
X0829938Y0281204D01*
X0827636Y0277217D02*
X0823033Y0269243D01*
X0821039Y0270394D02*
X0819354Y0276683D01*
X0825643Y0278368D01*
X0833617Y0273764D01*
X0835919Y0277751D02*
X0839372Y0283732D01*
X0838530Y0286876D01*
X0836536Y0288027D01*
X0833391Y0287185D01*
X0830555Y0291480D02*
X0827411Y0290638D01*
X0823958Y0284657D01*
X0835919Y0277751D01*
X0846279Y0269112D02*
X0848581Y0273099D01*
X0851726Y0273941D01*
X0853720Y0272790D01*
X0849116Y0264816D01*
X0851109Y0263665D02*
X0847122Y0265967D01*
X0846279Y0269112D01*
X0842827Y0263131D02*
X0843669Y0259986D01*
X0840216Y0254006D01*
X0834235Y0257459D02*
X0837688Y0263439D01*
X0840833Y0264282D01*
X0842827Y0263131D01*
X0843669Y0259986D02*
X0846814Y0260829D01*
X0848807Y0259678D01*
X0849650Y0256533D01*
X0846197Y0250553D01*
X0834235Y0257459D01*
X0829013Y0265790D02*
X0821039Y0270394D01*
X0814750Y0268709D02*
X0810146Y0260734D01*
X0812448Y0264721D02*
X0824409Y0257816D01*
X0819805Y0249841D02*
X0811831Y0254445D01*
X0805542Y0252760D01*
X0807227Y0246471D01*
X0815201Y0241867D01*
X0812899Y0237880D02*
X0808296Y0229906D01*
X0796334Y0236812D01*
X0800938Y0244786D01*
X0809221Y0245320D02*
X0813825Y0253294D01*
X0804617Y0237346D02*
X0802315Y0233359D01*
X0800013Y0229372D02*
X0796026Y0231674D01*
X0792881Y0230831D01*
X0789428Y0224850D01*
X0801390Y0217944D01*
X0797403Y0220246D02*
X0800855Y0226227D01*
X0800013Y0229372D01*
X0799705Y0224233D02*
X0805994Y0225919D01*
X0816354Y0217279D02*
X0814052Y0213292D01*
X0814895Y0210147D01*
X0818882Y0207845D01*
X0822026Y0208688D01*
X0824328Y0212675D01*
X0821492Y0216971D02*
X0816888Y0208996D01*
X0812593Y0206160D02*
X0807989Y0198186D01*
X0813969Y0194733D02*
X0802008Y0201639D01*
X0795635Y0207977D02*
X0797937Y0211964D01*
X0797094Y0215108D01*
X0795635Y0207977D02*
X0792490Y0207134D01*
X0784516Y0211738D01*
X0783673Y0214882D01*
X0785975Y0218870D01*
X0789120Y0219712D01*
X0806612Y0209613D02*
X0818573Y0202707D01*
X0821492Y0216971D02*
X0819498Y0218122D01*
X0816354Y0217279D01*
X0820958Y0225253D02*
X0823260Y0229240D01*
X0826404Y0230083D01*
X0832385Y0226630D01*
X0828932Y0220649D01*
X0825788Y0219807D01*
X0824945Y0222951D01*
X0828398Y0228932D01*
X0826713Y0235221D02*
X0829015Y0239208D01*
X0825870Y0238366D02*
X0833844Y0233762D01*
X0836989Y0234604D01*
X0851109Y0263665D02*
X0854254Y0264508D01*
X0856556Y0268495D01*
X0858015Y0275626D02*
X0854028Y0277928D01*
X0853185Y0281073D01*
X0856638Y0287054D01*
X0852651Y0289356D02*
X0864613Y0282450D01*
X0861160Y0276469D01*
X0858015Y0275626D01*
X0863543Y0325597D02*
X0866996Y0331577D01*
X0866153Y0334722D01*
X0858179Y0339326D01*
X0855034Y0338483D01*
X0851581Y0332503D01*
X0863543Y0325597D01*
X0870449Y0337558D02*
X0867078Y0350136D01*
X0865085Y0351287D01*
X0861940Y0350445D01*
X0859638Y0346457D01*
X0860481Y0343313D01*
X0870449Y0337558D02*
X0875053Y0345532D01*
D12*
X0001197Y0501000D02*
X0001339Y0512594D01*
X0001766Y0524182D01*
X0002477Y0535755D01*
X0003472Y0547307D01*
X0004750Y0558832D01*
X0006310Y0570321D01*
X0008152Y0581769D01*
X0010275Y0593169D01*
X0012676Y0604512D01*
X0015355Y0615794D01*
X0018311Y0627006D01*
X0021540Y0638142D01*
X0025042Y0649196D01*
X0028814Y0660161D01*
X0032854Y0671029D01*
X0037159Y0681795D01*
X0041728Y0692453D01*
X0046556Y0702995D01*
X0051642Y0713415D01*
X0056982Y0723707D01*
X0062573Y0733865D01*
X0068412Y0743883D01*
X0074495Y0753755D01*
X0080818Y0763474D01*
X0087377Y0773035D01*
X0094170Y0782433D01*
X0101191Y0791661D01*
X0108436Y0800713D01*
X0115901Y0809586D01*
X0123582Y0818272D01*
X0131474Y0826767D01*
X0139572Y0835066D01*
X0147871Y0843164D01*
X0156366Y0851056D01*
X0165052Y0858737D01*
X0173925Y0866202D01*
X0182977Y0873447D01*
X0192205Y0880468D01*
X0201603Y0887261D01*
X0211164Y0893820D01*
X0220883Y0900143D01*
X0230755Y0906226D01*
X0240773Y0912065D01*
X0250931Y0917656D01*
X0261223Y0922996D01*
X0271643Y0928082D01*
X0282185Y0932910D01*
X0292843Y0937479D01*
X0303609Y0941784D01*
X0314477Y0945824D01*
X0325442Y0949596D01*
X0336496Y0953098D01*
X0347632Y0956327D01*
X0358844Y0959283D01*
X0370126Y0961962D01*
X0381469Y0964363D01*
X0392869Y0966486D01*
X0404317Y0968328D01*
X0415806Y0969888D01*
X0427331Y0971166D01*
X0438883Y0972161D01*
X0450456Y0972872D01*
X0462044Y0973299D01*
X0473638Y0973441D01*
X0485232Y0973299D01*
X0496820Y0972872D01*
X0508393Y0972161D01*
X0519945Y0971166D01*
X0531470Y0969888D01*
X0542959Y0968328D01*
X0554407Y0966486D01*
X0565807Y0964363D01*
X0577150Y0961962D01*
X0588432Y0959283D01*
X0599644Y0956327D01*
X0610780Y0953098D01*
X0621834Y0949596D01*
X0632799Y0945824D01*
X0643667Y0941784D01*
X0654433Y0937479D01*
X0665091Y0932910D01*
X0675633Y0928082D01*
X0686053Y0922996D01*
X0696345Y0917656D01*
X0706503Y0912065D01*
X0716521Y0906226D01*
X0726393Y0900143D01*
X0736112Y0893820D01*
X0745673Y0887261D01*
X0755071Y0880468D01*
X0764299Y0873447D01*
X0773351Y0866202D01*
X0782224Y0858737D01*
X0790910Y0851056D01*
X0799405Y0843164D01*
X0807704Y0835066D01*
X0815802Y0826767D01*
X0823694Y0818272D01*
X0831375Y0809586D01*
X0838840Y0800713D01*
X0846085Y0791661D01*
X0853106Y0782433D01*
X0859899Y0773035D01*
X0866458Y0763474D01*
X0872781Y0753755D01*
X0878864Y0743883D01*
X0884703Y0733865D01*
X0890294Y0723707D01*
X0895634Y0713415D01*
X0900720Y0702995D01*
X0905548Y0692453D01*
X0910117Y0681795D01*
X0914422Y0671029D01*
X0918462Y0660161D01*
X0922234Y0649196D01*
X0925736Y0638142D01*
X0928965Y0627006D01*
X0931921Y0615794D01*
X0934600Y0604512D01*
X0937001Y0593169D01*
X0939124Y0581769D01*
X0940966Y0570321D01*
X0942526Y0558832D01*
X0943804Y0547307D01*
X0944799Y0535755D01*
X0945510Y0524182D01*
X0945937Y0512594D01*
X0946079Y0501000D01*
X0945937Y0489406D01*
X0945510Y0477818D01*
X0944799Y0466245D01*
X0943804Y0454693D01*
X0942526Y0443168D01*
X0940966Y0431679D01*
X0939124Y0420231D01*
X0937001Y0408831D01*
X0934600Y0397488D01*
X0931921Y0386206D01*
X0928965Y0374994D01*
X0925736Y0363858D01*
X0922234Y0352804D01*
X0918462Y0341839D01*
X0914422Y0330971D01*
X0910117Y0320205D01*
X0905548Y0309547D01*
X0900720Y0299005D01*
X0895634Y0288585D01*
X0890294Y0278293D01*
X0884703Y0268135D01*
X0878864Y0258117D01*
X0872781Y0248245D01*
X0866458Y0238526D01*
X0859899Y0228965D01*
X0853106Y0219567D01*
X0846085Y0210339D01*
X0838840Y0201287D01*
X0831375Y0192414D01*
X0823694Y0183728D01*
X0815802Y0175233D01*
X0807704Y0166934D01*
X0799405Y0158836D01*
X0790910Y0150944D01*
X0782224Y0143263D01*
X0773351Y0135798D01*
X0764299Y0128553D01*
X0755071Y0121532D01*
X0745673Y0114739D01*
X0736112Y0108180D01*
X0726393Y0101857D01*
X0716521Y0095774D01*
X0706503Y0089935D01*
X0696345Y0084344D01*
X0686053Y0079004D01*
X0675633Y0073918D01*
X0665091Y0069090D01*
X0654433Y0064521D01*
X0643667Y0060216D01*
X0632799Y0056176D01*
X0621834Y0052404D01*
X0610780Y0048902D01*
X0599644Y0045673D01*
X0588432Y0042717D01*
X0577150Y0040038D01*
X0565807Y0037637D01*
X0554407Y0035514D01*
X0542959Y0033672D01*
X0531470Y0032112D01*
X0519945Y0030834D01*
X0508393Y0029839D01*
X0496820Y0029128D01*
X0485232Y0028701D01*
X0473638Y0028559D01*
X0462044Y0028701D01*
X0450456Y0029128D01*
X0438883Y0029839D01*
X0427331Y0030834D01*
X0415806Y0032112D01*
X0404317Y0033672D01*
X0392869Y0035514D01*
X0381469Y0037637D01*
X0370126Y0040038D01*
X0358844Y0042717D01*
X0347632Y0045673D01*
X0336496Y0048902D01*
X0325442Y0052404D01*
X0314477Y0056176D01*
X0303609Y0060216D01*
X0292843Y0064521D01*
X0282185Y0069090D01*
X0271643Y0073918D01*
X0261223Y0079004D01*
X0250931Y0084344D01*
X0240773Y0089935D01*
X0230755Y0095774D01*
X0220883Y0101857D01*
X0211164Y0108180D01*
X0201603Y0114739D01*
X0192205Y0121532D01*
X0182977Y0128553D01*
X0173925Y0135798D01*
X0165052Y0143263D01*
X0156366Y0150944D01*
X0147871Y0158836D01*
X0139572Y0166934D01*
X0131474Y0175233D01*
X0123582Y0183728D01*
X0115901Y0192414D01*
X0108436Y0201287D01*
X0101191Y0210339D01*
X0094170Y0219567D01*
X0087377Y0228965D01*
X0080818Y0238526D01*
X0074495Y0248245D01*
X0068412Y0258117D01*
X0062573Y0268135D01*
X0056982Y0278293D01*
X0051642Y0288585D01*
X0046556Y0299005D01*
X0041728Y0309547D01*
X0037159Y0320205D01*
X0032854Y0330971D01*
X0028814Y0341839D01*
X0025042Y0352804D01*
X0021540Y0363858D01*
X0018311Y0374994D01*
X0015355Y0386206D01*
X0012676Y0397488D01*
X0010275Y0408831D01*
X0008152Y0420231D01*
X0006310Y0431679D01*
X0004750Y0443168D01*
X0003472Y0454693D01*
X0002477Y0466245D01*
X0001766Y0477818D01*
X0001339Y0489406D01*
X0001197Y0501000D01*
D13*
X0405535Y0914689D02*
X0404485Y0917573D01*
X0405010Y0916131D02*
X0409336Y0917706D01*
X0407369Y0918623D01*
X0406123Y0919803D02*
X0405140Y0920261D01*
X0404353Y0922424D01*
X0404877Y0920982D02*
X0403960Y0919015D01*
X0406123Y0919803D02*
X0407565Y0920328D01*
X0408024Y0921311D01*
X0407237Y0923474D01*
X0402910Y0921900D01*
D14*
X0414996Y0935587D02*
X0414996Y0938087D01*
X0414996Y0935587D02*
X0417496Y0935587D01*
X0427496Y0935587D02*
X0429996Y0935587D01*
X0429996Y0938087D01*
X0429996Y0948087D02*
X0429996Y0950587D01*
X0427496Y0950587D01*
X0417496Y0950587D02*
X0414996Y0950587D01*
X0414996Y0948087D01*
D15*
X0415246Y0952337D02*
X0415246Y0956840D01*
X0417498Y0956840D01*
X0418249Y0956090D01*
X0418249Y0954589D01*
X0417498Y0953838D01*
X0415246Y0953838D01*
X0419850Y0954589D02*
X0422853Y0954589D01*
X0422853Y0955339D02*
X0422853Y0952337D01*
X0424454Y0952337D02*
X0426706Y0952337D01*
X0427456Y0953087D01*
X0427456Y0956090D01*
X0426706Y0956840D01*
X0424454Y0956840D01*
X0424454Y0952337D01*
X0422853Y0955339D02*
X0421351Y0956840D01*
X0419850Y0955339D01*
X0419850Y0952337D01*
X0429058Y0952337D02*
X0432060Y0952337D01*
X0430559Y0952337D02*
X0430559Y0956840D01*
X0429058Y0955339D01*
M02*
