G75*
%MOIN*%
%OFA0B0*%
%FSLAX25Y25*%
%IPPOS*%
%LPD*%
%AMOC8*
5,1,8,0,0,1.08239X$1,22.5*
%
%ADD10R,0.06737X0.06737*%
%ADD11R,0.13461X0.13461*%
%ADD12C,0.08200*%
%ADD13C,0.06800*%
%ADD14OC8,0.06800*%
%ADD15C,0.20485*%
%ADD16C,0.08674*%
%ADD17C,0.05950*%
%ADD18OC8,0.09300*%
%ADD19C,0.17398*%
%ADD20C,0.04369*%
D10*
X0679044Y0118060D03*
X0679044Y0127902D03*
X0679044Y0137745D03*
X0736131Y0137745D03*
X0736131Y0118060D03*
D11*
X0708572Y0103887D03*
X0708572Y0151918D03*
D12*
X0658606Y0047281D03*
X0640806Y0047281D03*
X0640806Y0021681D03*
X0658606Y0021681D03*
D13*
X0783646Y0060973D02*
X0789646Y0060973D01*
X0789646Y0070973D02*
X0783646Y0070973D01*
X0783646Y0080973D02*
X0789646Y0080973D01*
X0789603Y0107520D02*
X0783603Y0107520D01*
X0783603Y0117520D02*
X0789603Y0117520D01*
X0789603Y0127520D02*
X0783603Y0127520D01*
X0648343Y0207784D02*
X0642343Y0207784D01*
X0642343Y0217784D02*
X0648343Y0217784D01*
X0648343Y0227784D02*
X0642343Y0227784D01*
D14*
X0539753Y0136524D03*
X0529753Y0136524D03*
X0519753Y0136524D03*
X0509753Y0136524D03*
X0499753Y0136524D03*
X0489753Y0136524D03*
X0479753Y0136524D03*
X0479753Y0126524D03*
X0489753Y0126524D03*
X0499753Y0126524D03*
X0509753Y0126524D03*
X0519753Y0126524D03*
X0529753Y0126524D03*
X0539753Y0126524D03*
X0423454Y0126524D03*
X0413454Y0126524D03*
X0403454Y0126524D03*
X0393454Y0126524D03*
X0383454Y0126524D03*
X0383454Y0136524D03*
X0393454Y0136524D03*
X0403454Y0136524D03*
X0413454Y0136524D03*
X0423454Y0136524D03*
X0228139Y0091564D03*
X0218139Y0091564D03*
X0218139Y0081564D03*
X0228139Y0081564D03*
X0078532Y0081564D03*
X0068532Y0081564D03*
X0068532Y0091564D03*
X0078532Y0091564D03*
D15*
X0247154Y0019635D03*
X0613296Y0019635D03*
X0613296Y0236170D03*
X0247154Y0236170D03*
D16*
X0276682Y0232233D02*
X0276682Y0240107D01*
X0286682Y0240107D02*
X0286682Y0232233D01*
X0296682Y0232233D02*
X0296682Y0240107D01*
X0306682Y0240107D02*
X0306682Y0232233D01*
X0316682Y0232233D02*
X0316682Y0240107D01*
X0326682Y0240107D02*
X0326682Y0232233D01*
X0336682Y0232233D02*
X0336682Y0240107D01*
X0346682Y0240107D02*
X0346682Y0232233D01*
X0356682Y0232233D02*
X0356682Y0240107D01*
X0366682Y0240107D02*
X0366682Y0232233D01*
X0376682Y0232233D02*
X0376682Y0240107D01*
X0386682Y0240107D02*
X0386682Y0232233D01*
X0396682Y0232233D02*
X0396682Y0240107D01*
X0406682Y0240107D02*
X0406682Y0232233D01*
X0416682Y0232233D02*
X0416682Y0240107D01*
X0426682Y0240107D02*
X0426682Y0232233D01*
D17*
X0803367Y0234217D02*
X0803367Y0229068D01*
X0813209Y0229068D02*
X0813209Y0234217D01*
X0823052Y0234217D02*
X0823052Y0229068D01*
X0832894Y0229068D02*
X0832894Y0234217D01*
D18*
X0718847Y0038887D03*
X0688847Y0038887D03*
D19*
X0832587Y0029477D03*
X0832587Y0167272D03*
X0029438Y0088532D03*
D20*
X0316879Y0067430D03*
X0466997Y0066131D03*
X0519202Y0079635D03*
X0529635Y0089713D03*
X0491643Y0100343D03*
X0539595Y0106879D03*
X0555776Y0070265D03*
X0487824Y0165501D03*
X0507666Y0171997D03*
X0393682Y0170898D03*
X0386686Y0201304D03*
M02*
