G75*
%MOIN*%
%OFA0B0*%
%FSLAX25Y25*%
%IPPOS*%
%LPD*%
%AMOC8*
5,1,8,0,0,1.08239X$1,22.5*
%
%ADD10C,0.00000*%
%ADD11C,0.00600*%
%ADD12C,0.03000*%
%ADD13R,0.03000X0.02000*%
%ADD14R,0.03000X0.04000*%
%ADD15R,0.03000X0.03000*%
%ADD16C,0.00500*%
%ADD17C,0.00400*%
D10*
X0009753Y0009792D02*
X0066839Y0009792D01*
X0066839Y0017666D01*
X0066839Y0017690D02*
X0066841Y0017880D01*
X0066848Y0018070D01*
X0066860Y0018260D01*
X0066876Y0018450D01*
X0066896Y0018639D01*
X0066922Y0018828D01*
X0066951Y0019016D01*
X0066986Y0019203D01*
X0067025Y0019389D01*
X0067068Y0019574D01*
X0067116Y0019759D01*
X0067168Y0019942D01*
X0067224Y0020123D01*
X0067285Y0020303D01*
X0067351Y0020482D01*
X0067420Y0020659D01*
X0067494Y0020835D01*
X0067572Y0021008D01*
X0067655Y0021180D01*
X0067741Y0021349D01*
X0067831Y0021517D01*
X0067926Y0021682D01*
X0068024Y0021845D01*
X0068127Y0022005D01*
X0068233Y0022163D01*
X0068343Y0022318D01*
X0068456Y0022471D01*
X0068574Y0022621D01*
X0068695Y0022767D01*
X0068819Y0022911D01*
X0068947Y0023052D01*
X0069078Y0023190D01*
X0069213Y0023325D01*
X0069351Y0023456D01*
X0069492Y0023584D01*
X0069636Y0023708D01*
X0069782Y0023829D01*
X0069932Y0023947D01*
X0070085Y0024060D01*
X0070240Y0024170D01*
X0070398Y0024276D01*
X0070558Y0024379D01*
X0070721Y0024477D01*
X0070886Y0024572D01*
X0071054Y0024662D01*
X0071223Y0024748D01*
X0071395Y0024831D01*
X0071568Y0024909D01*
X0071744Y0024983D01*
X0071921Y0025052D01*
X0072100Y0025118D01*
X0072280Y0025179D01*
X0072461Y0025235D01*
X0072644Y0025287D01*
X0072829Y0025335D01*
X0073014Y0025378D01*
X0073200Y0025417D01*
X0073387Y0025452D01*
X0073575Y0025481D01*
X0073764Y0025507D01*
X0073953Y0025527D01*
X0074143Y0025543D01*
X0074333Y0025555D01*
X0074523Y0025562D01*
X0074713Y0025564D01*
X0074686Y0025544D02*
X0117993Y0025544D01*
X0118036Y0025556D02*
X0118226Y0025554D01*
X0118416Y0025547D01*
X0118606Y0025535D01*
X0118796Y0025519D01*
X0118985Y0025499D01*
X0119174Y0025473D01*
X0119362Y0025444D01*
X0119549Y0025409D01*
X0119735Y0025370D01*
X0119920Y0025327D01*
X0120105Y0025279D01*
X0120288Y0025227D01*
X0120469Y0025171D01*
X0120649Y0025110D01*
X0120828Y0025044D01*
X0121005Y0024975D01*
X0121181Y0024901D01*
X0121354Y0024823D01*
X0121526Y0024740D01*
X0121695Y0024654D01*
X0121863Y0024564D01*
X0122028Y0024469D01*
X0122191Y0024371D01*
X0122351Y0024268D01*
X0122509Y0024162D01*
X0122664Y0024052D01*
X0122817Y0023939D01*
X0122967Y0023821D01*
X0123113Y0023700D01*
X0123257Y0023576D01*
X0123398Y0023448D01*
X0123536Y0023317D01*
X0123671Y0023182D01*
X0123802Y0023044D01*
X0123930Y0022903D01*
X0124054Y0022759D01*
X0124175Y0022613D01*
X0124293Y0022463D01*
X0124406Y0022310D01*
X0124516Y0022155D01*
X0124622Y0021997D01*
X0124725Y0021837D01*
X0124823Y0021674D01*
X0124918Y0021509D01*
X0125008Y0021341D01*
X0125094Y0021172D01*
X0125177Y0021000D01*
X0125255Y0020827D01*
X0125329Y0020651D01*
X0125398Y0020474D01*
X0125464Y0020295D01*
X0125525Y0020115D01*
X0125581Y0019934D01*
X0125633Y0019751D01*
X0125681Y0019566D01*
X0125724Y0019381D01*
X0125763Y0019195D01*
X0125798Y0019008D01*
X0125827Y0018820D01*
X0125853Y0018631D01*
X0125873Y0018442D01*
X0125889Y0018252D01*
X0125901Y0018062D01*
X0125908Y0017872D01*
X0125910Y0017682D01*
X0125894Y0017666D02*
X0125894Y0009792D01*
X0401485Y0009792D01*
X0401485Y0017666D01*
X0401487Y0017856D01*
X0401494Y0018046D01*
X0401506Y0018236D01*
X0401522Y0018426D01*
X0401542Y0018615D01*
X0401568Y0018804D01*
X0401597Y0018992D01*
X0401632Y0019179D01*
X0401671Y0019365D01*
X0401714Y0019550D01*
X0401762Y0019735D01*
X0401814Y0019918D01*
X0401870Y0020099D01*
X0401931Y0020279D01*
X0401997Y0020458D01*
X0402066Y0020635D01*
X0402140Y0020811D01*
X0402218Y0020984D01*
X0402301Y0021156D01*
X0402387Y0021325D01*
X0402477Y0021493D01*
X0402572Y0021658D01*
X0402670Y0021821D01*
X0402773Y0021981D01*
X0402879Y0022139D01*
X0402989Y0022294D01*
X0403102Y0022447D01*
X0403220Y0022597D01*
X0403341Y0022743D01*
X0403465Y0022887D01*
X0403593Y0023028D01*
X0403724Y0023166D01*
X0403859Y0023301D01*
X0403997Y0023432D01*
X0404138Y0023560D01*
X0404282Y0023684D01*
X0404428Y0023805D01*
X0404578Y0023923D01*
X0404731Y0024036D01*
X0404886Y0024146D01*
X0405044Y0024252D01*
X0405204Y0024355D01*
X0405367Y0024453D01*
X0405532Y0024548D01*
X0405700Y0024638D01*
X0405869Y0024724D01*
X0406041Y0024807D01*
X0406214Y0024885D01*
X0406390Y0024959D01*
X0406567Y0025028D01*
X0406746Y0025094D01*
X0406926Y0025155D01*
X0407107Y0025211D01*
X0407290Y0025263D01*
X0407475Y0025311D01*
X0407660Y0025354D01*
X0407846Y0025393D01*
X0408033Y0025428D01*
X0408221Y0025457D01*
X0408410Y0025483D01*
X0408599Y0025503D01*
X0408789Y0025519D01*
X0408979Y0025531D01*
X0409169Y0025538D01*
X0409359Y0025540D01*
X0452666Y0025540D01*
X0452856Y0025538D01*
X0453046Y0025531D01*
X0453236Y0025519D01*
X0453426Y0025503D01*
X0453615Y0025483D01*
X0453804Y0025457D01*
X0453992Y0025428D01*
X0454179Y0025393D01*
X0454365Y0025354D01*
X0454550Y0025311D01*
X0454735Y0025263D01*
X0454918Y0025211D01*
X0455099Y0025155D01*
X0455279Y0025094D01*
X0455458Y0025028D01*
X0455635Y0024959D01*
X0455811Y0024885D01*
X0455984Y0024807D01*
X0456156Y0024724D01*
X0456325Y0024638D01*
X0456493Y0024548D01*
X0456658Y0024453D01*
X0456821Y0024355D01*
X0456981Y0024252D01*
X0457139Y0024146D01*
X0457294Y0024036D01*
X0457447Y0023923D01*
X0457597Y0023805D01*
X0457743Y0023684D01*
X0457887Y0023560D01*
X0458028Y0023432D01*
X0458166Y0023301D01*
X0458301Y0023166D01*
X0458432Y0023028D01*
X0458560Y0022887D01*
X0458684Y0022743D01*
X0458805Y0022597D01*
X0458923Y0022447D01*
X0459036Y0022294D01*
X0459146Y0022139D01*
X0459252Y0021981D01*
X0459355Y0021821D01*
X0459453Y0021658D01*
X0459548Y0021493D01*
X0459638Y0021325D01*
X0459724Y0021156D01*
X0459807Y0020984D01*
X0459885Y0020811D01*
X0459959Y0020635D01*
X0460028Y0020458D01*
X0460094Y0020279D01*
X0460155Y0020099D01*
X0460211Y0019918D01*
X0460263Y0019735D01*
X0460311Y0019550D01*
X0460354Y0019365D01*
X0460393Y0019179D01*
X0460428Y0018992D01*
X0460457Y0018804D01*
X0460483Y0018615D01*
X0460503Y0018426D01*
X0460519Y0018236D01*
X0460531Y0018046D01*
X0460538Y0017856D01*
X0460540Y0017666D01*
X0460540Y0009792D01*
X0736131Y0009792D01*
X0736131Y0017666D01*
X0736107Y0017702D02*
X0736109Y0017892D01*
X0736116Y0018082D01*
X0736128Y0018272D01*
X0736144Y0018462D01*
X0736164Y0018651D01*
X0736190Y0018840D01*
X0736219Y0019028D01*
X0736254Y0019215D01*
X0736293Y0019401D01*
X0736336Y0019586D01*
X0736384Y0019771D01*
X0736436Y0019954D01*
X0736492Y0020135D01*
X0736553Y0020315D01*
X0736619Y0020494D01*
X0736688Y0020671D01*
X0736762Y0020847D01*
X0736840Y0021020D01*
X0736923Y0021192D01*
X0737009Y0021361D01*
X0737099Y0021529D01*
X0737194Y0021694D01*
X0737292Y0021857D01*
X0737395Y0022017D01*
X0737501Y0022175D01*
X0737611Y0022330D01*
X0737724Y0022483D01*
X0737842Y0022633D01*
X0737963Y0022779D01*
X0738087Y0022923D01*
X0738215Y0023064D01*
X0738346Y0023202D01*
X0738481Y0023337D01*
X0738619Y0023468D01*
X0738760Y0023596D01*
X0738904Y0023720D01*
X0739050Y0023841D01*
X0739200Y0023959D01*
X0739353Y0024072D01*
X0739508Y0024182D01*
X0739666Y0024288D01*
X0739826Y0024391D01*
X0739989Y0024489D01*
X0740154Y0024584D01*
X0740322Y0024674D01*
X0740491Y0024760D01*
X0740663Y0024843D01*
X0740836Y0024921D01*
X0741012Y0024995D01*
X0741189Y0025064D01*
X0741368Y0025130D01*
X0741548Y0025191D01*
X0741729Y0025247D01*
X0741912Y0025299D01*
X0742097Y0025347D01*
X0742282Y0025390D01*
X0742468Y0025429D01*
X0742655Y0025464D01*
X0742843Y0025493D01*
X0743032Y0025519D01*
X0743221Y0025539D01*
X0743411Y0025555D01*
X0743601Y0025567D01*
X0743791Y0025574D01*
X0743981Y0025576D01*
X0744001Y0025576D02*
X0787308Y0025576D01*
X0787351Y0025580D02*
X0787541Y0025578D01*
X0787731Y0025571D01*
X0787921Y0025559D01*
X0788111Y0025543D01*
X0788300Y0025523D01*
X0788489Y0025497D01*
X0788677Y0025468D01*
X0788864Y0025433D01*
X0789050Y0025394D01*
X0789235Y0025351D01*
X0789420Y0025303D01*
X0789603Y0025251D01*
X0789784Y0025195D01*
X0789964Y0025134D01*
X0790143Y0025068D01*
X0790320Y0024999D01*
X0790496Y0024925D01*
X0790669Y0024847D01*
X0790841Y0024764D01*
X0791010Y0024678D01*
X0791178Y0024588D01*
X0791343Y0024493D01*
X0791506Y0024395D01*
X0791666Y0024292D01*
X0791824Y0024186D01*
X0791979Y0024076D01*
X0792132Y0023963D01*
X0792282Y0023845D01*
X0792428Y0023724D01*
X0792572Y0023600D01*
X0792713Y0023472D01*
X0792851Y0023341D01*
X0792986Y0023206D01*
X0793117Y0023068D01*
X0793245Y0022927D01*
X0793369Y0022783D01*
X0793490Y0022637D01*
X0793608Y0022487D01*
X0793721Y0022334D01*
X0793831Y0022179D01*
X0793937Y0022021D01*
X0794040Y0021861D01*
X0794138Y0021698D01*
X0794233Y0021533D01*
X0794323Y0021365D01*
X0794409Y0021196D01*
X0794492Y0021024D01*
X0794570Y0020851D01*
X0794644Y0020675D01*
X0794713Y0020498D01*
X0794779Y0020319D01*
X0794840Y0020139D01*
X0794896Y0019958D01*
X0794948Y0019775D01*
X0794996Y0019590D01*
X0795039Y0019405D01*
X0795078Y0019219D01*
X0795113Y0019032D01*
X0795142Y0018844D01*
X0795168Y0018655D01*
X0795188Y0018466D01*
X0795204Y0018276D01*
X0795216Y0018086D01*
X0795223Y0017896D01*
X0795225Y0017706D01*
X0795186Y0017666D02*
X0795186Y0009792D01*
X0852272Y0009792D01*
X0852272Y0246013D01*
X0237312Y0246013D01*
X0237312Y0115698D01*
X0237310Y0115574D01*
X0237304Y0115451D01*
X0237295Y0115327D01*
X0237281Y0115205D01*
X0237264Y0115082D01*
X0237242Y0114960D01*
X0237217Y0114839D01*
X0237188Y0114719D01*
X0237156Y0114600D01*
X0237119Y0114481D01*
X0237079Y0114364D01*
X0237036Y0114249D01*
X0236988Y0114134D01*
X0236937Y0114022D01*
X0236883Y0113911D01*
X0236825Y0113801D01*
X0236764Y0113694D01*
X0236699Y0113588D01*
X0236631Y0113485D01*
X0236560Y0113384D01*
X0236486Y0113285D01*
X0236409Y0113188D01*
X0236328Y0113094D01*
X0236245Y0113003D01*
X0236159Y0112914D01*
X0236070Y0112828D01*
X0235979Y0112745D01*
X0235885Y0112664D01*
X0235788Y0112587D01*
X0235689Y0112513D01*
X0235588Y0112442D01*
X0235485Y0112374D01*
X0235379Y0112309D01*
X0235272Y0112248D01*
X0235162Y0112190D01*
X0235051Y0112136D01*
X0234939Y0112085D01*
X0234824Y0112037D01*
X0234709Y0111994D01*
X0234592Y0111954D01*
X0234473Y0111917D01*
X0234354Y0111885D01*
X0234234Y0111856D01*
X0234113Y0111831D01*
X0233991Y0111809D01*
X0233868Y0111792D01*
X0233746Y0111778D01*
X0233622Y0111769D01*
X0233499Y0111763D01*
X0233375Y0111761D01*
X0233251Y0111763D01*
X0233128Y0111769D01*
X0233004Y0111778D01*
X0232882Y0111792D01*
X0232759Y0111809D01*
X0232637Y0111831D01*
X0232516Y0111856D01*
X0232396Y0111885D01*
X0232277Y0111917D01*
X0232158Y0111954D01*
X0232041Y0111994D01*
X0231926Y0112037D01*
X0231811Y0112085D01*
X0231699Y0112136D01*
X0231588Y0112190D01*
X0231478Y0112248D01*
X0231371Y0112309D01*
X0231265Y0112374D01*
X0231162Y0112442D01*
X0231061Y0112513D01*
X0230962Y0112587D01*
X0230865Y0112664D01*
X0230771Y0112745D01*
X0230680Y0112828D01*
X0230591Y0112914D01*
X0230505Y0113003D01*
X0230422Y0113094D01*
X0230341Y0113188D01*
X0230264Y0113285D01*
X0230190Y0113384D01*
X0230119Y0113485D01*
X0230051Y0113588D01*
X0229986Y0113694D01*
X0229925Y0113801D01*
X0229867Y0113911D01*
X0229813Y0114022D01*
X0229762Y0114134D01*
X0229714Y0114249D01*
X0229671Y0114364D01*
X0229631Y0114481D01*
X0229594Y0114600D01*
X0229562Y0114719D01*
X0229533Y0114839D01*
X0229508Y0114960D01*
X0229486Y0115082D01*
X0229469Y0115205D01*
X0229455Y0115327D01*
X0229446Y0115451D01*
X0229440Y0115574D01*
X0229438Y0115698D01*
X0067233Y0115698D01*
X0067231Y0115574D01*
X0067225Y0115451D01*
X0067216Y0115327D01*
X0067202Y0115205D01*
X0067185Y0115082D01*
X0067163Y0114960D01*
X0067138Y0114839D01*
X0067109Y0114719D01*
X0067077Y0114600D01*
X0067040Y0114481D01*
X0067000Y0114364D01*
X0066957Y0114249D01*
X0066909Y0114134D01*
X0066858Y0114022D01*
X0066804Y0113911D01*
X0066746Y0113801D01*
X0066685Y0113694D01*
X0066620Y0113588D01*
X0066552Y0113485D01*
X0066481Y0113384D01*
X0066407Y0113285D01*
X0066330Y0113188D01*
X0066249Y0113094D01*
X0066166Y0113003D01*
X0066080Y0112914D01*
X0065991Y0112828D01*
X0065900Y0112745D01*
X0065806Y0112664D01*
X0065709Y0112587D01*
X0065610Y0112513D01*
X0065509Y0112442D01*
X0065406Y0112374D01*
X0065300Y0112309D01*
X0065193Y0112248D01*
X0065083Y0112190D01*
X0064972Y0112136D01*
X0064860Y0112085D01*
X0064745Y0112037D01*
X0064630Y0111994D01*
X0064513Y0111954D01*
X0064394Y0111917D01*
X0064275Y0111885D01*
X0064155Y0111856D01*
X0064034Y0111831D01*
X0063912Y0111809D01*
X0063789Y0111792D01*
X0063667Y0111778D01*
X0063543Y0111769D01*
X0063420Y0111763D01*
X0063296Y0111761D01*
X0063172Y0111763D01*
X0063049Y0111769D01*
X0062925Y0111778D01*
X0062803Y0111792D01*
X0062680Y0111809D01*
X0062558Y0111831D01*
X0062437Y0111856D01*
X0062317Y0111885D01*
X0062198Y0111917D01*
X0062079Y0111954D01*
X0061962Y0111994D01*
X0061847Y0112037D01*
X0061732Y0112085D01*
X0061620Y0112136D01*
X0061509Y0112190D01*
X0061399Y0112248D01*
X0061292Y0112309D01*
X0061186Y0112374D01*
X0061083Y0112442D01*
X0060982Y0112513D01*
X0060883Y0112587D01*
X0060786Y0112664D01*
X0060692Y0112745D01*
X0060601Y0112828D01*
X0060512Y0112914D01*
X0060426Y0113003D01*
X0060343Y0113094D01*
X0060262Y0113188D01*
X0060185Y0113285D01*
X0060111Y0113384D01*
X0060040Y0113485D01*
X0059972Y0113588D01*
X0059907Y0113694D01*
X0059846Y0113801D01*
X0059788Y0113911D01*
X0059734Y0114022D01*
X0059683Y0114134D01*
X0059635Y0114249D01*
X0059592Y0114364D01*
X0059552Y0114481D01*
X0059515Y0114600D01*
X0059483Y0114719D01*
X0059454Y0114839D01*
X0059429Y0114960D01*
X0059407Y0115082D01*
X0059390Y0115205D01*
X0059376Y0115327D01*
X0059367Y0115451D01*
X0059361Y0115574D01*
X0059359Y0115698D01*
X0059359Y0123572D01*
X0009753Y0123572D01*
X0009753Y0009792D01*
D11*
X0066032Y0076564D02*
X0071032Y0076564D01*
X0073532Y0079064D01*
X0073532Y0094064D01*
X0071032Y0096564D01*
X0066032Y0096564D01*
X0063532Y0094064D01*
X0063532Y0079064D01*
X0066032Y0076564D01*
X0073532Y0079064D02*
X0076032Y0076564D01*
X0081032Y0076564D01*
X0083532Y0079064D01*
X0083532Y0094064D01*
X0081032Y0096564D01*
X0076032Y0096564D01*
X0073532Y0094064D01*
X0213139Y0094064D02*
X0213139Y0079064D01*
X0215639Y0076564D01*
X0220639Y0076564D01*
X0223139Y0079064D01*
X0223139Y0094064D01*
X0220639Y0096564D01*
X0215639Y0096564D01*
X0213139Y0094064D01*
X0223139Y0094064D02*
X0225639Y0096564D01*
X0230639Y0096564D01*
X0233139Y0094064D01*
X0233139Y0079064D01*
X0230639Y0076564D01*
X0225639Y0076564D01*
X0223139Y0079064D01*
X0378454Y0144024D02*
X0378454Y0154024D01*
X0388454Y0154024D01*
X0398454Y0154024D01*
X0408454Y0154024D01*
X0418454Y0154024D01*
X0428454Y0154024D01*
X0428454Y0144024D01*
X0418454Y0144024D01*
X0408454Y0144024D01*
X0398454Y0144024D01*
X0388454Y0144024D01*
X0378454Y0144024D01*
X0388454Y0144024D02*
X0388454Y0154024D01*
X0398454Y0154024D02*
X0398454Y0144024D01*
X0408454Y0144024D02*
X0408454Y0154024D01*
X0418454Y0154024D02*
X0418454Y0144024D01*
X0449011Y0129765D02*
X0449011Y0123360D01*
X0451146Y0123360D02*
X0446875Y0123360D01*
X0451146Y0127630D02*
X0449011Y0129765D01*
X0474753Y0144024D02*
X0474753Y0154024D01*
X0484753Y0154024D01*
X0494753Y0154024D01*
X0504753Y0154024D01*
X0514753Y0154024D01*
X0524753Y0154024D01*
X0534753Y0154024D01*
X0544753Y0154024D01*
X0544753Y0144024D01*
X0534753Y0144024D01*
X0524753Y0144024D01*
X0514753Y0144024D01*
X0504753Y0144024D01*
X0494753Y0144024D01*
X0484753Y0144024D01*
X0474753Y0144024D01*
X0484753Y0144024D02*
X0484753Y0154024D01*
X0494753Y0154024D02*
X0494753Y0144024D01*
X0504753Y0144024D02*
X0504753Y0154024D01*
X0514753Y0154024D02*
X0514753Y0144024D01*
X0524753Y0144024D02*
X0524753Y0154024D01*
X0534753Y0154024D02*
X0534753Y0144024D01*
X0547318Y0130120D02*
X0547318Y0123714D01*
X0549453Y0123714D02*
X0545182Y0123714D01*
X0549453Y0127984D02*
X0547318Y0130120D01*
D12*
X0539753Y0156524D02*
X0539753Y0179024D01*
X0529753Y0179024D02*
X0529753Y0156524D01*
X0519753Y0156524D02*
X0519753Y0179024D01*
X0509753Y0179024D02*
X0509753Y0156524D01*
X0499753Y0156524D02*
X0499753Y0179024D01*
X0489753Y0179024D02*
X0489753Y0156524D01*
X0479753Y0156524D02*
X0479753Y0179024D01*
X0423454Y0179024D02*
X0423454Y0156524D01*
X0413454Y0156524D02*
X0413454Y0179024D01*
X0403454Y0179024D02*
X0403454Y0156524D01*
X0393454Y0156524D02*
X0393454Y0179024D01*
X0383454Y0179024D02*
X0383454Y0156524D01*
D13*
X0383454Y0155024D03*
X0393454Y0155024D03*
X0403454Y0155024D03*
X0413454Y0155024D03*
X0423454Y0155024D03*
X0479753Y0155024D03*
X0489753Y0155024D03*
X0499753Y0155024D03*
X0509753Y0155024D03*
X0519753Y0155024D03*
X0529753Y0155024D03*
X0539753Y0155024D03*
D14*
X0539753Y0142024D03*
X0529753Y0142024D03*
X0519753Y0142024D03*
X0509753Y0142024D03*
X0499753Y0142024D03*
X0489753Y0142024D03*
X0479753Y0142024D03*
X0423454Y0142024D03*
X0413454Y0142024D03*
X0403454Y0142024D03*
X0393454Y0142024D03*
X0383454Y0142024D03*
D15*
X0383454Y0131524D03*
X0393454Y0131524D03*
X0403454Y0131524D03*
X0413454Y0131524D03*
X0423454Y0131524D03*
X0479753Y0131524D03*
X0489753Y0131524D03*
X0499753Y0131524D03*
X0509753Y0131524D03*
X0519753Y0131524D03*
X0529753Y0131524D03*
X0539753Y0131524D03*
D16*
X0470133Y0130340D02*
X0469382Y0129589D01*
X0468631Y0129589D01*
X0467881Y0130340D01*
X0467881Y0134093D01*
X0468631Y0134093D02*
X0467130Y0134093D01*
X0465529Y0134093D02*
X0463277Y0134093D01*
X0462526Y0133343D01*
X0462526Y0131841D01*
X0463277Y0131091D01*
X0465529Y0131091D01*
X0465529Y0129589D02*
X0465529Y0134093D01*
X0460925Y0131841D02*
X0457922Y0131841D01*
X0458673Y0129589D02*
X0458673Y0134093D01*
X0460925Y0131841D01*
X0375644Y0130340D02*
X0374894Y0129589D01*
X0374143Y0129589D01*
X0373393Y0130340D01*
X0373393Y0134093D01*
X0374143Y0134093D02*
X0372642Y0134093D01*
X0371041Y0134093D02*
X0368789Y0134093D01*
X0368038Y0133343D01*
X0368038Y0131841D01*
X0368789Y0131091D01*
X0371041Y0131091D01*
X0371041Y0129589D02*
X0371041Y0134093D01*
X0366437Y0133343D02*
X0365686Y0134093D01*
X0364185Y0134093D01*
X0363434Y0133343D01*
X0363434Y0132592D01*
X0364185Y0131841D01*
X0363434Y0131091D01*
X0363434Y0130340D01*
X0364185Y0129589D01*
X0365686Y0129589D01*
X0366437Y0130340D01*
X0364935Y0131841D02*
X0364185Y0131841D01*
X0206353Y0085064D02*
X0205603Y0084314D01*
X0204852Y0084314D01*
X0204101Y0085064D01*
X0204101Y0088818D01*
X0203351Y0088818D02*
X0204852Y0088818D01*
X0201749Y0088818D02*
X0199497Y0088818D01*
X0198747Y0088067D01*
X0198747Y0086566D01*
X0199497Y0085815D01*
X0201749Y0085815D01*
X0201749Y0084314D02*
X0201749Y0088818D01*
X0197145Y0088067D02*
X0196395Y0088818D01*
X0194893Y0088818D01*
X0194143Y0088067D01*
X0194143Y0087316D01*
X0197145Y0084314D01*
X0194143Y0084314D01*
X0056747Y0085064D02*
X0055996Y0084314D01*
X0055246Y0084314D01*
X0054495Y0085064D01*
X0054495Y0088818D01*
X0055246Y0088818D02*
X0053744Y0088818D01*
X0052143Y0088818D02*
X0049891Y0088818D01*
X0049140Y0088067D01*
X0049140Y0086566D01*
X0049891Y0085815D01*
X0052143Y0085815D01*
X0052143Y0084314D02*
X0052143Y0088818D01*
X0047539Y0087316D02*
X0046038Y0088818D01*
X0046038Y0084314D01*
X0047539Y0084314D02*
X0044536Y0084314D01*
X0793721Y0219438D02*
X0793721Y0238729D01*
X0836438Y0238729D01*
X0842540Y0232627D01*
X0842540Y0232430D02*
X0842540Y0219438D01*
X0793721Y0219438D01*
X0808288Y0236564D02*
X0806320Y0238532D01*
X0808288Y0236564D02*
X0810257Y0238532D01*
X0816162Y0238532D02*
X0818131Y0236564D01*
X0820099Y0238532D01*
X0826005Y0238532D02*
X0827973Y0236564D01*
X0829942Y0238532D01*
D17*
X0843584Y0236935D02*
X0844352Y0237702D01*
X0845886Y0237702D01*
X0846654Y0236935D01*
X0848188Y0237702D02*
X0849723Y0237702D01*
X0848956Y0237702D02*
X0848956Y0233866D01*
X0849723Y0233098D01*
X0850490Y0233098D01*
X0851257Y0233866D01*
X0846654Y0233098D02*
X0843584Y0236168D01*
X0843584Y0236935D01*
X0843584Y0233098D02*
X0846654Y0233098D01*
X0842694Y0216446D02*
X0842694Y0214144D01*
X0841160Y0214912D01*
X0840393Y0214912D01*
X0839625Y0214144D01*
X0839625Y0212610D01*
X0840393Y0211843D01*
X0841927Y0211843D01*
X0842694Y0212610D01*
X0842694Y0216446D02*
X0839625Y0216446D01*
X0838091Y0215679D02*
X0837323Y0216446D01*
X0835789Y0216446D01*
X0835021Y0215679D01*
X0835021Y0214912D01*
X0838091Y0211843D01*
X0835021Y0211843D01*
X0833487Y0212610D02*
X0832719Y0211843D01*
X0831185Y0211843D01*
X0830417Y0212610D01*
X0830417Y0213377D01*
X0831185Y0214144D01*
X0833487Y0214144D01*
X0833487Y0212610D01*
X0833487Y0214144D02*
X0831952Y0215679D01*
X0830417Y0216446D01*
X0828883Y0216446D02*
X0825813Y0216446D01*
X0825813Y0215679D01*
X0828883Y0212610D01*
X0828883Y0211843D01*
X0824279Y0214144D02*
X0821210Y0214144D01*
X0819675Y0214144D02*
X0816606Y0214144D01*
X0817373Y0211843D02*
X0817373Y0216446D01*
X0819675Y0214144D01*
M02*
