%
M48
M72
T01C0.01969
T02C0.03150
T03C0.03937
T04C0.04000
T05C0.08661
T06C0.09843
T07C0.12598
%
T01
X316879Y67430
X466997Y66131
X519202Y79635
X529635Y89713
X491643Y100343
X539595Y106879
X555776Y70265
X487824Y165501
X507666Y171997
X393682Y170898
X386686Y201304
T02
X803367Y231643
X813209Y231643
X823052Y231643
X832894Y231643
T03
X736131Y137745
X679044Y137745
X679044Y127902
X679044Y118060
X736131Y118060
X426682Y236170
X416682Y236170
X406682Y236170
X396682Y236170
X386682Y236170
X376682Y236170
X366682Y236170
X356682Y236170
X346682Y236170
X336682Y236170
X326682Y236170
X316682Y236170
X306682Y236170
X296682Y236170
X286682Y236170
X276682Y236170
T04
X383454Y136524
X393454Y136524
X403454Y136524
X413454Y136524
X423454Y136524
X423454Y126524
X413454Y126524
X403454Y126524
X393454Y126524
X383454Y126524
X479753Y126524
X489753Y126524
X499753Y126524
X509753Y126524
X519753Y126524
X529753Y126524
X539753Y126524
X539753Y136524
X529753Y136524
X519753Y136524
X509753Y136524
X499753Y136524
X489753Y136524
X479753Y136524
X645343Y207784
X645343Y217784
X645343Y227784
X786603Y127520
X786603Y117520
X786603Y107520
X786646Y80973
X786646Y70973
X786646Y60973
X718847Y38887
X688847Y38887
X658606Y47281
X640806Y47281
X640806Y21681
X658606Y21681
X228139Y81564
X218139Y81564
X218139Y91564
X228139Y91564
X78532Y91564
X68532Y91564
X68532Y81564
X78532Y81564
T05
X708572Y103887
X708572Y151918
T06
X247154Y19635
X613296Y19635
X613296Y236170
X247154Y236170
T07
X29438Y88532
X832587Y29477
X832587Y167272
M30
