G75*
%MOIN*%
%OFA0B0*%
%FSLAX25Y25*%
%IPPOS*%
%LPD*%
%AMOC8*
5,1,8,0,0,1.08239X$1,22.5*
%
%ADD10C,0.00000*%
%ADD11C,0.00400*%
%ADD12C,0.00500*%
%ADD13C,0.00300*%
%ADD14C,0.00800*%
%ADD15C,0.00600*%
%ADD16C,0.02000*%
%ADD17R,0.03000X0.42000*%
%ADD18R,0.02000X0.07500*%
%ADD19R,0.02000X0.03000*%
D10*
X0009753Y0009792D02*
X0066839Y0009792D01*
X0066839Y0017666D01*
X0066839Y0017690D02*
X0066841Y0017880D01*
X0066848Y0018070D01*
X0066860Y0018260D01*
X0066876Y0018450D01*
X0066896Y0018639D01*
X0066922Y0018828D01*
X0066951Y0019016D01*
X0066986Y0019203D01*
X0067025Y0019389D01*
X0067068Y0019574D01*
X0067116Y0019759D01*
X0067168Y0019942D01*
X0067224Y0020123D01*
X0067285Y0020303D01*
X0067351Y0020482D01*
X0067420Y0020659D01*
X0067494Y0020835D01*
X0067572Y0021008D01*
X0067655Y0021180D01*
X0067741Y0021349D01*
X0067831Y0021517D01*
X0067926Y0021682D01*
X0068024Y0021845D01*
X0068127Y0022005D01*
X0068233Y0022163D01*
X0068343Y0022318D01*
X0068456Y0022471D01*
X0068574Y0022621D01*
X0068695Y0022767D01*
X0068819Y0022911D01*
X0068947Y0023052D01*
X0069078Y0023190D01*
X0069213Y0023325D01*
X0069351Y0023456D01*
X0069492Y0023584D01*
X0069636Y0023708D01*
X0069782Y0023829D01*
X0069932Y0023947D01*
X0070085Y0024060D01*
X0070240Y0024170D01*
X0070398Y0024276D01*
X0070558Y0024379D01*
X0070721Y0024477D01*
X0070886Y0024572D01*
X0071054Y0024662D01*
X0071223Y0024748D01*
X0071395Y0024831D01*
X0071568Y0024909D01*
X0071744Y0024983D01*
X0071921Y0025052D01*
X0072100Y0025118D01*
X0072280Y0025179D01*
X0072461Y0025235D01*
X0072644Y0025287D01*
X0072829Y0025335D01*
X0073014Y0025378D01*
X0073200Y0025417D01*
X0073387Y0025452D01*
X0073575Y0025481D01*
X0073764Y0025507D01*
X0073953Y0025527D01*
X0074143Y0025543D01*
X0074333Y0025555D01*
X0074523Y0025562D01*
X0074713Y0025564D01*
X0074686Y0025544D02*
X0117993Y0025544D01*
X0118036Y0025556D02*
X0118226Y0025554D01*
X0118416Y0025547D01*
X0118606Y0025535D01*
X0118796Y0025519D01*
X0118985Y0025499D01*
X0119174Y0025473D01*
X0119362Y0025444D01*
X0119549Y0025409D01*
X0119735Y0025370D01*
X0119920Y0025327D01*
X0120105Y0025279D01*
X0120288Y0025227D01*
X0120469Y0025171D01*
X0120649Y0025110D01*
X0120828Y0025044D01*
X0121005Y0024975D01*
X0121181Y0024901D01*
X0121354Y0024823D01*
X0121526Y0024740D01*
X0121695Y0024654D01*
X0121863Y0024564D01*
X0122028Y0024469D01*
X0122191Y0024371D01*
X0122351Y0024268D01*
X0122509Y0024162D01*
X0122664Y0024052D01*
X0122817Y0023939D01*
X0122967Y0023821D01*
X0123113Y0023700D01*
X0123257Y0023576D01*
X0123398Y0023448D01*
X0123536Y0023317D01*
X0123671Y0023182D01*
X0123802Y0023044D01*
X0123930Y0022903D01*
X0124054Y0022759D01*
X0124175Y0022613D01*
X0124293Y0022463D01*
X0124406Y0022310D01*
X0124516Y0022155D01*
X0124622Y0021997D01*
X0124725Y0021837D01*
X0124823Y0021674D01*
X0124918Y0021509D01*
X0125008Y0021341D01*
X0125094Y0021172D01*
X0125177Y0021000D01*
X0125255Y0020827D01*
X0125329Y0020651D01*
X0125398Y0020474D01*
X0125464Y0020295D01*
X0125525Y0020115D01*
X0125581Y0019934D01*
X0125633Y0019751D01*
X0125681Y0019566D01*
X0125724Y0019381D01*
X0125763Y0019195D01*
X0125798Y0019008D01*
X0125827Y0018820D01*
X0125853Y0018631D01*
X0125873Y0018442D01*
X0125889Y0018252D01*
X0125901Y0018062D01*
X0125908Y0017872D01*
X0125910Y0017682D01*
X0125894Y0017666D02*
X0125894Y0009792D01*
X0401485Y0009792D01*
X0401485Y0017666D01*
X0401487Y0017856D01*
X0401494Y0018046D01*
X0401506Y0018236D01*
X0401522Y0018426D01*
X0401542Y0018615D01*
X0401568Y0018804D01*
X0401597Y0018992D01*
X0401632Y0019179D01*
X0401671Y0019365D01*
X0401714Y0019550D01*
X0401762Y0019735D01*
X0401814Y0019918D01*
X0401870Y0020099D01*
X0401931Y0020279D01*
X0401997Y0020458D01*
X0402066Y0020635D01*
X0402140Y0020811D01*
X0402218Y0020984D01*
X0402301Y0021156D01*
X0402387Y0021325D01*
X0402477Y0021493D01*
X0402572Y0021658D01*
X0402670Y0021821D01*
X0402773Y0021981D01*
X0402879Y0022139D01*
X0402989Y0022294D01*
X0403102Y0022447D01*
X0403220Y0022597D01*
X0403341Y0022743D01*
X0403465Y0022887D01*
X0403593Y0023028D01*
X0403724Y0023166D01*
X0403859Y0023301D01*
X0403997Y0023432D01*
X0404138Y0023560D01*
X0404282Y0023684D01*
X0404428Y0023805D01*
X0404578Y0023923D01*
X0404731Y0024036D01*
X0404886Y0024146D01*
X0405044Y0024252D01*
X0405204Y0024355D01*
X0405367Y0024453D01*
X0405532Y0024548D01*
X0405700Y0024638D01*
X0405869Y0024724D01*
X0406041Y0024807D01*
X0406214Y0024885D01*
X0406390Y0024959D01*
X0406567Y0025028D01*
X0406746Y0025094D01*
X0406926Y0025155D01*
X0407107Y0025211D01*
X0407290Y0025263D01*
X0407475Y0025311D01*
X0407660Y0025354D01*
X0407846Y0025393D01*
X0408033Y0025428D01*
X0408221Y0025457D01*
X0408410Y0025483D01*
X0408599Y0025503D01*
X0408789Y0025519D01*
X0408979Y0025531D01*
X0409169Y0025538D01*
X0409359Y0025540D01*
X0452666Y0025540D01*
X0452856Y0025538D01*
X0453046Y0025531D01*
X0453236Y0025519D01*
X0453426Y0025503D01*
X0453615Y0025483D01*
X0453804Y0025457D01*
X0453992Y0025428D01*
X0454179Y0025393D01*
X0454365Y0025354D01*
X0454550Y0025311D01*
X0454735Y0025263D01*
X0454918Y0025211D01*
X0455099Y0025155D01*
X0455279Y0025094D01*
X0455458Y0025028D01*
X0455635Y0024959D01*
X0455811Y0024885D01*
X0455984Y0024807D01*
X0456156Y0024724D01*
X0456325Y0024638D01*
X0456493Y0024548D01*
X0456658Y0024453D01*
X0456821Y0024355D01*
X0456981Y0024252D01*
X0457139Y0024146D01*
X0457294Y0024036D01*
X0457447Y0023923D01*
X0457597Y0023805D01*
X0457743Y0023684D01*
X0457887Y0023560D01*
X0458028Y0023432D01*
X0458166Y0023301D01*
X0458301Y0023166D01*
X0458432Y0023028D01*
X0458560Y0022887D01*
X0458684Y0022743D01*
X0458805Y0022597D01*
X0458923Y0022447D01*
X0459036Y0022294D01*
X0459146Y0022139D01*
X0459252Y0021981D01*
X0459355Y0021821D01*
X0459453Y0021658D01*
X0459548Y0021493D01*
X0459638Y0021325D01*
X0459724Y0021156D01*
X0459807Y0020984D01*
X0459885Y0020811D01*
X0459959Y0020635D01*
X0460028Y0020458D01*
X0460094Y0020279D01*
X0460155Y0020099D01*
X0460211Y0019918D01*
X0460263Y0019735D01*
X0460311Y0019550D01*
X0460354Y0019365D01*
X0460393Y0019179D01*
X0460428Y0018992D01*
X0460457Y0018804D01*
X0460483Y0018615D01*
X0460503Y0018426D01*
X0460519Y0018236D01*
X0460531Y0018046D01*
X0460538Y0017856D01*
X0460540Y0017666D01*
X0460540Y0009792D01*
X0736131Y0009792D01*
X0736131Y0017666D01*
X0736107Y0017702D02*
X0736109Y0017892D01*
X0736116Y0018082D01*
X0736128Y0018272D01*
X0736144Y0018462D01*
X0736164Y0018651D01*
X0736190Y0018840D01*
X0736219Y0019028D01*
X0736254Y0019215D01*
X0736293Y0019401D01*
X0736336Y0019586D01*
X0736384Y0019771D01*
X0736436Y0019954D01*
X0736492Y0020135D01*
X0736553Y0020315D01*
X0736619Y0020494D01*
X0736688Y0020671D01*
X0736762Y0020847D01*
X0736840Y0021020D01*
X0736923Y0021192D01*
X0737009Y0021361D01*
X0737099Y0021529D01*
X0737194Y0021694D01*
X0737292Y0021857D01*
X0737395Y0022017D01*
X0737501Y0022175D01*
X0737611Y0022330D01*
X0737724Y0022483D01*
X0737842Y0022633D01*
X0737963Y0022779D01*
X0738087Y0022923D01*
X0738215Y0023064D01*
X0738346Y0023202D01*
X0738481Y0023337D01*
X0738619Y0023468D01*
X0738760Y0023596D01*
X0738904Y0023720D01*
X0739050Y0023841D01*
X0739200Y0023959D01*
X0739353Y0024072D01*
X0739508Y0024182D01*
X0739666Y0024288D01*
X0739826Y0024391D01*
X0739989Y0024489D01*
X0740154Y0024584D01*
X0740322Y0024674D01*
X0740491Y0024760D01*
X0740663Y0024843D01*
X0740836Y0024921D01*
X0741012Y0024995D01*
X0741189Y0025064D01*
X0741368Y0025130D01*
X0741548Y0025191D01*
X0741729Y0025247D01*
X0741912Y0025299D01*
X0742097Y0025347D01*
X0742282Y0025390D01*
X0742468Y0025429D01*
X0742655Y0025464D01*
X0742843Y0025493D01*
X0743032Y0025519D01*
X0743221Y0025539D01*
X0743411Y0025555D01*
X0743601Y0025567D01*
X0743791Y0025574D01*
X0743981Y0025576D01*
X0744001Y0025576D02*
X0787308Y0025576D01*
X0787351Y0025580D02*
X0787541Y0025578D01*
X0787731Y0025571D01*
X0787921Y0025559D01*
X0788111Y0025543D01*
X0788300Y0025523D01*
X0788489Y0025497D01*
X0788677Y0025468D01*
X0788864Y0025433D01*
X0789050Y0025394D01*
X0789235Y0025351D01*
X0789420Y0025303D01*
X0789603Y0025251D01*
X0789784Y0025195D01*
X0789964Y0025134D01*
X0790143Y0025068D01*
X0790320Y0024999D01*
X0790496Y0024925D01*
X0790669Y0024847D01*
X0790841Y0024764D01*
X0791010Y0024678D01*
X0791178Y0024588D01*
X0791343Y0024493D01*
X0791506Y0024395D01*
X0791666Y0024292D01*
X0791824Y0024186D01*
X0791979Y0024076D01*
X0792132Y0023963D01*
X0792282Y0023845D01*
X0792428Y0023724D01*
X0792572Y0023600D01*
X0792713Y0023472D01*
X0792851Y0023341D01*
X0792986Y0023206D01*
X0793117Y0023068D01*
X0793245Y0022927D01*
X0793369Y0022783D01*
X0793490Y0022637D01*
X0793608Y0022487D01*
X0793721Y0022334D01*
X0793831Y0022179D01*
X0793937Y0022021D01*
X0794040Y0021861D01*
X0794138Y0021698D01*
X0794233Y0021533D01*
X0794323Y0021365D01*
X0794409Y0021196D01*
X0794492Y0021024D01*
X0794570Y0020851D01*
X0794644Y0020675D01*
X0794713Y0020498D01*
X0794779Y0020319D01*
X0794840Y0020139D01*
X0794896Y0019958D01*
X0794948Y0019775D01*
X0794996Y0019590D01*
X0795039Y0019405D01*
X0795078Y0019219D01*
X0795113Y0019032D01*
X0795142Y0018844D01*
X0795168Y0018655D01*
X0795188Y0018466D01*
X0795204Y0018276D01*
X0795216Y0018086D01*
X0795223Y0017896D01*
X0795225Y0017706D01*
X0795186Y0017666D02*
X0795186Y0009792D01*
X0852272Y0009792D01*
X0852272Y0246013D01*
X0237312Y0246013D01*
X0237312Y0115698D01*
X0237310Y0115574D01*
X0237304Y0115451D01*
X0237295Y0115327D01*
X0237281Y0115205D01*
X0237264Y0115082D01*
X0237242Y0114960D01*
X0237217Y0114839D01*
X0237188Y0114719D01*
X0237156Y0114600D01*
X0237119Y0114481D01*
X0237079Y0114364D01*
X0237036Y0114249D01*
X0236988Y0114134D01*
X0236937Y0114022D01*
X0236883Y0113911D01*
X0236825Y0113801D01*
X0236764Y0113694D01*
X0236699Y0113588D01*
X0236631Y0113485D01*
X0236560Y0113384D01*
X0236486Y0113285D01*
X0236409Y0113188D01*
X0236328Y0113094D01*
X0236245Y0113003D01*
X0236159Y0112914D01*
X0236070Y0112828D01*
X0235979Y0112745D01*
X0235885Y0112664D01*
X0235788Y0112587D01*
X0235689Y0112513D01*
X0235588Y0112442D01*
X0235485Y0112374D01*
X0235379Y0112309D01*
X0235272Y0112248D01*
X0235162Y0112190D01*
X0235051Y0112136D01*
X0234939Y0112085D01*
X0234824Y0112037D01*
X0234709Y0111994D01*
X0234592Y0111954D01*
X0234473Y0111917D01*
X0234354Y0111885D01*
X0234234Y0111856D01*
X0234113Y0111831D01*
X0233991Y0111809D01*
X0233868Y0111792D01*
X0233746Y0111778D01*
X0233622Y0111769D01*
X0233499Y0111763D01*
X0233375Y0111761D01*
X0233251Y0111763D01*
X0233128Y0111769D01*
X0233004Y0111778D01*
X0232882Y0111792D01*
X0232759Y0111809D01*
X0232637Y0111831D01*
X0232516Y0111856D01*
X0232396Y0111885D01*
X0232277Y0111917D01*
X0232158Y0111954D01*
X0232041Y0111994D01*
X0231926Y0112037D01*
X0231811Y0112085D01*
X0231699Y0112136D01*
X0231588Y0112190D01*
X0231478Y0112248D01*
X0231371Y0112309D01*
X0231265Y0112374D01*
X0231162Y0112442D01*
X0231061Y0112513D01*
X0230962Y0112587D01*
X0230865Y0112664D01*
X0230771Y0112745D01*
X0230680Y0112828D01*
X0230591Y0112914D01*
X0230505Y0113003D01*
X0230422Y0113094D01*
X0230341Y0113188D01*
X0230264Y0113285D01*
X0230190Y0113384D01*
X0230119Y0113485D01*
X0230051Y0113588D01*
X0229986Y0113694D01*
X0229925Y0113801D01*
X0229867Y0113911D01*
X0229813Y0114022D01*
X0229762Y0114134D01*
X0229714Y0114249D01*
X0229671Y0114364D01*
X0229631Y0114481D01*
X0229594Y0114600D01*
X0229562Y0114719D01*
X0229533Y0114839D01*
X0229508Y0114960D01*
X0229486Y0115082D01*
X0229469Y0115205D01*
X0229455Y0115327D01*
X0229446Y0115451D01*
X0229440Y0115574D01*
X0229438Y0115698D01*
X0067233Y0115698D01*
X0067231Y0115574D01*
X0067225Y0115451D01*
X0067216Y0115327D01*
X0067202Y0115205D01*
X0067185Y0115082D01*
X0067163Y0114960D01*
X0067138Y0114839D01*
X0067109Y0114719D01*
X0067077Y0114600D01*
X0067040Y0114481D01*
X0067000Y0114364D01*
X0066957Y0114249D01*
X0066909Y0114134D01*
X0066858Y0114022D01*
X0066804Y0113911D01*
X0066746Y0113801D01*
X0066685Y0113694D01*
X0066620Y0113588D01*
X0066552Y0113485D01*
X0066481Y0113384D01*
X0066407Y0113285D01*
X0066330Y0113188D01*
X0066249Y0113094D01*
X0066166Y0113003D01*
X0066080Y0112914D01*
X0065991Y0112828D01*
X0065900Y0112745D01*
X0065806Y0112664D01*
X0065709Y0112587D01*
X0065610Y0112513D01*
X0065509Y0112442D01*
X0065406Y0112374D01*
X0065300Y0112309D01*
X0065193Y0112248D01*
X0065083Y0112190D01*
X0064972Y0112136D01*
X0064860Y0112085D01*
X0064745Y0112037D01*
X0064630Y0111994D01*
X0064513Y0111954D01*
X0064394Y0111917D01*
X0064275Y0111885D01*
X0064155Y0111856D01*
X0064034Y0111831D01*
X0063912Y0111809D01*
X0063789Y0111792D01*
X0063667Y0111778D01*
X0063543Y0111769D01*
X0063420Y0111763D01*
X0063296Y0111761D01*
X0063172Y0111763D01*
X0063049Y0111769D01*
X0062925Y0111778D01*
X0062803Y0111792D01*
X0062680Y0111809D01*
X0062558Y0111831D01*
X0062437Y0111856D01*
X0062317Y0111885D01*
X0062198Y0111917D01*
X0062079Y0111954D01*
X0061962Y0111994D01*
X0061847Y0112037D01*
X0061732Y0112085D01*
X0061620Y0112136D01*
X0061509Y0112190D01*
X0061399Y0112248D01*
X0061292Y0112309D01*
X0061186Y0112374D01*
X0061083Y0112442D01*
X0060982Y0112513D01*
X0060883Y0112587D01*
X0060786Y0112664D01*
X0060692Y0112745D01*
X0060601Y0112828D01*
X0060512Y0112914D01*
X0060426Y0113003D01*
X0060343Y0113094D01*
X0060262Y0113188D01*
X0060185Y0113285D01*
X0060111Y0113384D01*
X0060040Y0113485D01*
X0059972Y0113588D01*
X0059907Y0113694D01*
X0059846Y0113801D01*
X0059788Y0113911D01*
X0059734Y0114022D01*
X0059683Y0114134D01*
X0059635Y0114249D01*
X0059592Y0114364D01*
X0059552Y0114481D01*
X0059515Y0114600D01*
X0059483Y0114719D01*
X0059454Y0114839D01*
X0059429Y0114960D01*
X0059407Y0115082D01*
X0059390Y0115205D01*
X0059376Y0115327D01*
X0059367Y0115451D01*
X0059361Y0115574D01*
X0059359Y0115698D01*
X0059359Y0123572D01*
X0009753Y0123572D01*
X0009753Y0009792D01*
D11*
X0051689Y0031663D02*
X0052556Y0030795D01*
X0054291Y0030795D01*
X0055159Y0031663D01*
X0056845Y0032530D02*
X0059448Y0032530D01*
X0060315Y0033397D01*
X0060315Y0035132D01*
X0059448Y0036000D01*
X0056845Y0036000D01*
X0056845Y0030795D01*
X0058580Y0032530D02*
X0060315Y0030795D01*
X0062002Y0030795D02*
X0065471Y0030795D01*
X0067158Y0030795D02*
X0067158Y0034265D01*
X0068893Y0036000D01*
X0070628Y0034265D01*
X0070628Y0030795D01*
X0070628Y0033397D02*
X0067158Y0033397D01*
X0065471Y0036000D02*
X0062002Y0036000D01*
X0062002Y0030795D01*
X0062002Y0033397D02*
X0063737Y0033397D01*
X0055159Y0035132D02*
X0054291Y0036000D01*
X0052556Y0036000D01*
X0051689Y0035132D01*
X0051689Y0031663D01*
X0051689Y0039195D02*
X0051689Y0042665D01*
X0053424Y0044400D01*
X0055159Y0042665D01*
X0055159Y0039195D01*
X0055159Y0041797D02*
X0051689Y0041797D01*
X0056845Y0044400D02*
X0060315Y0044400D01*
X0062002Y0044400D02*
X0062002Y0039195D01*
X0065471Y0039195D01*
X0067158Y0039195D02*
X0067158Y0042665D01*
X0068893Y0044400D01*
X0070628Y0042665D01*
X0070628Y0039195D01*
X0072315Y0039195D02*
X0072315Y0044400D01*
X0074049Y0042665D01*
X0075784Y0044400D01*
X0075784Y0039195D01*
X0075784Y0036000D02*
X0072315Y0036000D01*
X0074049Y0036000D02*
X0074049Y0030795D01*
X0077471Y0030795D02*
X0077471Y0034265D01*
X0079206Y0036000D01*
X0080941Y0034265D01*
X0080941Y0030795D01*
X0082627Y0030795D02*
X0085230Y0030795D01*
X0086097Y0031663D01*
X0086097Y0032530D01*
X0085230Y0033397D01*
X0082627Y0033397D01*
X0080941Y0033397D02*
X0077471Y0033397D01*
X0082627Y0030795D02*
X0082627Y0036000D01*
X0085230Y0036000D01*
X0086097Y0035132D01*
X0086097Y0034265D01*
X0085230Y0033397D01*
X0087784Y0030795D02*
X0091253Y0030795D01*
X0092940Y0030795D02*
X0096410Y0030795D01*
X0094675Y0033397D02*
X0092940Y0033397D01*
X0092940Y0030795D02*
X0092940Y0036000D01*
X0096410Y0036000D01*
X0096410Y0039195D02*
X0096410Y0041797D01*
X0095542Y0042665D01*
X0092940Y0042665D01*
X0092940Y0039195D01*
X0091253Y0040930D02*
X0087784Y0040930D01*
X0087784Y0040063D02*
X0087784Y0041797D01*
X0088651Y0042665D01*
X0090386Y0042665D01*
X0091253Y0041797D01*
X0091253Y0040930D01*
X0090386Y0039195D02*
X0088651Y0039195D01*
X0087784Y0040063D01*
X0086097Y0040930D02*
X0086097Y0044400D01*
X0082627Y0044400D02*
X0082627Y0040930D01*
X0084362Y0039195D01*
X0086097Y0040930D01*
X0070628Y0041797D02*
X0067158Y0041797D01*
X0065471Y0044400D02*
X0062002Y0044400D01*
X0062002Y0041797D02*
X0063737Y0041797D01*
X0058580Y0039195D02*
X0058580Y0044400D01*
X0087784Y0036000D02*
X0087784Y0030795D01*
X0103253Y0030795D02*
X0105855Y0030795D01*
X0106723Y0031663D01*
X0106723Y0035132D01*
X0105855Y0036000D01*
X0103253Y0036000D01*
X0103253Y0030795D01*
X0108409Y0030795D02*
X0111879Y0034265D01*
X0111879Y0035132D01*
X0111012Y0036000D01*
X0109277Y0036000D01*
X0108409Y0035132D01*
X0108409Y0030795D02*
X0111879Y0030795D01*
X0118722Y0031663D02*
X0118722Y0035132D01*
X0119590Y0036000D01*
X0121324Y0036000D01*
X0122192Y0035132D01*
X0122192Y0031663D01*
X0121324Y0030795D01*
X0119590Y0030795D01*
X0118722Y0031663D01*
X0123879Y0030795D02*
X0127348Y0030795D01*
X0129035Y0030795D02*
X0132505Y0030795D01*
X0134191Y0030795D02*
X0136794Y0030795D01*
X0137661Y0031663D01*
X0137661Y0035132D01*
X0136794Y0036000D01*
X0134191Y0036000D01*
X0134191Y0030795D01*
X0130770Y0033397D02*
X0129035Y0033397D01*
X0129035Y0030795D02*
X0129035Y0036000D01*
X0132505Y0036000D01*
X0123879Y0036000D02*
X0123879Y0030795D01*
X0144504Y0030795D02*
X0144504Y0036000D01*
X0147106Y0036000D01*
X0147974Y0035132D01*
X0147974Y0034265D01*
X0147106Y0033397D01*
X0144504Y0033397D01*
X0144504Y0030795D02*
X0147106Y0030795D01*
X0147974Y0031663D01*
X0147974Y0032530D01*
X0147106Y0033397D01*
X0149661Y0030795D02*
X0153130Y0036000D01*
X0154817Y0036000D02*
X0157419Y0036000D01*
X0158287Y0035132D01*
X0158287Y0031663D01*
X0157419Y0030795D01*
X0154817Y0030795D01*
X0154817Y0036000D01*
X0165130Y0036000D02*
X0165130Y0032530D01*
X0166865Y0030795D01*
X0168599Y0032530D01*
X0168599Y0036000D01*
X0171154Y0034265D02*
X0172888Y0034265D01*
X0173756Y0033397D01*
X0173756Y0032530D01*
X0170286Y0032530D01*
X0170286Y0031663D02*
X0170286Y0033397D01*
X0171154Y0034265D01*
X0170286Y0031663D02*
X0171154Y0030795D01*
X0172888Y0030795D01*
X0175443Y0030795D02*
X0175443Y0034265D01*
X0177177Y0034265D02*
X0178045Y0034265D01*
X0177177Y0034265D02*
X0175443Y0032530D01*
X0179740Y0031663D02*
X0180607Y0031663D01*
X0180607Y0030795D01*
X0179740Y0030795D01*
X0179740Y0031663D01*
X0187474Y0030795D02*
X0190944Y0030795D01*
X0192631Y0030795D02*
X0193498Y0030795D01*
X0193498Y0031663D01*
X0192631Y0031663D01*
X0192631Y0030795D01*
X0195209Y0030795D02*
X0198678Y0030795D01*
X0196944Y0030795D02*
X0196944Y0036000D01*
X0195209Y0034265D01*
X0189209Y0036000D02*
X0189209Y0030795D01*
X0187474Y0034265D02*
X0189209Y0036000D01*
X0119614Y0040063D02*
X0118746Y0040930D01*
X0117011Y0040930D01*
X0116144Y0041797D01*
X0117011Y0042665D01*
X0119614Y0042665D01*
X0119614Y0040063D02*
X0118746Y0039195D01*
X0116144Y0039195D01*
X0114457Y0040930D02*
X0110988Y0040930D01*
X0110988Y0040063D02*
X0110988Y0041797D01*
X0111855Y0042665D01*
X0113590Y0042665D01*
X0114457Y0041797D01*
X0114457Y0040930D01*
X0113590Y0039195D02*
X0111855Y0039195D01*
X0110988Y0040063D01*
X0109293Y0042665D02*
X0108425Y0042665D01*
X0106691Y0040930D01*
X0106691Y0039195D02*
X0106691Y0042665D01*
X0105004Y0042665D02*
X0105004Y0039195D01*
X0102402Y0039195D01*
X0101534Y0040063D01*
X0101534Y0042665D01*
X0099831Y0042665D02*
X0098097Y0042665D01*
X0098964Y0043532D02*
X0098964Y0040063D01*
X0099831Y0039195D01*
X0622854Y0035684D02*
X0622854Y0035083D01*
X0623455Y0034483D01*
X0624656Y0034483D01*
X0625256Y0033882D01*
X0625256Y0033282D01*
X0624656Y0032681D01*
X0623455Y0032681D01*
X0622854Y0033282D01*
X0622854Y0035684D02*
X0623455Y0036284D01*
X0624656Y0036284D01*
X0625256Y0035684D01*
X0626537Y0035083D02*
X0627738Y0036284D01*
X0627738Y0032681D01*
X0626537Y0032681D02*
X0628939Y0032681D01*
X0762746Y0059315D02*
X0762746Y0063919D01*
X0765048Y0063919D01*
X0765816Y0063152D01*
X0765816Y0061617D01*
X0765048Y0060850D01*
X0762746Y0060850D01*
X0764281Y0060850D02*
X0765816Y0059315D01*
X0767350Y0060082D02*
X0768118Y0059315D01*
X0769652Y0059315D01*
X0770420Y0060082D01*
X0770420Y0061617D01*
X0769652Y0062384D01*
X0768885Y0062384D01*
X0767350Y0061617D01*
X0767350Y0063919D01*
X0770420Y0063919D01*
X0769129Y0116240D02*
X0769129Y0120844D01*
X0766827Y0118542D01*
X0769896Y0118542D01*
X0765292Y0118542D02*
X0765292Y0120077D01*
X0764525Y0120844D01*
X0762223Y0120844D01*
X0762223Y0116240D01*
X0762223Y0117775D02*
X0764525Y0117775D01*
X0765292Y0118542D01*
X0763757Y0117775D02*
X0765292Y0116240D01*
X0631880Y0209795D02*
X0628811Y0209795D01*
X0627276Y0209795D02*
X0625742Y0211330D01*
X0626509Y0211330D02*
X0624207Y0211330D01*
X0624207Y0209795D02*
X0624207Y0214399D01*
X0626509Y0214399D01*
X0627276Y0213632D01*
X0627276Y0212097D01*
X0626509Y0211330D01*
X0628811Y0212865D02*
X0630346Y0214399D01*
X0630346Y0209795D01*
D12*
X0631655Y0225908D02*
X0630904Y0226659D01*
X0630904Y0228160D01*
X0631655Y0228911D01*
X0634658Y0228911D01*
X0635408Y0228160D01*
X0635408Y0226659D01*
X0634658Y0225908D01*
X0631655Y0225908D01*
X0633907Y0227410D02*
X0635408Y0228911D01*
X0635408Y0230512D02*
X0635408Y0233515D01*
X0635408Y0232013D02*
X0630904Y0232013D01*
X0632406Y0230512D01*
X0623139Y0246013D02*
X0237312Y0246013D01*
X0237312Y0009792D01*
X0623139Y0009792D01*
X0623139Y0246013D01*
X0615265Y0190894D02*
X0615265Y0064910D01*
X0245186Y0064910D01*
X0245186Y0190894D01*
X0615265Y0190894D01*
X0682587Y0152312D02*
X0734556Y0152312D01*
X0734556Y0103493D01*
X0682587Y0103493D01*
X0682587Y0152312D01*
X0714477Y0138139D02*
X0714477Y0117666D01*
X0696761Y0127902D02*
X0696765Y0128192D01*
X0696775Y0128482D01*
X0696793Y0128771D01*
X0696818Y0129060D01*
X0696850Y0129348D01*
X0696889Y0129635D01*
X0696935Y0129921D01*
X0696988Y0130206D01*
X0697048Y0130490D01*
X0697115Y0130772D01*
X0697189Y0131052D01*
X0697270Y0131331D01*
X0697357Y0131607D01*
X0697451Y0131881D01*
X0697552Y0132153D01*
X0697660Y0132422D01*
X0697774Y0132688D01*
X0697895Y0132952D01*
X0698022Y0133212D01*
X0698156Y0133470D01*
X0698295Y0133724D01*
X0698441Y0133974D01*
X0698593Y0134221D01*
X0698752Y0134464D01*
X0698916Y0134703D01*
X0699085Y0134938D01*
X0699261Y0135169D01*
X0699442Y0135395D01*
X0699629Y0135617D01*
X0699821Y0135834D01*
X0700018Y0136046D01*
X0700220Y0136254D01*
X0700428Y0136456D01*
X0700640Y0136653D01*
X0700857Y0136845D01*
X0701079Y0137032D01*
X0701305Y0137213D01*
X0701536Y0137389D01*
X0701771Y0137558D01*
X0702010Y0137722D01*
X0702253Y0137881D01*
X0702500Y0138033D01*
X0702750Y0138179D01*
X0703004Y0138318D01*
X0703262Y0138452D01*
X0703522Y0138579D01*
X0703786Y0138700D01*
X0704052Y0138814D01*
X0704321Y0138922D01*
X0704593Y0139023D01*
X0704867Y0139117D01*
X0705143Y0139204D01*
X0705422Y0139285D01*
X0705702Y0139359D01*
X0705984Y0139426D01*
X0706268Y0139486D01*
X0706553Y0139539D01*
X0706839Y0139585D01*
X0707126Y0139624D01*
X0707414Y0139656D01*
X0707703Y0139681D01*
X0707992Y0139699D01*
X0708282Y0139709D01*
X0708572Y0139713D01*
X0708862Y0139709D01*
X0709152Y0139699D01*
X0709441Y0139681D01*
X0709730Y0139656D01*
X0710018Y0139624D01*
X0710305Y0139585D01*
X0710591Y0139539D01*
X0710876Y0139486D01*
X0711160Y0139426D01*
X0711442Y0139359D01*
X0711722Y0139285D01*
X0712001Y0139204D01*
X0712277Y0139117D01*
X0712551Y0139023D01*
X0712823Y0138922D01*
X0713092Y0138814D01*
X0713358Y0138700D01*
X0713622Y0138579D01*
X0713882Y0138452D01*
X0714140Y0138318D01*
X0714394Y0138179D01*
X0714644Y0138033D01*
X0714891Y0137881D01*
X0715134Y0137722D01*
X0715373Y0137558D01*
X0715608Y0137389D01*
X0715839Y0137213D01*
X0716065Y0137032D01*
X0716287Y0136845D01*
X0716504Y0136653D01*
X0716716Y0136456D01*
X0716924Y0136254D01*
X0717126Y0136046D01*
X0717323Y0135834D01*
X0717515Y0135617D01*
X0717702Y0135395D01*
X0717883Y0135169D01*
X0718059Y0134938D01*
X0718228Y0134703D01*
X0718392Y0134464D01*
X0718551Y0134221D01*
X0718703Y0133974D01*
X0718849Y0133724D01*
X0718988Y0133470D01*
X0719122Y0133212D01*
X0719249Y0132952D01*
X0719370Y0132688D01*
X0719484Y0132422D01*
X0719592Y0132153D01*
X0719693Y0131881D01*
X0719787Y0131607D01*
X0719874Y0131331D01*
X0719955Y0131052D01*
X0720029Y0130772D01*
X0720096Y0130490D01*
X0720156Y0130206D01*
X0720209Y0129921D01*
X0720255Y0129635D01*
X0720294Y0129348D01*
X0720326Y0129060D01*
X0720351Y0128771D01*
X0720369Y0128482D01*
X0720379Y0128192D01*
X0720383Y0127902D01*
X0720379Y0127612D01*
X0720369Y0127322D01*
X0720351Y0127033D01*
X0720326Y0126744D01*
X0720294Y0126456D01*
X0720255Y0126169D01*
X0720209Y0125883D01*
X0720156Y0125598D01*
X0720096Y0125314D01*
X0720029Y0125032D01*
X0719955Y0124752D01*
X0719874Y0124473D01*
X0719787Y0124197D01*
X0719693Y0123923D01*
X0719592Y0123651D01*
X0719484Y0123382D01*
X0719370Y0123116D01*
X0719249Y0122852D01*
X0719122Y0122592D01*
X0718988Y0122334D01*
X0718849Y0122080D01*
X0718703Y0121830D01*
X0718551Y0121583D01*
X0718392Y0121340D01*
X0718228Y0121101D01*
X0718059Y0120866D01*
X0717883Y0120635D01*
X0717702Y0120409D01*
X0717515Y0120187D01*
X0717323Y0119970D01*
X0717126Y0119758D01*
X0716924Y0119550D01*
X0716716Y0119348D01*
X0716504Y0119151D01*
X0716287Y0118959D01*
X0716065Y0118772D01*
X0715839Y0118591D01*
X0715608Y0118415D01*
X0715373Y0118246D01*
X0715134Y0118082D01*
X0714891Y0117923D01*
X0714644Y0117771D01*
X0714394Y0117625D01*
X0714140Y0117486D01*
X0713882Y0117352D01*
X0713622Y0117225D01*
X0713358Y0117104D01*
X0713092Y0116990D01*
X0712823Y0116882D01*
X0712551Y0116781D01*
X0712277Y0116687D01*
X0712001Y0116600D01*
X0711722Y0116519D01*
X0711442Y0116445D01*
X0711160Y0116378D01*
X0710876Y0116318D01*
X0710591Y0116265D01*
X0710305Y0116219D01*
X0710018Y0116180D01*
X0709730Y0116148D01*
X0709441Y0116123D01*
X0709152Y0116105D01*
X0708862Y0116095D01*
X0708572Y0116091D01*
X0708282Y0116095D01*
X0707992Y0116105D01*
X0707703Y0116123D01*
X0707414Y0116148D01*
X0707126Y0116180D01*
X0706839Y0116219D01*
X0706553Y0116265D01*
X0706268Y0116318D01*
X0705984Y0116378D01*
X0705702Y0116445D01*
X0705422Y0116519D01*
X0705143Y0116600D01*
X0704867Y0116687D01*
X0704593Y0116781D01*
X0704321Y0116882D01*
X0704052Y0116990D01*
X0703786Y0117104D01*
X0703522Y0117225D01*
X0703262Y0117352D01*
X0703004Y0117486D01*
X0702750Y0117625D01*
X0702500Y0117771D01*
X0702253Y0117923D01*
X0702010Y0118082D01*
X0701771Y0118246D01*
X0701536Y0118415D01*
X0701305Y0118591D01*
X0701079Y0118772D01*
X0700857Y0118959D01*
X0700640Y0119151D01*
X0700428Y0119348D01*
X0700220Y0119550D01*
X0700018Y0119758D01*
X0699821Y0119970D01*
X0699629Y0120187D01*
X0699442Y0120409D01*
X0699261Y0120635D01*
X0699085Y0120866D01*
X0698916Y0121101D01*
X0698752Y0121340D01*
X0698593Y0121583D01*
X0698441Y0121830D01*
X0698295Y0122080D01*
X0698156Y0122334D01*
X0698022Y0122592D01*
X0697895Y0122852D01*
X0697774Y0123116D01*
X0697660Y0123382D01*
X0697552Y0123651D01*
X0697451Y0123923D01*
X0697357Y0124197D01*
X0697270Y0124473D01*
X0697189Y0124752D01*
X0697115Y0125032D01*
X0697048Y0125314D01*
X0696988Y0125598D01*
X0696935Y0125883D01*
X0696889Y0126169D01*
X0696850Y0126456D01*
X0696818Y0126744D01*
X0696793Y0127033D01*
X0696775Y0127322D01*
X0696765Y0127612D01*
X0696761Y0127902D01*
X0772164Y0104941D02*
X0772164Y0103440D01*
X0772915Y0102689D01*
X0772915Y0101088D02*
X0775917Y0101088D01*
X0776668Y0100337D01*
X0776668Y0098836D01*
X0775917Y0098085D01*
X0772915Y0098085D01*
X0772164Y0098836D01*
X0772164Y0100337D01*
X0772915Y0101088D01*
X0775167Y0099587D02*
X0776668Y0101088D01*
X0776668Y0102689D02*
X0773666Y0105692D01*
X0772915Y0105692D01*
X0772164Y0104941D01*
X0776668Y0105692D02*
X0776668Y0102689D01*
X0775961Y0059145D02*
X0775210Y0059145D01*
X0774459Y0058394D01*
X0774459Y0057643D01*
X0774459Y0058394D02*
X0773709Y0059145D01*
X0772958Y0059145D01*
X0772208Y0058394D01*
X0772208Y0056893D01*
X0772958Y0056142D01*
X0772958Y0054541D02*
X0775961Y0054541D01*
X0776711Y0053790D01*
X0776711Y0052289D01*
X0775961Y0051538D01*
X0772958Y0051538D01*
X0772208Y0052289D01*
X0772208Y0053790D01*
X0772958Y0054541D01*
X0775210Y0053039D02*
X0776711Y0054541D01*
X0775961Y0056142D02*
X0776711Y0056893D01*
X0776711Y0058394D01*
X0775961Y0059145D01*
X0687995Y0016140D02*
X0687995Y0011637D01*
X0689496Y0011637D02*
X0686493Y0011637D01*
X0684892Y0012387D02*
X0684892Y0013889D01*
X0683391Y0013889D01*
X0684892Y0015390D02*
X0684141Y0016140D01*
X0682640Y0016140D01*
X0681889Y0015390D01*
X0681889Y0012387D01*
X0682640Y0011637D01*
X0684141Y0011637D01*
X0684892Y0012387D01*
X0686493Y0014639D02*
X0687995Y0016140D01*
X0680288Y0015390D02*
X0679537Y0016140D01*
X0678036Y0016140D01*
X0677285Y0015390D01*
X0677285Y0014639D01*
X0678036Y0013889D01*
X0679537Y0013889D01*
X0680288Y0013138D01*
X0680288Y0012387D01*
X0679537Y0011637D01*
X0678036Y0011637D01*
X0677285Y0012387D01*
D13*
X0703814Y0088619D02*
X0703197Y0089236D01*
X0703814Y0088619D02*
X0705049Y0088619D01*
X0705666Y0089236D01*
X0705666Y0089854D01*
X0705049Y0090471D01*
X0703814Y0090471D01*
X0703197Y0091088D01*
X0703197Y0091705D01*
X0703814Y0092322D01*
X0705049Y0092322D01*
X0705666Y0091705D01*
X0706880Y0092322D02*
X0706880Y0088619D01*
X0708114Y0089854D01*
X0709349Y0088619D01*
X0709349Y0092322D01*
X0710563Y0091088D02*
X0711798Y0092322D01*
X0711798Y0088619D01*
X0713032Y0088619D02*
X0710563Y0088619D01*
X0273749Y0217068D02*
X0271281Y0217068D01*
X0273749Y0219537D01*
X0273749Y0220154D01*
X0273132Y0220771D01*
X0271898Y0220771D01*
X0271281Y0220154D01*
X0270066Y0220154D02*
X0269449Y0220771D01*
X0268215Y0220771D01*
X0267598Y0220154D01*
X0267598Y0217685D01*
X0268215Y0217068D01*
X0269449Y0217068D01*
X0270066Y0217685D01*
D14*
X0645776Y0046481D02*
X0653706Y0046481D01*
X0661706Y0042981D02*
X0661706Y0025981D01*
X0653706Y0022481D02*
X0645658Y0022481D01*
X0637706Y0025981D02*
X0637706Y0042981D01*
X0642706Y0034481D02*
X0642708Y0034653D01*
X0642714Y0034824D01*
X0642725Y0034996D01*
X0642740Y0035167D01*
X0642759Y0035338D01*
X0642782Y0035508D01*
X0642809Y0035678D01*
X0642841Y0035847D01*
X0642876Y0036015D01*
X0642916Y0036182D01*
X0642960Y0036348D01*
X0643007Y0036513D01*
X0643059Y0036677D01*
X0643115Y0036839D01*
X0643175Y0037000D01*
X0643239Y0037160D01*
X0643307Y0037318D01*
X0643378Y0037474D01*
X0643453Y0037628D01*
X0643533Y0037781D01*
X0643615Y0037931D01*
X0643702Y0038080D01*
X0643792Y0038226D01*
X0643886Y0038370D01*
X0643983Y0038512D01*
X0644084Y0038651D01*
X0644188Y0038788D01*
X0644295Y0038922D01*
X0644406Y0039053D01*
X0644519Y0039182D01*
X0644636Y0039308D01*
X0644756Y0039431D01*
X0644879Y0039551D01*
X0645005Y0039668D01*
X0645134Y0039781D01*
X0645265Y0039892D01*
X0645399Y0039999D01*
X0645536Y0040103D01*
X0645675Y0040204D01*
X0645817Y0040301D01*
X0645961Y0040395D01*
X0646107Y0040485D01*
X0646256Y0040572D01*
X0646406Y0040654D01*
X0646559Y0040734D01*
X0646713Y0040809D01*
X0646869Y0040880D01*
X0647027Y0040948D01*
X0647187Y0041012D01*
X0647348Y0041072D01*
X0647510Y0041128D01*
X0647674Y0041180D01*
X0647839Y0041227D01*
X0648005Y0041271D01*
X0648172Y0041311D01*
X0648340Y0041346D01*
X0648509Y0041378D01*
X0648679Y0041405D01*
X0648849Y0041428D01*
X0649020Y0041447D01*
X0649191Y0041462D01*
X0649363Y0041473D01*
X0649534Y0041479D01*
X0649706Y0041481D01*
X0649878Y0041479D01*
X0650049Y0041473D01*
X0650221Y0041462D01*
X0650392Y0041447D01*
X0650563Y0041428D01*
X0650733Y0041405D01*
X0650903Y0041378D01*
X0651072Y0041346D01*
X0651240Y0041311D01*
X0651407Y0041271D01*
X0651573Y0041227D01*
X0651738Y0041180D01*
X0651902Y0041128D01*
X0652064Y0041072D01*
X0652225Y0041012D01*
X0652385Y0040948D01*
X0652543Y0040880D01*
X0652699Y0040809D01*
X0652853Y0040734D01*
X0653006Y0040654D01*
X0653156Y0040572D01*
X0653305Y0040485D01*
X0653451Y0040395D01*
X0653595Y0040301D01*
X0653737Y0040204D01*
X0653876Y0040103D01*
X0654013Y0039999D01*
X0654147Y0039892D01*
X0654278Y0039781D01*
X0654407Y0039668D01*
X0654533Y0039551D01*
X0654656Y0039431D01*
X0654776Y0039308D01*
X0654893Y0039182D01*
X0655006Y0039053D01*
X0655117Y0038922D01*
X0655224Y0038788D01*
X0655328Y0038651D01*
X0655429Y0038512D01*
X0655526Y0038370D01*
X0655620Y0038226D01*
X0655710Y0038080D01*
X0655797Y0037931D01*
X0655879Y0037781D01*
X0655959Y0037628D01*
X0656034Y0037474D01*
X0656105Y0037318D01*
X0656173Y0037160D01*
X0656237Y0037000D01*
X0656297Y0036839D01*
X0656353Y0036677D01*
X0656405Y0036513D01*
X0656452Y0036348D01*
X0656496Y0036182D01*
X0656536Y0036015D01*
X0656571Y0035847D01*
X0656603Y0035678D01*
X0656630Y0035508D01*
X0656653Y0035338D01*
X0656672Y0035167D01*
X0656687Y0034996D01*
X0656698Y0034824D01*
X0656704Y0034653D01*
X0656706Y0034481D01*
X0656704Y0034309D01*
X0656698Y0034138D01*
X0656687Y0033966D01*
X0656672Y0033795D01*
X0656653Y0033624D01*
X0656630Y0033454D01*
X0656603Y0033284D01*
X0656571Y0033115D01*
X0656536Y0032947D01*
X0656496Y0032780D01*
X0656452Y0032614D01*
X0656405Y0032449D01*
X0656353Y0032285D01*
X0656297Y0032123D01*
X0656237Y0031962D01*
X0656173Y0031802D01*
X0656105Y0031644D01*
X0656034Y0031488D01*
X0655959Y0031334D01*
X0655879Y0031181D01*
X0655797Y0031031D01*
X0655710Y0030882D01*
X0655620Y0030736D01*
X0655526Y0030592D01*
X0655429Y0030450D01*
X0655328Y0030311D01*
X0655224Y0030174D01*
X0655117Y0030040D01*
X0655006Y0029909D01*
X0654893Y0029780D01*
X0654776Y0029654D01*
X0654656Y0029531D01*
X0654533Y0029411D01*
X0654407Y0029294D01*
X0654278Y0029181D01*
X0654147Y0029070D01*
X0654013Y0028963D01*
X0653876Y0028859D01*
X0653737Y0028758D01*
X0653595Y0028661D01*
X0653451Y0028567D01*
X0653305Y0028477D01*
X0653156Y0028390D01*
X0653006Y0028308D01*
X0652853Y0028228D01*
X0652699Y0028153D01*
X0652543Y0028082D01*
X0652385Y0028014D01*
X0652225Y0027950D01*
X0652064Y0027890D01*
X0651902Y0027834D01*
X0651738Y0027782D01*
X0651573Y0027735D01*
X0651407Y0027691D01*
X0651240Y0027651D01*
X0651072Y0027616D01*
X0650903Y0027584D01*
X0650733Y0027557D01*
X0650563Y0027534D01*
X0650392Y0027515D01*
X0650221Y0027500D01*
X0650049Y0027489D01*
X0649878Y0027483D01*
X0649706Y0027481D01*
X0649534Y0027483D01*
X0649363Y0027489D01*
X0649191Y0027500D01*
X0649020Y0027515D01*
X0648849Y0027534D01*
X0648679Y0027557D01*
X0648509Y0027584D01*
X0648340Y0027616D01*
X0648172Y0027651D01*
X0648005Y0027691D01*
X0647839Y0027735D01*
X0647674Y0027782D01*
X0647510Y0027834D01*
X0647348Y0027890D01*
X0647187Y0027950D01*
X0647027Y0028014D01*
X0646869Y0028082D01*
X0646713Y0028153D01*
X0646559Y0028228D01*
X0646406Y0028308D01*
X0646256Y0028390D01*
X0646107Y0028477D01*
X0645961Y0028567D01*
X0645817Y0028661D01*
X0645675Y0028758D01*
X0645536Y0028859D01*
X0645399Y0028963D01*
X0645265Y0029070D01*
X0645134Y0029181D01*
X0645005Y0029294D01*
X0644879Y0029411D01*
X0644756Y0029531D01*
X0644636Y0029654D01*
X0644519Y0029780D01*
X0644406Y0029909D01*
X0644295Y0030040D01*
X0644188Y0030174D01*
X0644084Y0030311D01*
X0643983Y0030450D01*
X0643886Y0030592D01*
X0643792Y0030736D01*
X0643702Y0030882D01*
X0643615Y0031031D01*
X0643533Y0031181D01*
X0643453Y0031334D01*
X0643378Y0031488D01*
X0643307Y0031644D01*
X0643239Y0031802D01*
X0643175Y0031962D01*
X0643115Y0032123D01*
X0643059Y0032285D01*
X0643007Y0032449D01*
X0642960Y0032614D01*
X0642916Y0032780D01*
X0642876Y0032947D01*
X0642841Y0033115D01*
X0642809Y0033284D01*
X0642782Y0033454D01*
X0642759Y0033624D01*
X0642740Y0033795D01*
X0642725Y0033966D01*
X0642714Y0034138D01*
X0642708Y0034309D01*
X0642706Y0034481D01*
D15*
X0687347Y0028887D02*
X0690347Y0028887D01*
X0685847Y0028887D02*
X0685849Y0028996D01*
X0685855Y0029105D01*
X0685865Y0029213D01*
X0685879Y0029321D01*
X0685896Y0029429D01*
X0685918Y0029536D01*
X0685943Y0029642D01*
X0685973Y0029746D01*
X0686006Y0029850D01*
X0686043Y0029953D01*
X0686083Y0030054D01*
X0686127Y0030153D01*
X0686175Y0030251D01*
X0686227Y0030348D01*
X0686281Y0030442D01*
X0686339Y0030534D01*
X0686401Y0030624D01*
X0686466Y0030711D01*
X0686533Y0030797D01*
X0686604Y0030880D01*
X0686678Y0030960D01*
X0686755Y0031037D01*
X0686834Y0031112D01*
X0686916Y0031183D01*
X0687001Y0031252D01*
X0687088Y0031317D01*
X0687177Y0031380D01*
X0687269Y0031438D01*
X0687363Y0031494D01*
X0687458Y0031546D01*
X0687556Y0031595D01*
X0687655Y0031640D01*
X0687756Y0031682D01*
X0687858Y0031719D01*
X0687961Y0031753D01*
X0688066Y0031784D01*
X0688172Y0031810D01*
X0688278Y0031833D01*
X0688386Y0031851D01*
X0688494Y0031866D01*
X0688602Y0031877D01*
X0688711Y0031884D01*
X0688820Y0031887D01*
X0688929Y0031886D01*
X0689038Y0031881D01*
X0689146Y0031872D01*
X0689254Y0031859D01*
X0689362Y0031842D01*
X0689469Y0031822D01*
X0689575Y0031797D01*
X0689680Y0031769D01*
X0689784Y0031737D01*
X0689887Y0031701D01*
X0689989Y0031661D01*
X0690089Y0031618D01*
X0690187Y0031571D01*
X0690284Y0031521D01*
X0690378Y0031467D01*
X0690471Y0031409D01*
X0690562Y0031349D01*
X0690650Y0031285D01*
X0690736Y0031218D01*
X0690819Y0031148D01*
X0690900Y0031075D01*
X0690978Y0030999D01*
X0691053Y0030920D01*
X0691126Y0030838D01*
X0691195Y0030754D01*
X0691261Y0030668D01*
X0691324Y0030579D01*
X0691384Y0030488D01*
X0691441Y0030395D01*
X0691494Y0030300D01*
X0691543Y0030203D01*
X0691589Y0030104D01*
X0691631Y0030004D01*
X0691670Y0029902D01*
X0691705Y0029798D01*
X0691736Y0029694D01*
X0691764Y0029589D01*
X0691787Y0029482D01*
X0691807Y0029375D01*
X0691823Y0029267D01*
X0691835Y0029159D01*
X0691843Y0029050D01*
X0691847Y0028941D01*
X0691847Y0028833D01*
X0691843Y0028724D01*
X0691835Y0028615D01*
X0691823Y0028507D01*
X0691807Y0028399D01*
X0691787Y0028292D01*
X0691764Y0028185D01*
X0691736Y0028080D01*
X0691705Y0027976D01*
X0691670Y0027872D01*
X0691631Y0027770D01*
X0691589Y0027670D01*
X0691543Y0027571D01*
X0691494Y0027474D01*
X0691441Y0027379D01*
X0691384Y0027286D01*
X0691324Y0027195D01*
X0691261Y0027106D01*
X0691195Y0027020D01*
X0691126Y0026936D01*
X0691053Y0026854D01*
X0690978Y0026775D01*
X0690900Y0026699D01*
X0690819Y0026626D01*
X0690736Y0026556D01*
X0690650Y0026489D01*
X0690562Y0026425D01*
X0690471Y0026365D01*
X0690378Y0026307D01*
X0690284Y0026253D01*
X0690187Y0026203D01*
X0690089Y0026156D01*
X0689989Y0026113D01*
X0689887Y0026073D01*
X0689784Y0026037D01*
X0689680Y0026005D01*
X0689575Y0025977D01*
X0689469Y0025952D01*
X0689362Y0025932D01*
X0689254Y0025915D01*
X0689146Y0025902D01*
X0689038Y0025893D01*
X0688929Y0025888D01*
X0688820Y0025887D01*
X0688711Y0025890D01*
X0688602Y0025897D01*
X0688494Y0025908D01*
X0688386Y0025923D01*
X0688278Y0025941D01*
X0688172Y0025964D01*
X0688066Y0025990D01*
X0687961Y0026021D01*
X0687858Y0026055D01*
X0687756Y0026092D01*
X0687655Y0026134D01*
X0687556Y0026179D01*
X0687458Y0026228D01*
X0687363Y0026280D01*
X0687269Y0026336D01*
X0687177Y0026394D01*
X0687088Y0026457D01*
X0687001Y0026522D01*
X0686916Y0026591D01*
X0686834Y0026662D01*
X0686755Y0026737D01*
X0686678Y0026814D01*
X0686604Y0026894D01*
X0686533Y0026977D01*
X0686466Y0027063D01*
X0686401Y0027150D01*
X0686339Y0027240D01*
X0686281Y0027332D01*
X0686227Y0027426D01*
X0686175Y0027523D01*
X0686127Y0027621D01*
X0686083Y0027720D01*
X0686043Y0027821D01*
X0686006Y0027924D01*
X0685973Y0028028D01*
X0685943Y0028132D01*
X0685918Y0028238D01*
X0685896Y0028345D01*
X0685879Y0028453D01*
X0685865Y0028561D01*
X0685855Y0028669D01*
X0685849Y0028778D01*
X0685847Y0028887D01*
X0688847Y0030387D02*
X0688847Y0027387D01*
X0698847Y0038887D02*
X0698849Y0039028D01*
X0698855Y0039169D01*
X0698865Y0039309D01*
X0698879Y0039449D01*
X0698897Y0039589D01*
X0698918Y0039728D01*
X0698944Y0039867D01*
X0698973Y0040005D01*
X0699007Y0040141D01*
X0699044Y0040277D01*
X0699085Y0040412D01*
X0699130Y0040546D01*
X0699179Y0040678D01*
X0699231Y0040809D01*
X0699287Y0040938D01*
X0699347Y0041065D01*
X0699410Y0041191D01*
X0699476Y0041315D01*
X0699547Y0041438D01*
X0699620Y0041558D01*
X0699697Y0041676D01*
X0699777Y0041792D01*
X0699861Y0041905D01*
X0699947Y0042016D01*
X0700037Y0042125D01*
X0700130Y0042231D01*
X0700225Y0042334D01*
X0700324Y0042435D01*
X0700425Y0042533D01*
X0700529Y0042628D01*
X0700636Y0042720D01*
X0700745Y0042809D01*
X0700857Y0042894D01*
X0700971Y0042977D01*
X0701087Y0043057D01*
X0701206Y0043133D01*
X0701327Y0043205D01*
X0701449Y0043275D01*
X0701574Y0043340D01*
X0701700Y0043403D01*
X0701828Y0043461D01*
X0701958Y0043516D01*
X0702089Y0043568D01*
X0702222Y0043615D01*
X0702356Y0043659D01*
X0702491Y0043700D01*
X0702627Y0043736D01*
X0702764Y0043768D01*
X0702902Y0043797D01*
X0703040Y0043822D01*
X0703180Y0043842D01*
X0703320Y0043859D01*
X0703460Y0043872D01*
X0703601Y0043881D01*
X0703741Y0043886D01*
X0703882Y0043887D01*
X0704023Y0043884D01*
X0704164Y0043877D01*
X0704304Y0043866D01*
X0704444Y0043851D01*
X0704584Y0043832D01*
X0704723Y0043810D01*
X0704861Y0043783D01*
X0704999Y0043753D01*
X0705135Y0043718D01*
X0705271Y0043680D01*
X0705405Y0043638D01*
X0705539Y0043592D01*
X0705671Y0043543D01*
X0705801Y0043489D01*
X0705930Y0043432D01*
X0706057Y0043372D01*
X0706183Y0043308D01*
X0706306Y0043240D01*
X0706428Y0043169D01*
X0706548Y0043095D01*
X0706665Y0043017D01*
X0706780Y0042936D01*
X0706893Y0042852D01*
X0707004Y0042765D01*
X0707112Y0042674D01*
X0707217Y0042581D01*
X0707320Y0042484D01*
X0707420Y0042385D01*
X0707517Y0042283D01*
X0707611Y0042178D01*
X0707702Y0042071D01*
X0707790Y0041961D01*
X0707875Y0041849D01*
X0707957Y0041734D01*
X0708036Y0041617D01*
X0708111Y0041498D01*
X0708183Y0041377D01*
X0708251Y0041254D01*
X0708316Y0041129D01*
X0708378Y0041002D01*
X0708435Y0040873D01*
X0708490Y0040743D01*
X0708540Y0040612D01*
X0708587Y0040479D01*
X0708630Y0040345D01*
X0708669Y0040209D01*
X0708704Y0040073D01*
X0708736Y0039936D01*
X0708763Y0039798D01*
X0708787Y0039659D01*
X0708807Y0039519D01*
X0708823Y0039379D01*
X0708835Y0039239D01*
X0708843Y0039098D01*
X0708847Y0038957D01*
X0708847Y0038817D01*
X0708843Y0038676D01*
X0708835Y0038535D01*
X0708823Y0038395D01*
X0708807Y0038255D01*
X0708787Y0038115D01*
X0708763Y0037976D01*
X0708736Y0037838D01*
X0708704Y0037701D01*
X0708669Y0037565D01*
X0708630Y0037429D01*
X0708587Y0037295D01*
X0708540Y0037162D01*
X0708490Y0037031D01*
X0708435Y0036901D01*
X0708378Y0036772D01*
X0708316Y0036645D01*
X0708251Y0036520D01*
X0708183Y0036397D01*
X0708111Y0036276D01*
X0708036Y0036157D01*
X0707957Y0036040D01*
X0707875Y0035925D01*
X0707790Y0035813D01*
X0707702Y0035703D01*
X0707611Y0035596D01*
X0707517Y0035491D01*
X0707420Y0035389D01*
X0707320Y0035290D01*
X0707217Y0035193D01*
X0707112Y0035100D01*
X0707004Y0035009D01*
X0706893Y0034922D01*
X0706780Y0034838D01*
X0706665Y0034757D01*
X0706548Y0034679D01*
X0706428Y0034605D01*
X0706306Y0034534D01*
X0706183Y0034466D01*
X0706057Y0034402D01*
X0705930Y0034342D01*
X0705801Y0034285D01*
X0705671Y0034231D01*
X0705539Y0034182D01*
X0705405Y0034136D01*
X0705271Y0034094D01*
X0705135Y0034056D01*
X0704999Y0034021D01*
X0704861Y0033991D01*
X0704723Y0033964D01*
X0704584Y0033942D01*
X0704444Y0033923D01*
X0704304Y0033908D01*
X0704164Y0033897D01*
X0704023Y0033890D01*
X0703882Y0033887D01*
X0703741Y0033888D01*
X0703601Y0033893D01*
X0703460Y0033902D01*
X0703320Y0033915D01*
X0703180Y0033932D01*
X0703040Y0033952D01*
X0702902Y0033977D01*
X0702764Y0034006D01*
X0702627Y0034038D01*
X0702491Y0034074D01*
X0702356Y0034115D01*
X0702222Y0034159D01*
X0702089Y0034206D01*
X0701958Y0034258D01*
X0701828Y0034313D01*
X0701700Y0034371D01*
X0701574Y0034434D01*
X0701449Y0034499D01*
X0701327Y0034569D01*
X0701206Y0034641D01*
X0701087Y0034717D01*
X0700971Y0034797D01*
X0700857Y0034880D01*
X0700745Y0034965D01*
X0700636Y0035054D01*
X0700529Y0035146D01*
X0700425Y0035241D01*
X0700324Y0035339D01*
X0700225Y0035440D01*
X0700130Y0035543D01*
X0700037Y0035649D01*
X0699947Y0035758D01*
X0699861Y0035869D01*
X0699777Y0035982D01*
X0699697Y0036098D01*
X0699620Y0036216D01*
X0699547Y0036336D01*
X0699476Y0036459D01*
X0699410Y0036583D01*
X0699347Y0036709D01*
X0699287Y0036836D01*
X0699231Y0036965D01*
X0699179Y0037096D01*
X0699130Y0037228D01*
X0699085Y0037362D01*
X0699044Y0037497D01*
X0699007Y0037633D01*
X0698973Y0037769D01*
X0698944Y0037907D01*
X0698918Y0038046D01*
X0698897Y0038185D01*
X0698879Y0038325D01*
X0698865Y0038465D01*
X0698855Y0038605D01*
X0698849Y0038746D01*
X0698847Y0038887D01*
X0679847Y0038887D02*
X0679854Y0039476D01*
X0679876Y0040065D01*
X0679912Y0040653D01*
X0679963Y0041239D01*
X0680027Y0041825D01*
X0680107Y0042409D01*
X0680200Y0042990D01*
X0680308Y0043569D01*
X0680430Y0044145D01*
X0680566Y0044719D01*
X0680716Y0045288D01*
X0680880Y0045854D01*
X0681058Y0046415D01*
X0681250Y0046972D01*
X0681455Y0047524D01*
X0681674Y0048071D01*
X0681906Y0048613D01*
X0682151Y0049148D01*
X0682410Y0049678D01*
X0682681Y0050201D01*
X0682965Y0050717D01*
X0683262Y0051225D01*
X0683571Y0051727D01*
X0683892Y0052221D01*
X0684225Y0052706D01*
X0684570Y0053184D01*
X0684927Y0053653D01*
X0685295Y0054112D01*
X0685674Y0054563D01*
X0686064Y0055004D01*
X0686465Y0055436D01*
X0686876Y0055858D01*
X0687298Y0056269D01*
X0687730Y0056670D01*
X0688171Y0057060D01*
X0688622Y0057439D01*
X0689081Y0057807D01*
X0689550Y0058164D01*
X0690028Y0058509D01*
X0690513Y0058842D01*
X0691007Y0059163D01*
X0691509Y0059472D01*
X0692017Y0059769D01*
X0692533Y0060053D01*
X0693056Y0060324D01*
X0693586Y0060583D01*
X0694121Y0060828D01*
X0694663Y0061060D01*
X0695210Y0061279D01*
X0695762Y0061484D01*
X0696319Y0061676D01*
X0696880Y0061854D01*
X0697446Y0062018D01*
X0698015Y0062168D01*
X0698589Y0062304D01*
X0699165Y0062426D01*
X0699744Y0062534D01*
X0700325Y0062627D01*
X0700909Y0062707D01*
X0701495Y0062771D01*
X0702081Y0062822D01*
X0702669Y0062858D01*
X0703258Y0062880D01*
X0703847Y0062887D01*
X0704436Y0062880D01*
X0705025Y0062858D01*
X0705613Y0062822D01*
X0706199Y0062771D01*
X0706785Y0062707D01*
X0707369Y0062627D01*
X0707950Y0062534D01*
X0708529Y0062426D01*
X0709105Y0062304D01*
X0709679Y0062168D01*
X0710248Y0062018D01*
X0710814Y0061854D01*
X0711375Y0061676D01*
X0711932Y0061484D01*
X0712484Y0061279D01*
X0713031Y0061060D01*
X0713573Y0060828D01*
X0714108Y0060583D01*
X0714638Y0060324D01*
X0715161Y0060053D01*
X0715677Y0059769D01*
X0716185Y0059472D01*
X0716687Y0059163D01*
X0717181Y0058842D01*
X0717666Y0058509D01*
X0718144Y0058164D01*
X0718613Y0057807D01*
X0719072Y0057439D01*
X0719523Y0057060D01*
X0719964Y0056670D01*
X0720396Y0056269D01*
X0720818Y0055858D01*
X0721229Y0055436D01*
X0721630Y0055004D01*
X0722020Y0054563D01*
X0722399Y0054112D01*
X0722767Y0053653D01*
X0723124Y0053184D01*
X0723469Y0052706D01*
X0723802Y0052221D01*
X0724123Y0051727D01*
X0724432Y0051225D01*
X0724729Y0050717D01*
X0725013Y0050201D01*
X0725284Y0049678D01*
X0725543Y0049148D01*
X0725788Y0048613D01*
X0726020Y0048071D01*
X0726239Y0047524D01*
X0726444Y0046972D01*
X0726636Y0046415D01*
X0726814Y0045854D01*
X0726978Y0045288D01*
X0727128Y0044719D01*
X0727264Y0044145D01*
X0727386Y0043569D01*
X0727494Y0042990D01*
X0727587Y0042409D01*
X0727667Y0041825D01*
X0727731Y0041239D01*
X0727782Y0040653D01*
X0727818Y0040065D01*
X0727840Y0039476D01*
X0727847Y0038887D01*
X0727840Y0038298D01*
X0727818Y0037709D01*
X0727782Y0037121D01*
X0727731Y0036535D01*
X0727667Y0035949D01*
X0727587Y0035365D01*
X0727494Y0034784D01*
X0727386Y0034205D01*
X0727264Y0033629D01*
X0727128Y0033055D01*
X0726978Y0032486D01*
X0726814Y0031920D01*
X0726636Y0031359D01*
X0726444Y0030802D01*
X0726239Y0030250D01*
X0726020Y0029703D01*
X0725788Y0029161D01*
X0725543Y0028626D01*
X0725284Y0028096D01*
X0725013Y0027573D01*
X0724729Y0027057D01*
X0724432Y0026549D01*
X0724123Y0026047D01*
X0723802Y0025553D01*
X0723469Y0025068D01*
X0723124Y0024590D01*
X0722767Y0024121D01*
X0722399Y0023662D01*
X0722020Y0023211D01*
X0721630Y0022770D01*
X0721229Y0022338D01*
X0720818Y0021916D01*
X0720396Y0021505D01*
X0719964Y0021104D01*
X0719523Y0020714D01*
X0719072Y0020335D01*
X0718613Y0019967D01*
X0718144Y0019610D01*
X0717666Y0019265D01*
X0717181Y0018932D01*
X0716687Y0018611D01*
X0716185Y0018302D01*
X0715677Y0018005D01*
X0715161Y0017721D01*
X0714638Y0017450D01*
X0714108Y0017191D01*
X0713573Y0016946D01*
X0713031Y0016714D01*
X0712484Y0016495D01*
X0711932Y0016290D01*
X0711375Y0016098D01*
X0710814Y0015920D01*
X0710248Y0015756D01*
X0709679Y0015606D01*
X0709105Y0015470D01*
X0708529Y0015348D01*
X0707950Y0015240D01*
X0707369Y0015147D01*
X0706785Y0015067D01*
X0706199Y0015003D01*
X0705613Y0014952D01*
X0705025Y0014916D01*
X0704436Y0014894D01*
X0703847Y0014887D01*
X0703258Y0014894D01*
X0702669Y0014916D01*
X0702081Y0014952D01*
X0701495Y0015003D01*
X0700909Y0015067D01*
X0700325Y0015147D01*
X0699744Y0015240D01*
X0699165Y0015348D01*
X0698589Y0015470D01*
X0698015Y0015606D01*
X0697446Y0015756D01*
X0696880Y0015920D01*
X0696319Y0016098D01*
X0695762Y0016290D01*
X0695210Y0016495D01*
X0694663Y0016714D01*
X0694121Y0016946D01*
X0693586Y0017191D01*
X0693056Y0017450D01*
X0692533Y0017721D01*
X0692017Y0018005D01*
X0691509Y0018302D01*
X0691007Y0018611D01*
X0690513Y0018932D01*
X0690028Y0019265D01*
X0689550Y0019610D01*
X0689081Y0019967D01*
X0688622Y0020335D01*
X0688171Y0020714D01*
X0687730Y0021104D01*
X0687298Y0021505D01*
X0686876Y0021916D01*
X0686465Y0022338D01*
X0686064Y0022770D01*
X0685674Y0023211D01*
X0685295Y0023662D01*
X0684927Y0024121D01*
X0684570Y0024590D01*
X0684225Y0025068D01*
X0683892Y0025553D01*
X0683571Y0026047D01*
X0683262Y0026549D01*
X0682965Y0027057D01*
X0682681Y0027573D01*
X0682410Y0028096D01*
X0682151Y0028626D01*
X0681906Y0029161D01*
X0681674Y0029703D01*
X0681455Y0030250D01*
X0681250Y0030802D01*
X0681058Y0031359D01*
X0680880Y0031920D01*
X0680716Y0032486D01*
X0680566Y0033055D01*
X0680430Y0033629D01*
X0680308Y0034205D01*
X0680200Y0034784D01*
X0680107Y0035365D01*
X0680027Y0035949D01*
X0679963Y0036535D01*
X0679912Y0037121D01*
X0679876Y0037709D01*
X0679854Y0038298D01*
X0679847Y0038887D01*
X0779646Y0052473D02*
X0779646Y0089473D01*
X0780646Y0090473D01*
X0792146Y0090973D01*
X0792103Y0097520D02*
X0780603Y0098020D01*
X0779603Y0099020D01*
X0779603Y0136020D01*
X0780603Y0137020D01*
X0792103Y0137520D01*
X0650843Y0197784D02*
X0639343Y0198284D01*
X0638343Y0199284D01*
X0638343Y0236284D01*
X0639343Y0237284D01*
X0650843Y0237784D01*
X0779646Y0052473D02*
X0780646Y0051473D01*
X0792146Y0050973D01*
D16*
X0782046Y0088673D03*
X0782003Y0135220D03*
X0640743Y0235484D03*
D17*
X0653843Y0217784D03*
X0795103Y0117520D03*
X0795146Y0070973D03*
D18*
X0792646Y0053723D03*
X0792646Y0088223D03*
X0792603Y0100270D03*
X0792603Y0134770D03*
X0651343Y0200534D03*
X0651343Y0235034D03*
D19*
X0651343Y0222784D03*
X0651343Y0212784D03*
X0792603Y0122520D03*
X0792603Y0112520D03*
X0792646Y0075973D03*
X0792646Y0065973D03*
M02*
