G75*
%MOIN*%
%OFA0B0*%
%FSLAX25Y25*%
%IPPOS*%
%LPD*%
%AMOC8*
5,1,8,0,0,1.08239X$1,22.5*
%
%ADD10R,0.05937X0.05937*%
%ADD11R,0.12661X0.12661*%
%ADD12C,0.07400*%
%ADD13R,0.05118X0.05906*%
%ADD14R,0.05906X0.05118*%
%ADD15C,0.06000*%
%ADD16OC8,0.06000*%
%ADD17C,0.19685*%
%ADD18C,0.07874*%
%ADD19C,0.05150*%
%ADD20OC8,0.08500*%
%ADD21C,0.01600*%
%ADD22C,0.16598*%
%ADD23C,0.02400*%
%ADD24C,0.04000*%
%ADD25C,0.03569*%
%ADD26C,0.03200*%
D10*
X0679044Y0118060D03*
X0679044Y0127902D03*
X0679044Y0137745D03*
X0736131Y0137745D03*
X0736131Y0118060D03*
D11*
X0708572Y0103887D03*
X0708572Y0151918D03*
D12*
X0658606Y0047281D03*
X0640806Y0047281D03*
X0640806Y0021681D03*
X0658606Y0021681D03*
D13*
X0286524Y0214517D03*
X0279044Y0214517D03*
D14*
X0627036Y0222233D03*
X0627036Y0228926D03*
X0766627Y0134229D03*
X0766627Y0127536D03*
X0767150Y0077304D03*
X0767150Y0070611D03*
D15*
X0783646Y0070973D02*
X0789646Y0070973D01*
X0789646Y0060973D02*
X0783646Y0060973D01*
X0783646Y0080973D02*
X0789646Y0080973D01*
X0789603Y0107520D02*
X0783603Y0107520D01*
X0783603Y0117520D02*
X0789603Y0117520D01*
X0789603Y0127520D02*
X0783603Y0127520D01*
X0648343Y0207784D02*
X0642343Y0207784D01*
X0642343Y0217784D02*
X0648343Y0217784D01*
X0648343Y0227784D02*
X0642343Y0227784D01*
D16*
X0539753Y0136524D03*
X0529753Y0136524D03*
X0519753Y0136524D03*
X0509753Y0136524D03*
X0499753Y0136524D03*
X0489753Y0136524D03*
X0479753Y0136524D03*
X0479753Y0126524D03*
X0489753Y0126524D03*
X0499753Y0126524D03*
X0509753Y0126524D03*
X0519753Y0126524D03*
X0529753Y0126524D03*
X0539753Y0126524D03*
X0423454Y0126524D03*
X0413454Y0126524D03*
X0403454Y0126524D03*
X0393454Y0126524D03*
X0383454Y0126524D03*
X0383454Y0136524D03*
X0393454Y0136524D03*
X0403454Y0136524D03*
X0413454Y0136524D03*
X0423454Y0136524D03*
X0228139Y0091564D03*
X0218139Y0091564D03*
X0218139Y0081564D03*
X0228139Y0081564D03*
X0078532Y0081564D03*
X0068532Y0081564D03*
X0068532Y0091564D03*
X0078532Y0091564D03*
D17*
X0247154Y0019635D03*
X0613296Y0019635D03*
X0613296Y0236170D03*
X0247154Y0236170D03*
D18*
X0276682Y0232233D02*
X0276682Y0240107D01*
X0286682Y0240107D02*
X0286682Y0232233D01*
X0296682Y0232233D02*
X0296682Y0240107D01*
X0306682Y0240107D02*
X0306682Y0232233D01*
X0316682Y0232233D02*
X0316682Y0240107D01*
X0326682Y0240107D02*
X0326682Y0232233D01*
X0336682Y0232233D02*
X0336682Y0240107D01*
X0346682Y0240107D02*
X0346682Y0232233D01*
X0356682Y0232233D02*
X0356682Y0240107D01*
X0366682Y0240107D02*
X0366682Y0232233D01*
X0376682Y0232233D02*
X0376682Y0240107D01*
X0386682Y0240107D02*
X0386682Y0232233D01*
X0396682Y0232233D02*
X0396682Y0240107D01*
X0406682Y0240107D02*
X0406682Y0232233D01*
X0416682Y0232233D02*
X0416682Y0240107D01*
X0426682Y0240107D02*
X0426682Y0232233D01*
D19*
X0803367Y0234217D02*
X0803367Y0229068D01*
X0813209Y0229068D02*
X0813209Y0234217D01*
X0823052Y0234217D02*
X0823052Y0229068D01*
X0832894Y0229068D02*
X0832894Y0234217D01*
D20*
X0718847Y0038887D03*
X0688847Y0038887D03*
D21*
X0014553Y0014592D02*
X0014553Y0118772D01*
X0054559Y0118772D01*
X0054559Y0113960D01*
X0055889Y0110749D01*
X0055889Y0110749D01*
X0058347Y0108291D01*
X0061558Y0106961D01*
X0065034Y0106961D01*
X0068245Y0108291D01*
X0070703Y0110749D01*
X0070765Y0110898D01*
X0131869Y0110898D01*
X0116136Y0095164D01*
X0081438Y0095164D01*
X0080438Y0096164D01*
X0076627Y0096164D01*
X0073932Y0093469D01*
X0073932Y0089658D01*
X0076627Y0086964D01*
X0080438Y0086964D01*
X0081438Y0087964D01*
X0118343Y0087964D01*
X0119666Y0088512D01*
X0135575Y0104420D01*
X0140303Y0104420D01*
X0120246Y0084364D01*
X0082238Y0084364D01*
X0080438Y0086164D01*
X0076627Y0086164D01*
X0073932Y0083469D01*
X0073932Y0079658D01*
X0076627Y0076964D01*
X0080438Y0076964D01*
X0082238Y0078764D01*
X0121963Y0078764D01*
X0122992Y0079190D01*
X0143196Y0099394D01*
X0330310Y0099394D01*
X0331339Y0099820D01*
X0332126Y0100608D01*
X0342605Y0111087D01*
X0447278Y0111087D01*
X0448307Y0111513D01*
X0449095Y0112301D01*
X0453150Y0116355D01*
X0453937Y0117143D01*
X0454364Y0118172D01*
X0454364Y0125955D01*
X0473708Y0145299D01*
X0503475Y0145299D01*
X0506953Y0141821D01*
X0506953Y0140230D01*
X0505153Y0138430D01*
X0505153Y0134619D01*
X0507847Y0131924D01*
X0511658Y0131924D01*
X0514353Y0134619D01*
X0514353Y0138430D01*
X0512553Y0140230D01*
X0512553Y0143538D01*
X0512126Y0144567D01*
X0507008Y0149685D01*
X0506221Y0150473D01*
X0505192Y0150899D01*
X0471991Y0150899D01*
X0470962Y0150473D01*
X0449978Y0129489D01*
X0449190Y0128701D01*
X0448764Y0127672D01*
X0448764Y0119889D01*
X0445561Y0116687D01*
X0340889Y0116687D01*
X0339860Y0116260D01*
X0328593Y0104994D01*
X0326423Y0104994D01*
X0354354Y0132924D01*
X0380548Y0132924D01*
X0381548Y0131924D01*
X0385359Y0131924D01*
X0388054Y0134619D01*
X0388054Y0138430D01*
X0385359Y0141124D01*
X0381548Y0141124D01*
X0380548Y0140124D01*
X0353173Y0140124D01*
X0290400Y0202897D01*
X0290400Y0210618D01*
X0290683Y0210901D01*
X0290683Y0218132D01*
X0290282Y0218534D01*
X0290282Y0228003D01*
X0291376Y0229097D01*
X0291682Y0229835D01*
X0291988Y0229097D01*
X0293545Y0227539D01*
X0295580Y0226696D01*
X0297783Y0226696D01*
X0299818Y0227539D01*
X0301376Y0229097D01*
X0301682Y0229835D01*
X0301988Y0229097D01*
X0303545Y0227539D01*
X0303839Y0227418D01*
X0303839Y0210964D01*
X0304265Y0209934D01*
X0305053Y0209147D01*
X0327230Y0186970D01*
X0328259Y0186543D01*
X0405928Y0186543D01*
X0410654Y0181817D01*
X0410654Y0140230D01*
X0408854Y0138430D01*
X0408854Y0134619D01*
X0411548Y0131924D01*
X0415359Y0131924D01*
X0418054Y0134619D01*
X0418054Y0138430D01*
X0416254Y0140230D01*
X0416254Y0183534D01*
X0415827Y0184563D01*
X0409461Y0190929D01*
X0408673Y0191717D01*
X0407644Y0192143D01*
X0329976Y0192143D01*
X0309439Y0212680D01*
X0309439Y0227382D01*
X0309818Y0227539D01*
X0311376Y0229097D01*
X0311682Y0229835D01*
X0311988Y0229097D01*
X0313545Y0227539D01*
X0315580Y0226696D01*
X0317783Y0226696D01*
X0319818Y0227539D01*
X0321376Y0229097D01*
X0321682Y0229835D01*
X0321988Y0229097D01*
X0323545Y0227539D01*
X0325580Y0226696D01*
X0327783Y0226696D01*
X0329818Y0227539D01*
X0331376Y0229097D01*
X0331585Y0229600D01*
X0331775Y0229226D01*
X0332306Y0228496D01*
X0332944Y0227857D01*
X0333675Y0227326D01*
X0334480Y0226916D01*
X0335338Y0226637D01*
X0336230Y0226496D01*
X0336498Y0226496D01*
X0336498Y0235986D01*
X0336866Y0235986D01*
X0336866Y0226496D01*
X0337133Y0226496D01*
X0338025Y0226637D01*
X0338884Y0226916D01*
X0339689Y0227326D01*
X0340419Y0227857D01*
X0341058Y0228496D01*
X0341589Y0229226D01*
X0341682Y0229409D01*
X0341775Y0229226D01*
X0342306Y0228496D01*
X0342944Y0227857D01*
X0343675Y0227326D01*
X0344480Y0226916D01*
X0345338Y0226637D01*
X0346230Y0226496D01*
X0346498Y0226496D01*
X0346498Y0235986D01*
X0346866Y0235986D01*
X0346866Y0226496D01*
X0347133Y0226496D01*
X0348025Y0226637D01*
X0348884Y0226916D01*
X0349689Y0227326D01*
X0350419Y0227857D01*
X0351058Y0228496D01*
X0351589Y0229226D01*
X0351682Y0229409D01*
X0351775Y0229226D01*
X0352306Y0228496D01*
X0352944Y0227857D01*
X0353675Y0227326D01*
X0354480Y0226916D01*
X0355338Y0226637D01*
X0356230Y0226496D01*
X0356498Y0226496D01*
X0356498Y0235986D01*
X0356866Y0235986D01*
X0356866Y0226496D01*
X0357133Y0226496D01*
X0358025Y0226637D01*
X0358884Y0226916D01*
X0359689Y0227326D01*
X0360419Y0227857D01*
X0361058Y0228496D01*
X0361589Y0229226D01*
X0361682Y0229409D01*
X0361775Y0229226D01*
X0362306Y0228496D01*
X0362944Y0227857D01*
X0363675Y0227326D01*
X0364480Y0226916D01*
X0365338Y0226637D01*
X0366230Y0226496D01*
X0366498Y0226496D01*
X0366498Y0235986D01*
X0366866Y0235986D01*
X0366866Y0226496D01*
X0367133Y0226496D01*
X0368025Y0226637D01*
X0368884Y0226916D01*
X0369689Y0227326D01*
X0370419Y0227857D01*
X0371058Y0228496D01*
X0371589Y0229226D01*
X0371779Y0229600D01*
X0371988Y0229097D01*
X0373545Y0227539D01*
X0375580Y0226696D01*
X0377783Y0226696D01*
X0379818Y0227539D01*
X0381376Y0229097D01*
X0381682Y0229835D01*
X0381988Y0229097D01*
X0383545Y0227539D01*
X0383886Y0227398D01*
X0383886Y0203290D01*
X0383817Y0203221D01*
X0383302Y0201977D01*
X0383302Y0200631D01*
X0383817Y0199387D01*
X0384769Y0198435D01*
X0386013Y0197920D01*
X0387359Y0197920D01*
X0388603Y0198435D01*
X0389555Y0199387D01*
X0390070Y0200631D01*
X0390070Y0201977D01*
X0389555Y0203221D01*
X0389486Y0203290D01*
X0389486Y0227401D01*
X0389818Y0227539D01*
X0391376Y0229097D01*
X0391682Y0229835D01*
X0391988Y0229097D01*
X0393545Y0227539D01*
X0395580Y0226696D01*
X0397783Y0226696D01*
X0399818Y0227539D01*
X0401376Y0229097D01*
X0401682Y0229835D01*
X0401988Y0229097D01*
X0403545Y0227539D01*
X0405580Y0226696D01*
X0407783Y0226696D01*
X0409818Y0227539D01*
X0411376Y0229097D01*
X0411682Y0229835D01*
X0411988Y0229097D01*
X0413545Y0227539D01*
X0415580Y0226696D01*
X0417783Y0226696D01*
X0419818Y0227539D01*
X0421376Y0229097D01*
X0421682Y0229835D01*
X0421988Y0229097D01*
X0423545Y0227539D01*
X0425580Y0226696D01*
X0427783Y0226696D01*
X0429818Y0227539D01*
X0431376Y0229097D01*
X0432219Y0231132D01*
X0432219Y0241208D01*
X0432217Y0241213D01*
X0602995Y0241213D01*
X0602633Y0240587D01*
X0601854Y0237677D01*
X0601854Y0234664D01*
X0602633Y0231753D01*
X0604140Y0229144D01*
X0606270Y0227014D01*
X0608879Y0225507D01*
X0610650Y0225033D01*
X0516243Y0225033D01*
X0515214Y0224607D01*
X0506041Y0215434D01*
X0505253Y0214646D01*
X0504827Y0213617D01*
X0504827Y0173944D01*
X0504797Y0173914D01*
X0504282Y0172670D01*
X0504282Y0171324D01*
X0504797Y0170080D01*
X0505749Y0169128D01*
X0506993Y0168613D01*
X0508339Y0168613D01*
X0509583Y0169128D01*
X0510535Y0170080D01*
X0511050Y0171324D01*
X0511050Y0172670D01*
X0510535Y0173914D01*
X0510427Y0174022D01*
X0510427Y0211900D01*
X0517960Y0219433D01*
X0622483Y0219433D01*
X0622483Y0219011D01*
X0623421Y0218074D01*
X0630652Y0218074D01*
X0631589Y0219011D01*
X0631589Y0225455D01*
X0631464Y0225580D01*
X0631589Y0225704D01*
X0631589Y0226126D01*
X0638051Y0226126D01*
X0638444Y0225179D01*
X0639738Y0223885D01*
X0641428Y0223184D01*
X0649258Y0223184D01*
X0650949Y0223885D01*
X0652243Y0225179D01*
X0652943Y0226869D01*
X0652943Y0228699D01*
X0652243Y0230390D01*
X0650949Y0231684D01*
X0649258Y0232384D01*
X0641428Y0232384D01*
X0639839Y0231726D01*
X0631589Y0231726D01*
X0631589Y0232148D01*
X0630652Y0233085D01*
X0624316Y0233085D01*
X0624739Y0234664D01*
X0624739Y0237677D01*
X0623959Y0240587D01*
X0623597Y0241213D01*
X0847472Y0241213D01*
X0847472Y0014592D01*
X0799986Y0014592D01*
X0799986Y0016656D01*
X0800025Y0016751D01*
X0800025Y0019713D01*
X0798785Y0023531D01*
X0796425Y0026779D01*
X0793177Y0029139D01*
X0793177Y0029139D01*
X0789359Y0030380D01*
X0786396Y0030380D01*
X0786387Y0030376D01*
X0741974Y0030376D01*
X0738155Y0029135D01*
X0734908Y0026775D01*
X0732548Y0023527D01*
X0731307Y0019709D01*
X0731307Y0016747D01*
X0731331Y0016690D01*
X0731331Y0014592D01*
X0623597Y0014592D01*
X0623959Y0015218D01*
X0624739Y0018128D01*
X0624739Y0021141D01*
X0623959Y0024051D01*
X0622452Y0026661D01*
X0620322Y0028791D01*
X0617713Y0030297D01*
X0614802Y0031077D01*
X0611790Y0031077D01*
X0608879Y0030297D01*
X0606270Y0028791D01*
X0604140Y0026661D01*
X0602633Y0024051D01*
X0601854Y0021141D01*
X0601854Y0018128D01*
X0602633Y0015218D01*
X0602995Y0014592D01*
X0465340Y0014592D01*
X0465340Y0019674D01*
X0464100Y0023492D01*
X0461740Y0026740D01*
X0458492Y0029100D01*
X0454674Y0030340D01*
X0407352Y0030340D01*
X0403533Y0029100D01*
X0400285Y0026740D01*
X0397926Y0023492D01*
X0396685Y0019674D01*
X0396685Y0014592D01*
X0257456Y0014592D01*
X0257817Y0015218D01*
X0258597Y0018128D01*
X0258597Y0021141D01*
X0257817Y0024051D01*
X0256311Y0026661D01*
X0254180Y0028791D01*
X0251571Y0030297D01*
X0248661Y0031077D01*
X0245648Y0031077D01*
X0242738Y0030297D01*
X0240128Y0028791D01*
X0237998Y0026661D01*
X0236492Y0024051D01*
X0235712Y0021141D01*
X0235712Y0018128D01*
X0236492Y0015218D01*
X0236853Y0014592D01*
X0130694Y0014592D01*
X0130694Y0016689D01*
X0130710Y0016727D01*
X0130710Y0019689D01*
X0129470Y0023507D01*
X0127110Y0026755D01*
X0127110Y0026755D01*
X0123862Y0029115D01*
X0120044Y0030356D01*
X0117081Y0030356D01*
X0117053Y0030344D01*
X0075716Y0030344D01*
X0075668Y0030364D01*
X0072706Y0030364D01*
X0068888Y0029123D01*
X0068888Y0029123D01*
X0065640Y0026763D01*
X0063280Y0023515D01*
X0062039Y0019697D01*
X0062039Y0014592D01*
X0014553Y0014592D01*
X0014553Y0016186D02*
X0062039Y0016186D01*
X0062039Y0017785D02*
X0014553Y0017785D01*
X0014553Y0019383D02*
X0062039Y0019383D01*
X0062457Y0020982D02*
X0014553Y0020982D01*
X0014553Y0022580D02*
X0062976Y0022580D01*
X0063280Y0023515D02*
X0063280Y0023515D01*
X0063762Y0024179D02*
X0014553Y0024179D01*
X0014553Y0025777D02*
X0064923Y0025777D01*
X0065640Y0026763D02*
X0065640Y0026763D01*
X0065640Y0026763D01*
X0066483Y0027376D02*
X0014553Y0027376D01*
X0014553Y0028974D02*
X0068683Y0028974D01*
X0014553Y0030573D02*
X0243766Y0030573D01*
X0240446Y0028974D02*
X0124056Y0028974D01*
X0123862Y0029115D02*
X0123862Y0029115D01*
X0126256Y0027376D02*
X0238713Y0027376D01*
X0237488Y0025777D02*
X0127821Y0025777D01*
X0127110Y0026755D02*
X0127110Y0026755D01*
X0128982Y0024179D02*
X0236565Y0024179D01*
X0236097Y0022580D02*
X0129771Y0022580D01*
X0129470Y0023507D02*
X0129470Y0023507D01*
X0130290Y0020982D02*
X0235712Y0020982D01*
X0235712Y0019383D02*
X0130710Y0019383D01*
X0130710Y0017785D02*
X0235804Y0017785D01*
X0236232Y0016186D02*
X0130694Y0016186D01*
X0014553Y0032171D02*
X0638006Y0032171D01*
X0638006Y0030573D02*
X0616685Y0030573D01*
X0620004Y0028974D02*
X0638006Y0028974D01*
X0638006Y0027376D02*
X0621737Y0027376D01*
X0622962Y0025777D02*
X0637406Y0025777D01*
X0637803Y0026174D02*
X0636312Y0024683D01*
X0635506Y0022735D01*
X0635506Y0020627D01*
X0636312Y0018679D01*
X0637803Y0017188D01*
X0639751Y0016381D01*
X0641860Y0016381D01*
X0643808Y0017188D01*
X0645299Y0018679D01*
X0646105Y0020627D01*
X0646105Y0022735D01*
X0645299Y0024683D01*
X0643808Y0026174D01*
X0643605Y0026258D01*
X0643605Y0042704D01*
X0643808Y0042788D01*
X0645299Y0044279D01*
X0646105Y0046227D01*
X0646105Y0048335D01*
X0645299Y0050283D01*
X0643808Y0051774D01*
X0641860Y0052581D01*
X0639751Y0052581D01*
X0637803Y0051774D01*
X0636312Y0050283D01*
X0635506Y0048335D01*
X0635506Y0046227D01*
X0636312Y0044279D01*
X0637803Y0042788D01*
X0638006Y0042704D01*
X0638006Y0026258D01*
X0637803Y0026174D01*
X0636103Y0024179D02*
X0623885Y0024179D01*
X0624353Y0022580D02*
X0635506Y0022580D01*
X0635506Y0020982D02*
X0624739Y0020982D01*
X0624739Y0019383D02*
X0636021Y0019383D01*
X0637207Y0017785D02*
X0624647Y0017785D01*
X0624218Y0016186D02*
X0658141Y0016186D01*
X0658173Y0016181D02*
X0657318Y0016317D01*
X0656494Y0016584D01*
X0655723Y0016977D01*
X0655023Y0017486D01*
X0654410Y0018098D01*
X0653901Y0018798D01*
X0653508Y0019570D01*
X0653241Y0020393D01*
X0653106Y0021248D01*
X0653106Y0021481D01*
X0658405Y0021481D01*
X0658405Y0021881D01*
X0653105Y0021881D01*
X0653106Y0022114D01*
X0653241Y0022969D01*
X0653508Y0023792D01*
X0653901Y0024564D01*
X0654410Y0025264D01*
X0655023Y0025876D01*
X0655723Y0026385D01*
X0656494Y0026778D01*
X0657318Y0027046D01*
X0658173Y0027181D01*
X0658405Y0027181D01*
X0658405Y0021881D01*
X0658806Y0021881D01*
X0664105Y0021881D01*
X0664105Y0022114D01*
X0663970Y0022969D01*
X0663703Y0023792D01*
X0663310Y0024564D01*
X0662801Y0025264D01*
X0662189Y0025876D01*
X0661488Y0026385D01*
X0660717Y0026778D01*
X0659893Y0027046D01*
X0659038Y0027181D01*
X0658806Y0027181D01*
X0658806Y0021881D01*
X0658806Y0021481D01*
X0664105Y0021481D01*
X0664105Y0021248D01*
X0663970Y0020393D01*
X0663703Y0019570D01*
X0663310Y0018798D01*
X0662801Y0018098D01*
X0662189Y0017486D01*
X0661488Y0016977D01*
X0660717Y0016584D01*
X0659893Y0016317D01*
X0659038Y0016181D01*
X0658806Y0016181D01*
X0658806Y0021481D01*
X0658405Y0021481D01*
X0658405Y0016181D01*
X0658173Y0016181D01*
X0658405Y0016186D02*
X0658806Y0016186D01*
X0659070Y0016186D02*
X0731331Y0016186D01*
X0731307Y0017785D02*
X0662487Y0017785D01*
X0663607Y0019383D02*
X0731307Y0019383D01*
X0731721Y0020982D02*
X0664063Y0020982D01*
X0664032Y0022580D02*
X0732240Y0022580D01*
X0732548Y0023527D02*
X0732548Y0023527D01*
X0733021Y0024179D02*
X0663506Y0024179D01*
X0662288Y0025777D02*
X0734182Y0025777D01*
X0734908Y0026775D02*
X0734908Y0026775D01*
X0734908Y0026775D01*
X0735734Y0027376D02*
X0643605Y0027376D01*
X0643605Y0028974D02*
X0737934Y0028974D01*
X0738155Y0029135D02*
X0738155Y0029135D01*
X0724897Y0036381D02*
X0721353Y0032837D01*
X0719047Y0032837D01*
X0719047Y0038687D01*
X0719047Y0039087D01*
X0718647Y0039087D01*
X0718647Y0044937D01*
X0716341Y0044937D01*
X0712797Y0041393D01*
X0712797Y0039087D01*
X0718647Y0039087D01*
X0718647Y0038687D01*
X0712797Y0038687D01*
X0712797Y0036381D01*
X0716341Y0032837D01*
X0718647Y0032837D01*
X0718647Y0038687D01*
X0719047Y0038687D01*
X0724897Y0038687D01*
X0724897Y0036381D01*
X0724897Y0036967D02*
X0847472Y0036967D01*
X0847472Y0038565D02*
X0724897Y0038565D01*
X0724897Y0039087D02*
X0724897Y0041393D01*
X0721353Y0044937D01*
X0719047Y0044937D01*
X0719047Y0039087D01*
X0724897Y0039087D01*
X0724897Y0040164D02*
X0847472Y0040164D01*
X0847472Y0041762D02*
X0724527Y0041762D01*
X0722929Y0043361D02*
X0847472Y0043361D01*
X0847472Y0044959D02*
X0663595Y0044959D01*
X0663703Y0045170D02*
X0663310Y0044398D01*
X0662801Y0043698D01*
X0662189Y0043086D01*
X0661488Y0042577D01*
X0660717Y0042184D01*
X0659893Y0041917D01*
X0659038Y0041781D01*
X0658806Y0041781D01*
X0658806Y0047081D01*
X0658806Y0047481D01*
X0664105Y0047481D01*
X0664105Y0047714D01*
X0663970Y0048569D01*
X0663703Y0049392D01*
X0663310Y0050164D01*
X0662801Y0050864D01*
X0662189Y0051476D01*
X0661488Y0051985D01*
X0660717Y0052378D01*
X0659893Y0052646D01*
X0659038Y0052781D01*
X0658806Y0052781D01*
X0658806Y0047481D01*
X0658405Y0047481D01*
X0658405Y0047081D01*
X0653106Y0047081D01*
X0653106Y0046848D01*
X0653241Y0045993D01*
X0653508Y0045170D01*
X0653901Y0044398D01*
X0654410Y0043698D01*
X0655023Y0043086D01*
X0655723Y0042577D01*
X0656494Y0042184D01*
X0657318Y0041917D01*
X0658173Y0041781D01*
X0658405Y0041781D01*
X0658405Y0047081D01*
X0658806Y0047081D01*
X0664105Y0047081D01*
X0664105Y0046848D01*
X0663970Y0045993D01*
X0663703Y0045170D01*
X0664060Y0046558D02*
X0847472Y0046558D01*
X0847472Y0048156D02*
X0664035Y0048156D01*
X0663518Y0049755D02*
X0847472Y0049755D01*
X0847472Y0051353D02*
X0662311Y0051353D01*
X0658806Y0051353D02*
X0658405Y0051353D01*
X0658405Y0052781D02*
X0658173Y0052781D01*
X0657318Y0052646D01*
X0656494Y0052378D01*
X0655723Y0051985D01*
X0655023Y0051476D01*
X0654410Y0050864D01*
X0653901Y0050164D01*
X0653508Y0049392D01*
X0653241Y0048569D01*
X0653106Y0047714D01*
X0653105Y0047481D01*
X0658405Y0047481D01*
X0658405Y0052781D01*
X0658405Y0049755D02*
X0658806Y0049755D01*
X0658806Y0048156D02*
X0658405Y0048156D01*
X0658405Y0046558D02*
X0658806Y0046558D01*
X0658806Y0044959D02*
X0658405Y0044959D01*
X0658405Y0043361D02*
X0658806Y0043361D01*
X0662463Y0043361D02*
X0685048Y0043361D01*
X0686424Y0044737D02*
X0682997Y0041310D01*
X0682997Y0036463D01*
X0686424Y0033037D01*
X0691270Y0033037D01*
X0694697Y0036463D01*
X0694697Y0041310D01*
X0691270Y0044737D01*
X0686424Y0044737D01*
X0683450Y0041762D02*
X0643605Y0041762D01*
X0643605Y0040164D02*
X0682997Y0040164D01*
X0682997Y0038565D02*
X0643605Y0038565D01*
X0643605Y0036967D02*
X0682997Y0036967D01*
X0684092Y0035368D02*
X0643605Y0035368D01*
X0643605Y0033770D02*
X0685691Y0033770D01*
X0692004Y0033770D02*
X0715408Y0033770D01*
X0713810Y0035368D02*
X0693602Y0035368D01*
X0694697Y0036967D02*
X0712797Y0036967D01*
X0712797Y0038565D02*
X0694697Y0038565D01*
X0694697Y0040164D02*
X0712797Y0040164D01*
X0713167Y0041762D02*
X0694245Y0041762D01*
X0692646Y0043361D02*
X0714766Y0043361D01*
X0718647Y0043361D02*
X0719047Y0043361D01*
X0719047Y0041762D02*
X0718647Y0041762D01*
X0718647Y0040164D02*
X0719047Y0040164D01*
X0719047Y0038565D02*
X0718647Y0038565D01*
X0718647Y0036967D02*
X0719047Y0036967D01*
X0719047Y0035368D02*
X0718647Y0035368D01*
X0718647Y0033770D02*
X0719047Y0033770D01*
X0722286Y0033770D02*
X0847472Y0033770D01*
X0847472Y0035368D02*
X0723885Y0035368D01*
X0658806Y0025777D02*
X0658405Y0025777D01*
X0658405Y0024179D02*
X0658806Y0024179D01*
X0658806Y0022580D02*
X0658405Y0022580D01*
X0658405Y0020982D02*
X0658806Y0020982D01*
X0658806Y0019383D02*
X0658405Y0019383D01*
X0658405Y0017785D02*
X0658806Y0017785D01*
X0654724Y0017785D02*
X0644404Y0017785D01*
X0645590Y0019383D02*
X0653604Y0019383D01*
X0653148Y0020982D02*
X0646105Y0020982D01*
X0646105Y0022580D02*
X0653179Y0022580D01*
X0653705Y0024179D02*
X0645508Y0024179D01*
X0644205Y0025777D02*
X0654923Y0025777D01*
X0643605Y0030573D02*
X0847472Y0030573D01*
X0847472Y0032171D02*
X0643605Y0032171D01*
X0638006Y0033770D02*
X0014553Y0033770D01*
X0014553Y0035368D02*
X0638006Y0035368D01*
X0638006Y0036967D02*
X0014553Y0036967D01*
X0014553Y0038565D02*
X0638006Y0038565D01*
X0638006Y0040164D02*
X0014553Y0040164D01*
X0014553Y0041762D02*
X0638006Y0041762D01*
X0637230Y0043361D02*
X0014553Y0043361D01*
X0014553Y0044959D02*
X0636031Y0044959D01*
X0635506Y0046558D02*
X0014553Y0046558D01*
X0014553Y0048156D02*
X0635506Y0048156D01*
X0636094Y0049755D02*
X0014553Y0049755D01*
X0014553Y0051353D02*
X0637383Y0051353D01*
X0644229Y0051353D02*
X0654900Y0051353D01*
X0653693Y0049755D02*
X0645517Y0049755D01*
X0646105Y0048156D02*
X0653176Y0048156D01*
X0653151Y0046558D02*
X0646105Y0046558D01*
X0645580Y0044959D02*
X0653616Y0044959D01*
X0654748Y0043361D02*
X0644381Y0043361D01*
X0609907Y0030573D02*
X0250543Y0030573D01*
X0253863Y0028974D02*
X0403361Y0028974D01*
X0403533Y0029100D02*
X0403533Y0029100D01*
X0401161Y0027376D02*
X0255595Y0027376D01*
X0256821Y0025777D02*
X0399586Y0025777D01*
X0400285Y0026740D02*
X0400285Y0026740D01*
X0400285Y0026740D01*
X0398425Y0024179D02*
X0257743Y0024179D01*
X0258211Y0022580D02*
X0397630Y0022580D01*
X0397926Y0023492D02*
X0397926Y0023492D01*
X0397110Y0020982D02*
X0258597Y0020982D01*
X0258597Y0019383D02*
X0396685Y0019383D01*
X0396685Y0017785D02*
X0258505Y0017785D01*
X0258076Y0016186D02*
X0396685Y0016186D01*
X0458492Y0029100D02*
X0458492Y0029100D01*
X0458664Y0028974D02*
X0606588Y0028974D01*
X0604855Y0027376D02*
X0460864Y0027376D01*
X0461740Y0026740D02*
X0461740Y0026740D01*
X0461740Y0026740D01*
X0462439Y0025777D02*
X0603630Y0025777D01*
X0602707Y0024179D02*
X0463600Y0024179D01*
X0464100Y0023492D02*
X0464100Y0023492D01*
X0464396Y0022580D02*
X0602239Y0022580D01*
X0601854Y0020982D02*
X0464915Y0020982D01*
X0465340Y0019383D02*
X0601854Y0019383D01*
X0601946Y0017785D02*
X0465340Y0017785D01*
X0465340Y0016186D02*
X0602374Y0016186D01*
X0556352Y0066880D02*
X0546142Y0056670D01*
X0545113Y0056244D01*
X0081243Y0056244D01*
X0080214Y0056670D01*
X0079426Y0057458D01*
X0076080Y0060804D01*
X0075941Y0061141D01*
X0066946Y0070135D01*
X0066946Y0070135D01*
X0066159Y0070923D01*
X0065732Y0071952D01*
X0065732Y0077858D01*
X0063932Y0079658D01*
X0063932Y0083469D01*
X0066627Y0086164D01*
X0070438Y0086164D01*
X0073132Y0083469D01*
X0073132Y0079658D01*
X0071332Y0077858D01*
X0071332Y0073668D01*
X0080040Y0064961D01*
X0080827Y0064173D01*
X0080966Y0063837D01*
X0082960Y0061844D01*
X0543396Y0061844D01*
X0552392Y0070840D01*
X0552392Y0070938D01*
X0552907Y0072182D01*
X0553859Y0073134D01*
X0555103Y0073649D01*
X0556450Y0073649D01*
X0557693Y0073134D01*
X0558645Y0072182D01*
X0559161Y0070938D01*
X0559161Y0069591D01*
X0558645Y0068348D01*
X0557693Y0067396D01*
X0556450Y0066880D01*
X0556352Y0066880D01*
X0557556Y0067339D02*
X0762648Y0067339D01*
X0762598Y0067389D02*
X0763535Y0066452D01*
X0770766Y0066452D01*
X0771703Y0067389D01*
X0771703Y0068291D01*
X0775562Y0068291D01*
X0776591Y0068718D01*
X0777378Y0069505D01*
X0778186Y0070312D01*
X0778612Y0071341D01*
X0778612Y0074522D01*
X0781127Y0077038D01*
X0782731Y0076373D01*
X0790561Y0076373D01*
X0792252Y0077074D01*
X0793546Y0078368D01*
X0794246Y0080058D01*
X0794246Y0081888D01*
X0793546Y0083579D01*
X0792252Y0084873D01*
X0790561Y0085573D01*
X0782731Y0085573D01*
X0781041Y0084873D01*
X0779747Y0083579D01*
X0779678Y0083414D01*
X0779517Y0083347D01*
X0774226Y0078056D01*
X0773438Y0077268D01*
X0773012Y0076239D01*
X0773012Y0073891D01*
X0771645Y0073891D01*
X0771578Y0073957D01*
X0771703Y0074082D01*
X0771703Y0080526D01*
X0770766Y0081463D01*
X0763535Y0081463D01*
X0762598Y0080526D01*
X0762598Y0080104D01*
X0571235Y0080104D01*
X0551418Y0099922D01*
X0550388Y0100348D01*
X0495598Y0100348D01*
X0495027Y0100919D01*
X0495027Y0101016D01*
X0494512Y0102260D01*
X0493560Y0103212D01*
X0492316Y0103728D01*
X0490969Y0103728D01*
X0489725Y0103212D01*
X0488773Y0102260D01*
X0488258Y0101016D01*
X0488258Y0099670D01*
X0488773Y0098426D01*
X0489725Y0097474D01*
X0490969Y0096959D01*
X0491067Y0096959D01*
X0492852Y0095174D01*
X0493881Y0094748D01*
X0548672Y0094748D01*
X0568490Y0074930D01*
X0569519Y0074504D01*
X0762598Y0074504D01*
X0762598Y0074082D01*
X0762722Y0073957D01*
X0762598Y0073833D01*
X0762598Y0072854D01*
X0762260Y0072038D01*
X0762260Y0071066D01*
X0762220Y0070971D01*
X0762220Y0069857D01*
X0762598Y0068947D01*
X0762598Y0067389D01*
X0762598Y0068937D02*
X0558890Y0068937D01*
X0559161Y0070536D02*
X0762220Y0070536D01*
X0762300Y0072134D02*
X0558665Y0072134D01*
X0552888Y0072134D02*
X0072867Y0072134D01*
X0071332Y0073733D02*
X0762598Y0073733D01*
X0771703Y0075331D02*
X0773012Y0075331D01*
X0773298Y0076930D02*
X0771703Y0076930D01*
X0771703Y0078528D02*
X0774698Y0078528D01*
X0776297Y0080127D02*
X0771703Y0080127D01*
X0777895Y0081725D02*
X0569614Y0081725D01*
X0568016Y0083324D02*
X0779494Y0083324D01*
X0781160Y0084922D02*
X0566417Y0084922D01*
X0564819Y0086521D02*
X0681327Y0086521D01*
X0681410Y0086437D02*
X0682734Y0085889D01*
X0804209Y0085889D01*
X0805532Y0086437D01*
X0815469Y0096374D01*
X0816482Y0097387D01*
X0817030Y0098710D01*
X0817030Y0177199D01*
X0834934Y0195102D01*
X0835946Y0196115D01*
X0836494Y0197438D01*
X0836494Y0226850D01*
X0837069Y0228237D01*
X0837069Y0235048D01*
X0836434Y0236582D01*
X0835259Y0237757D01*
X0833725Y0238392D01*
X0832064Y0238392D01*
X0830530Y0237757D01*
X0829355Y0236582D01*
X0828720Y0235048D01*
X0828720Y0228237D01*
X0829294Y0226850D01*
X0829294Y0199645D01*
X0810378Y0180729D01*
X0809830Y0179406D01*
X0809830Y0100917D01*
X0802002Y0093089D01*
X0684941Y0093089D01*
X0664631Y0113398D01*
X0664631Y0113398D01*
X0663619Y0114411D01*
X0662296Y0114959D01*
X0553142Y0114959D01*
X0550442Y0117658D01*
X0549430Y0118671D01*
X0548107Y0119219D01*
X0484000Y0119219D01*
X0483471Y0119748D01*
X0483471Y0123737D01*
X0484353Y0124619D01*
X0484353Y0128430D01*
X0481658Y0131124D01*
X0477847Y0131124D01*
X0475153Y0128430D01*
X0475153Y0124619D01*
X0476271Y0123501D01*
X0476271Y0117541D01*
X0476819Y0116217D01*
X0477832Y0115205D01*
X0480469Y0112567D01*
X0481793Y0112019D01*
X0545899Y0112019D01*
X0549611Y0108307D01*
X0550934Y0107759D01*
X0660088Y0107759D01*
X0680398Y0087450D01*
X0681410Y0086437D01*
X0679728Y0088119D02*
X0563220Y0088119D01*
X0561622Y0089718D02*
X0678130Y0089718D01*
X0676531Y0091316D02*
X0560023Y0091316D01*
X0558425Y0092915D02*
X0674933Y0092915D01*
X0673334Y0094513D02*
X0556826Y0094513D01*
X0555228Y0096112D02*
X0671736Y0096112D01*
X0670137Y0097710D02*
X0553629Y0097710D01*
X0552031Y0099309D02*
X0668539Y0099309D01*
X0666940Y0100907D02*
X0495038Y0100907D01*
X0494266Y0102506D02*
X0665342Y0102506D01*
X0663743Y0104104D02*
X0541607Y0104104D01*
X0541512Y0104010D02*
X0542464Y0104962D01*
X0542980Y0106206D01*
X0542980Y0107552D01*
X0542464Y0108796D01*
X0541512Y0109748D01*
X0540268Y0110263D01*
X0538922Y0110263D01*
X0537678Y0109748D01*
X0537609Y0109679D01*
X0421519Y0109679D01*
X0420490Y0109252D01*
X0410601Y0099364D01*
X0222582Y0099364D01*
X0221553Y0098937D01*
X0218779Y0096164D01*
X0216233Y0096164D01*
X0213539Y0093469D01*
X0213539Y0089658D01*
X0216233Y0086964D01*
X0217644Y0086964D01*
X0217879Y0086884D01*
X0218991Y0086955D01*
X0219010Y0086964D01*
X0220044Y0086964D01*
X0222739Y0089658D01*
X0222739Y0092204D01*
X0223539Y0093004D01*
X0223539Y0089658D01*
X0226233Y0086964D01*
X0229143Y0086964D01*
X0229550Y0086795D01*
X0527836Y0086795D01*
X0528961Y0086329D01*
X0530308Y0086329D01*
X0531552Y0086844D01*
X0532504Y0087796D01*
X0533019Y0089040D01*
X0533019Y0090387D01*
X0532504Y0091630D01*
X0531552Y0092582D01*
X0530308Y0093098D01*
X0528961Y0093098D01*
X0527718Y0092582D01*
X0527530Y0092395D01*
X0232739Y0092395D01*
X0232739Y0093469D01*
X0232444Y0093764D01*
X0412318Y0093764D01*
X0413347Y0094190D01*
X0414134Y0094978D01*
X0423235Y0104079D01*
X0537609Y0104079D01*
X0537678Y0104010D01*
X0538922Y0103494D01*
X0540268Y0103494D01*
X0541512Y0104010D01*
X0542771Y0105703D02*
X0662145Y0105703D01*
X0660546Y0107301D02*
X0542980Y0107301D01*
X0542360Y0108900D02*
X0549018Y0108900D01*
X0547420Y0110498D02*
X0342017Y0110498D01*
X0340419Y0108900D02*
X0420137Y0108900D01*
X0418538Y0107301D02*
X0338820Y0107301D01*
X0337222Y0105703D02*
X0416940Y0105703D01*
X0415341Y0104104D02*
X0335623Y0104104D01*
X0334025Y0102506D02*
X0413743Y0102506D01*
X0412144Y0100907D02*
X0332426Y0100907D01*
X0332126Y0100608D02*
X0332126Y0100608D01*
X0329302Y0105703D02*
X0327133Y0105703D01*
X0328731Y0107301D02*
X0330901Y0107301D01*
X0330330Y0108900D02*
X0332499Y0108900D01*
X0331928Y0110498D02*
X0334098Y0110498D01*
X0333527Y0112097D02*
X0335696Y0112097D01*
X0335125Y0113695D02*
X0337295Y0113695D01*
X0336724Y0115294D02*
X0338893Y0115294D01*
X0338322Y0116892D02*
X0445767Y0116892D01*
X0447366Y0118491D02*
X0339921Y0118491D01*
X0341519Y0120089D02*
X0448764Y0120089D01*
X0448764Y0121688D02*
X0343118Y0121688D01*
X0344716Y0123286D02*
X0379903Y0123286D01*
X0378654Y0124536D02*
X0378654Y0126324D01*
X0383253Y0126324D01*
X0383253Y0126724D01*
X0378654Y0126724D01*
X0378654Y0128513D01*
X0381465Y0131324D01*
X0383254Y0131324D01*
X0383254Y0126724D01*
X0383654Y0126724D01*
X0388254Y0126724D01*
X0388254Y0128513D01*
X0385442Y0131324D01*
X0383654Y0131324D01*
X0383654Y0126724D01*
X0383654Y0126324D01*
X0388254Y0126324D01*
X0388254Y0124536D01*
X0385442Y0121724D01*
X0383654Y0121724D01*
X0383654Y0126324D01*
X0383254Y0126324D01*
X0383254Y0121724D01*
X0381465Y0121724D01*
X0378654Y0124536D01*
X0378654Y0124885D02*
X0346315Y0124885D01*
X0347913Y0126483D02*
X0383253Y0126483D01*
X0383654Y0126483D02*
X0388854Y0126483D01*
X0388854Y0124885D02*
X0388254Y0124885D01*
X0388854Y0124619D02*
X0391548Y0121924D01*
X0395359Y0121924D01*
X0398054Y0124619D01*
X0398054Y0128430D01*
X0395359Y0131124D01*
X0391548Y0131124D01*
X0388854Y0128430D01*
X0388854Y0124619D01*
X0390186Y0123286D02*
X0387004Y0123286D01*
X0383654Y0123286D02*
X0383254Y0123286D01*
X0383254Y0124885D02*
X0383654Y0124885D01*
X0383654Y0128082D02*
X0383254Y0128082D01*
X0383254Y0129680D02*
X0383654Y0129680D01*
X0383654Y0131279D02*
X0383254Y0131279D01*
X0381420Y0131279D02*
X0352709Y0131279D01*
X0354307Y0132877D02*
X0380595Y0132877D01*
X0385487Y0131279D02*
X0451768Y0131279D01*
X0450170Y0129680D02*
X0426803Y0129680D01*
X0428054Y0128430D02*
X0425359Y0131124D01*
X0421548Y0131124D01*
X0418854Y0128430D01*
X0418854Y0124619D01*
X0421548Y0121924D01*
X0425359Y0121924D01*
X0428054Y0124619D01*
X0428054Y0128430D01*
X0428054Y0128082D02*
X0448934Y0128082D01*
X0448764Y0126483D02*
X0428054Y0126483D01*
X0428054Y0124885D02*
X0448764Y0124885D01*
X0448764Y0123286D02*
X0426721Y0123286D01*
X0420186Y0123286D02*
X0416721Y0123286D01*
X0418054Y0124619D02*
X0415359Y0121924D01*
X0411548Y0121924D01*
X0408854Y0124619D01*
X0408854Y0128430D01*
X0411548Y0131124D01*
X0415359Y0131124D01*
X0418054Y0128430D01*
X0418054Y0124619D01*
X0418054Y0124885D02*
X0418854Y0124885D01*
X0418854Y0126483D02*
X0418054Y0126483D01*
X0418054Y0128082D02*
X0418854Y0128082D01*
X0420104Y0129680D02*
X0416803Y0129680D01*
X0421548Y0131924D02*
X0425359Y0131924D01*
X0427159Y0133724D01*
X0450546Y0133724D01*
X0451575Y0134151D01*
X0454353Y0136928D01*
X0454353Y0136929D01*
X0473039Y0155614D01*
X0568435Y0155614D01*
X0576946Y0147104D01*
X0577734Y0146316D01*
X0578763Y0145890D01*
X0690325Y0145890D01*
X0700214Y0136001D01*
X0701001Y0135214D01*
X0702030Y0134787D01*
X0731562Y0134787D01*
X0731562Y0134114D01*
X0732499Y0133176D01*
X0739762Y0133176D01*
X0740699Y0134114D01*
X0740699Y0141376D01*
X0739762Y0142313D01*
X0732499Y0142313D01*
X0731562Y0141376D01*
X0731562Y0140387D01*
X0703747Y0140387D01*
X0693071Y0151063D01*
X0692042Y0151490D01*
X0580479Y0151490D01*
X0571181Y0160788D01*
X0570152Y0161214D01*
X0471322Y0161214D01*
X0470293Y0160788D01*
X0469505Y0160000D01*
X0450393Y0140888D01*
X0448829Y0139324D01*
X0427159Y0139324D01*
X0425359Y0141124D01*
X0421548Y0141124D01*
X0418854Y0138430D01*
X0418854Y0134619D01*
X0421548Y0131924D01*
X0420595Y0132877D02*
X0416312Y0132877D01*
X0417911Y0134476D02*
X0418997Y0134476D01*
X0418854Y0136075D02*
X0418054Y0136075D01*
X0418054Y0137673D02*
X0418854Y0137673D01*
X0419695Y0139272D02*
X0417212Y0139272D01*
X0416254Y0140870D02*
X0421294Y0140870D01*
X0425613Y0140870D02*
X0450375Y0140870D01*
X0450393Y0140888D02*
X0450393Y0140888D01*
X0451973Y0142469D02*
X0416254Y0142469D01*
X0416254Y0144067D02*
X0453572Y0144067D01*
X0455170Y0145666D02*
X0416254Y0145666D01*
X0416254Y0147264D02*
X0456769Y0147264D01*
X0458367Y0148863D02*
X0416254Y0148863D01*
X0416254Y0150461D02*
X0459966Y0150461D01*
X0461564Y0152060D02*
X0416254Y0152060D01*
X0416254Y0153658D02*
X0463163Y0153658D01*
X0464761Y0155257D02*
X0416254Y0155257D01*
X0416254Y0156855D02*
X0466360Y0156855D01*
X0467958Y0158454D02*
X0416254Y0158454D01*
X0416254Y0160052D02*
X0469557Y0160052D01*
X0472681Y0155257D02*
X0568793Y0155257D01*
X0570391Y0153658D02*
X0471082Y0153658D01*
X0469484Y0152060D02*
X0571990Y0152060D01*
X0573589Y0150461D02*
X0506233Y0150461D01*
X0507831Y0148863D02*
X0575187Y0148863D01*
X0576786Y0147264D02*
X0509430Y0147264D01*
X0511028Y0145666D02*
X0690549Y0145666D01*
X0692148Y0144067D02*
X0512334Y0144067D01*
X0512553Y0142469D02*
X0693746Y0142469D01*
X0695345Y0140870D02*
X0683613Y0140870D01*
X0683613Y0141376D02*
X0682675Y0142313D01*
X0675413Y0142313D01*
X0674476Y0141376D01*
X0674476Y0134114D01*
X0675413Y0133176D01*
X0682675Y0133176D01*
X0683613Y0134114D01*
X0683613Y0141376D01*
X0683613Y0139272D02*
X0696943Y0139272D01*
X0698542Y0137673D02*
X0683613Y0137673D01*
X0683613Y0136075D02*
X0700140Y0136075D01*
X0703265Y0140870D02*
X0731562Y0140870D01*
X0740699Y0140870D02*
X0763898Y0140870D01*
X0763898Y0139272D02*
X0740699Y0139272D01*
X0740699Y0137673D02*
X0762296Y0137673D01*
X0762074Y0137451D02*
X0763011Y0138388D01*
X0763898Y0138388D01*
X0763898Y0145459D01*
X0746656Y0162701D01*
X0489810Y0162701D01*
X0489741Y0162632D01*
X0488497Y0162117D01*
X0487150Y0162117D01*
X0485907Y0162632D01*
X0484955Y0163584D01*
X0484439Y0164828D01*
X0484439Y0166174D01*
X0484955Y0167418D01*
X0485907Y0168370D01*
X0487150Y0168885D01*
X0488497Y0168885D01*
X0489741Y0168370D01*
X0489810Y0168301D01*
X0748373Y0168301D01*
X0749402Y0167875D01*
X0768284Y0148993D01*
X0769071Y0148205D01*
X0769498Y0147176D01*
X0769498Y0138388D01*
X0770242Y0138388D01*
X0771180Y0137451D01*
X0771180Y0131007D01*
X0771055Y0130883D01*
X0771180Y0130758D01*
X0771180Y0130320D01*
X0779898Y0130320D01*
X0780997Y0131420D01*
X0782688Y0132120D01*
X0790518Y0132120D01*
X0792209Y0131420D01*
X0793503Y0130126D01*
X0794203Y0128435D01*
X0794203Y0126605D01*
X0793503Y0124915D01*
X0792209Y0123621D01*
X0790518Y0122920D01*
X0782688Y0122920D01*
X0780997Y0123621D01*
X0779898Y0124720D01*
X0771180Y0124720D01*
X0771180Y0124314D01*
X0770242Y0123377D01*
X0763011Y0123377D01*
X0762074Y0124314D01*
X0762074Y0130758D01*
X0762199Y0130883D01*
X0762074Y0131007D01*
X0762074Y0137451D01*
X0762074Y0136075D02*
X0740699Y0136075D01*
X0740699Y0134476D02*
X0762074Y0134476D01*
X0762074Y0132877D02*
X0542611Y0132877D01*
X0541658Y0131924D02*
X0544353Y0134619D01*
X0544353Y0138430D01*
X0541658Y0141124D01*
X0537847Y0141124D01*
X0535153Y0138430D01*
X0535153Y0134619D01*
X0537847Y0131924D01*
X0541658Y0131924D01*
X0541658Y0131124D02*
X0537847Y0131124D01*
X0535153Y0128430D01*
X0535153Y0124619D01*
X0537847Y0121924D01*
X0541658Y0121924D01*
X0544353Y0124619D01*
X0544353Y0128430D01*
X0541658Y0131124D01*
X0543102Y0129680D02*
X0674276Y0129680D01*
X0674276Y0131108D02*
X0674276Y0128087D01*
X0678860Y0128087D01*
X0678860Y0132671D01*
X0675839Y0132671D01*
X0675381Y0132548D01*
X0674970Y0132311D01*
X0674635Y0131976D01*
X0674398Y0131566D01*
X0674276Y0131108D01*
X0674321Y0131279D02*
X0459688Y0131279D01*
X0461286Y0132877D02*
X0476894Y0132877D01*
X0477847Y0131924D02*
X0475153Y0134619D01*
X0475153Y0138430D01*
X0477847Y0141124D01*
X0481658Y0141124D01*
X0484353Y0138430D01*
X0484353Y0134619D01*
X0481658Y0131924D01*
X0477847Y0131924D01*
X0476403Y0129680D02*
X0458089Y0129680D01*
X0456491Y0128082D02*
X0475153Y0128082D01*
X0475153Y0126483D02*
X0454892Y0126483D01*
X0454364Y0124885D02*
X0475153Y0124885D01*
X0476271Y0123286D02*
X0454364Y0123286D01*
X0454364Y0121688D02*
X0476271Y0121688D01*
X0476271Y0120089D02*
X0454364Y0120089D01*
X0454364Y0118491D02*
X0476271Y0118491D01*
X0476539Y0116892D02*
X0453687Y0116892D01*
X0453150Y0116355D02*
X0453150Y0116355D01*
X0452088Y0115294D02*
X0477743Y0115294D01*
X0479341Y0113695D02*
X0450490Y0113695D01*
X0449095Y0112301D02*
X0449095Y0112301D01*
X0448891Y0112097D02*
X0481604Y0112097D01*
X0489019Y0102506D02*
X0421662Y0102506D01*
X0420064Y0100907D02*
X0488258Y0100907D01*
X0488408Y0099309D02*
X0418465Y0099309D01*
X0416867Y0097710D02*
X0489490Y0097710D01*
X0491914Y0096112D02*
X0415268Y0096112D01*
X0413670Y0094513D02*
X0548906Y0094513D01*
X0550505Y0092915D02*
X0530749Y0092915D01*
X0528520Y0092915D02*
X0232739Y0092915D01*
X0225078Y0088119D02*
X0221199Y0088119D01*
X0220127Y0086364D02*
X0218339Y0086364D01*
X0218339Y0081764D01*
X0222939Y0081764D01*
X0222939Y0083552D01*
X0220127Y0086364D01*
X0221568Y0084922D02*
X0224992Y0084922D01*
X0226233Y0086164D02*
X0223539Y0083469D01*
X0223539Y0079658D01*
X0226233Y0076964D01*
X0229199Y0076964D01*
X0229511Y0076835D01*
X0517216Y0076835D01*
X0517285Y0076766D01*
X0518528Y0076250D01*
X0519875Y0076250D01*
X0521119Y0076766D01*
X0522071Y0077718D01*
X0522586Y0078961D01*
X0522586Y0080308D01*
X0522071Y0081552D01*
X0521119Y0082504D01*
X0519875Y0083019D01*
X0518528Y0083019D01*
X0517285Y0082504D01*
X0517216Y0082435D01*
X0232739Y0082435D01*
X0232739Y0083469D01*
X0230044Y0086164D01*
X0226233Y0086164D01*
X0223539Y0083324D02*
X0222939Y0083324D01*
X0223539Y0081725D02*
X0218339Y0081725D01*
X0218339Y0081764D02*
X0218339Y0081364D01*
X0222939Y0081364D01*
X0222939Y0079576D01*
X0220127Y0076764D01*
X0218339Y0076764D01*
X0218339Y0081364D01*
X0217939Y0081364D01*
X0217939Y0076764D01*
X0216150Y0076764D01*
X0213339Y0079576D01*
X0213339Y0081364D01*
X0217938Y0081364D01*
X0217938Y0081764D01*
X0213339Y0081764D01*
X0213339Y0083552D01*
X0216150Y0086364D01*
X0217939Y0086364D01*
X0217939Y0081764D01*
X0218339Y0081764D01*
X0217938Y0081725D02*
X0125527Y0081725D01*
X0123929Y0080127D02*
X0213339Y0080127D01*
X0214386Y0078528D02*
X0082002Y0078528D01*
X0075063Y0078528D02*
X0072002Y0078528D01*
X0071332Y0076930D02*
X0215985Y0076930D01*
X0217939Y0076930D02*
X0218339Y0076930D01*
X0218339Y0078528D02*
X0217939Y0078528D01*
X0217939Y0080127D02*
X0218339Y0080127D01*
X0218339Y0083324D02*
X0217939Y0083324D01*
X0217939Y0084922D02*
X0218339Y0084922D01*
X0214709Y0084922D02*
X0128724Y0084922D01*
X0127126Y0083324D02*
X0213339Y0083324D01*
X0222939Y0080127D02*
X0223539Y0080127D01*
X0224669Y0078528D02*
X0221891Y0078528D01*
X0220293Y0076930D02*
X0229281Y0076930D01*
X0232739Y0083324D02*
X0560096Y0083324D01*
X0558498Y0084922D02*
X0231286Y0084922D01*
X0223539Y0089718D02*
X0222739Y0089718D01*
X0222739Y0091316D02*
X0223539Y0091316D01*
X0223539Y0092915D02*
X0223449Y0092915D01*
X0216181Y0096112D02*
X0139914Y0096112D01*
X0141513Y0097710D02*
X0220325Y0097710D01*
X0222449Y0099309D02*
X0143111Y0099309D01*
X0136790Y0100907D02*
X0132061Y0100907D01*
X0130463Y0099309D02*
X0135191Y0099309D01*
X0133593Y0097710D02*
X0128864Y0097710D01*
X0127266Y0096112D02*
X0131994Y0096112D01*
X0130396Y0094513D02*
X0125667Y0094513D01*
X0124069Y0092915D02*
X0128797Y0092915D01*
X0127199Y0091316D02*
X0122470Y0091316D01*
X0120872Y0089718D02*
X0125600Y0089718D01*
X0124002Y0088119D02*
X0118718Y0088119D01*
X0120805Y0084922D02*
X0081679Y0084922D01*
X0075385Y0084922D02*
X0071679Y0084922D01*
X0073132Y0083324D02*
X0073932Y0083324D01*
X0073932Y0081725D02*
X0073132Y0081725D01*
X0073132Y0080127D02*
X0073932Y0080127D01*
X0065732Y0076930D02*
X0014553Y0076930D01*
X0014553Y0078528D02*
X0065063Y0078528D01*
X0063932Y0080127D02*
X0014553Y0080127D01*
X0014553Y0081725D02*
X0063932Y0081725D01*
X0063932Y0083324D02*
X0014553Y0083324D01*
X0014553Y0084922D02*
X0065385Y0084922D01*
X0066544Y0086764D02*
X0068332Y0086764D01*
X0068332Y0091364D01*
X0063732Y0091364D01*
X0063732Y0089576D01*
X0066544Y0086764D01*
X0065189Y0088119D02*
X0014553Y0088119D01*
X0014553Y0086521D02*
X0122403Y0086521D01*
X0130323Y0086521D02*
X0528499Y0086521D01*
X0530770Y0086521D02*
X0556899Y0086521D01*
X0555301Y0088119D02*
X0532637Y0088119D01*
X0533019Y0089718D02*
X0553702Y0089718D01*
X0552104Y0091316D02*
X0532634Y0091316D01*
X0521897Y0081725D02*
X0561695Y0081725D01*
X0563293Y0080127D02*
X0522586Y0080127D01*
X0522406Y0078528D02*
X0564892Y0078528D01*
X0566490Y0076930D02*
X0521283Y0076930D01*
X0550489Y0068937D02*
X0468977Y0068937D01*
X0468914Y0069000D02*
X0467670Y0069515D01*
X0466324Y0069515D01*
X0465080Y0069000D01*
X0465011Y0068931D01*
X0319920Y0068931D01*
X0319748Y0069347D01*
X0318796Y0070299D01*
X0317552Y0070814D01*
X0316206Y0070814D01*
X0314962Y0070299D01*
X0314010Y0069347D01*
X0313494Y0068103D01*
X0313494Y0066757D01*
X0314010Y0065513D01*
X0314962Y0064561D01*
X0316206Y0064046D01*
X0316303Y0064046D01*
X0316592Y0063757D01*
X0317621Y0063331D01*
X0465011Y0063331D01*
X0465080Y0063262D01*
X0466324Y0062746D01*
X0467670Y0062746D01*
X0468914Y0063262D01*
X0469866Y0064214D01*
X0470381Y0065458D01*
X0470381Y0066804D01*
X0469866Y0068048D01*
X0468914Y0069000D01*
X0470160Y0067339D02*
X0548891Y0067339D01*
X0547292Y0065740D02*
X0470381Y0065740D01*
X0469794Y0064142D02*
X0545694Y0064142D01*
X0544095Y0062543D02*
X0082261Y0062543D01*
X0080841Y0064142D02*
X0315974Y0064142D01*
X0313916Y0065740D02*
X0079261Y0065740D01*
X0077662Y0067339D02*
X0313494Y0067339D01*
X0313840Y0068937D02*
X0076064Y0068937D01*
X0074465Y0070536D02*
X0315533Y0070536D01*
X0318225Y0070536D02*
X0552088Y0070536D01*
X0555212Y0065740D02*
X0783059Y0065740D01*
X0783269Y0065773D02*
X0782522Y0065655D01*
X0781804Y0065422D01*
X0781131Y0065079D01*
X0780519Y0064634D01*
X0779985Y0064100D01*
X0779541Y0063489D01*
X0779198Y0062816D01*
X0778965Y0062097D01*
X0778846Y0061351D01*
X0778846Y0061173D01*
X0786446Y0061173D01*
X0786446Y0060773D01*
X0778846Y0060773D01*
X0778846Y0060595D01*
X0778965Y0059849D01*
X0779198Y0059131D01*
X0779541Y0058457D01*
X0779985Y0057846D01*
X0780519Y0057312D01*
X0781131Y0056868D01*
X0781804Y0056525D01*
X0782522Y0056291D01*
X0783269Y0056173D01*
X0786446Y0056173D01*
X0786446Y0060773D01*
X0786846Y0060773D01*
X0786846Y0056173D01*
X0790024Y0056173D01*
X0790770Y0056291D01*
X0791489Y0056525D01*
X0792162Y0056868D01*
X0792773Y0057312D01*
X0793308Y0057846D01*
X0793752Y0058457D01*
X0794095Y0059131D01*
X0794328Y0059849D01*
X0794446Y0060595D01*
X0794446Y0060773D01*
X0786847Y0060773D01*
X0786847Y0061173D01*
X0794446Y0061173D01*
X0794446Y0061351D01*
X0794328Y0062097D01*
X0794095Y0062816D01*
X0793752Y0063489D01*
X0793308Y0064100D01*
X0792773Y0064634D01*
X0792162Y0065079D01*
X0791489Y0065422D01*
X0790770Y0065655D01*
X0790024Y0065773D01*
X0786846Y0065773D01*
X0786846Y0061173D01*
X0786446Y0061173D01*
X0786446Y0065773D01*
X0783269Y0065773D01*
X0782731Y0066373D02*
X0790561Y0066373D01*
X0792252Y0067074D01*
X0793546Y0068368D01*
X0794246Y0070058D01*
X0794246Y0071888D01*
X0793546Y0073579D01*
X0792252Y0074873D01*
X0790561Y0075573D01*
X0782731Y0075573D01*
X0781041Y0074873D01*
X0779747Y0073579D01*
X0779046Y0071888D01*
X0779046Y0070058D01*
X0779747Y0068368D01*
X0781041Y0067074D01*
X0782731Y0066373D01*
X0780776Y0067339D02*
X0771652Y0067339D01*
X0776810Y0068937D02*
X0779511Y0068937D01*
X0779046Y0070536D02*
X0778278Y0070536D01*
X0778612Y0072134D02*
X0779148Y0072134D01*
X0778612Y0073733D02*
X0779900Y0073733D01*
X0779421Y0075331D02*
X0782147Y0075331D01*
X0781388Y0076930D02*
X0781019Y0076930D01*
X0791146Y0075331D02*
X0847472Y0075331D01*
X0847472Y0073733D02*
X0793392Y0073733D01*
X0794145Y0072134D02*
X0847472Y0072134D01*
X0847472Y0070536D02*
X0794246Y0070536D01*
X0793782Y0068937D02*
X0847472Y0068937D01*
X0847472Y0067339D02*
X0792517Y0067339D01*
X0790234Y0065740D02*
X0847472Y0065740D01*
X0847472Y0064142D02*
X0793266Y0064142D01*
X0794183Y0062543D02*
X0847472Y0062543D01*
X0847472Y0060944D02*
X0786847Y0060944D01*
X0786446Y0060944D02*
X0550416Y0060944D01*
X0548818Y0059346D02*
X0779128Y0059346D01*
X0780084Y0057747D02*
X0547219Y0057747D01*
X0552015Y0062543D02*
X0779109Y0062543D01*
X0780027Y0064142D02*
X0553613Y0064142D01*
X0568089Y0075331D02*
X0071332Y0075331D01*
X0065732Y0075331D02*
X0014553Y0075331D01*
X0014553Y0073733D02*
X0065732Y0073733D01*
X0065732Y0072134D02*
X0014553Y0072134D01*
X0014553Y0070536D02*
X0066546Y0070536D01*
X0068144Y0068937D02*
X0014553Y0068937D01*
X0014553Y0067339D02*
X0069743Y0067339D01*
X0071341Y0065740D02*
X0014553Y0065740D01*
X0014553Y0064142D02*
X0072940Y0064142D01*
X0074538Y0062543D02*
X0014553Y0062543D01*
X0014553Y0060944D02*
X0076022Y0060944D01*
X0077538Y0059346D02*
X0014553Y0059346D01*
X0014553Y0057747D02*
X0079137Y0057747D01*
X0014553Y0056149D02*
X0847472Y0056149D01*
X0847472Y0057747D02*
X0793209Y0057747D01*
X0794165Y0059346D02*
X0847472Y0059346D01*
X0847472Y0054550D02*
X0014553Y0054550D01*
X0014553Y0052952D02*
X0847472Y0052952D01*
X0786846Y0057747D02*
X0786446Y0057747D01*
X0786446Y0059346D02*
X0786846Y0059346D01*
X0786846Y0062543D02*
X0786446Y0062543D01*
X0786446Y0064142D02*
X0786846Y0064142D01*
X0786846Y0065740D02*
X0786446Y0065740D01*
X0791905Y0076930D02*
X0847472Y0076930D01*
X0847472Y0078528D02*
X0793613Y0078528D01*
X0794246Y0080127D02*
X0847472Y0080127D01*
X0847472Y0081725D02*
X0794246Y0081725D01*
X0793652Y0083324D02*
X0847472Y0083324D01*
X0847472Y0084922D02*
X0792133Y0084922D01*
X0805616Y0086521D02*
X0847472Y0086521D01*
X0847472Y0088119D02*
X0807214Y0088119D01*
X0808813Y0089718D02*
X0847472Y0089718D01*
X0847472Y0091316D02*
X0810411Y0091316D01*
X0812010Y0092915D02*
X0847472Y0092915D01*
X0847472Y0094513D02*
X0813608Y0094513D01*
X0815207Y0096112D02*
X0847472Y0096112D01*
X0847472Y0097710D02*
X0816616Y0097710D01*
X0817030Y0099309D02*
X0847472Y0099309D01*
X0847472Y0100907D02*
X0817030Y0100907D01*
X0817030Y0102506D02*
X0847472Y0102506D01*
X0847472Y0104104D02*
X0817030Y0104104D01*
X0817030Y0105703D02*
X0847472Y0105703D01*
X0847472Y0107301D02*
X0817030Y0107301D01*
X0817030Y0108900D02*
X0847472Y0108900D01*
X0847472Y0110498D02*
X0817030Y0110498D01*
X0817030Y0112097D02*
X0847472Y0112097D01*
X0847472Y0113695D02*
X0817030Y0113695D01*
X0817030Y0115294D02*
X0847472Y0115294D01*
X0847472Y0116892D02*
X0817030Y0116892D01*
X0817030Y0118491D02*
X0847472Y0118491D01*
X0847472Y0120089D02*
X0817030Y0120089D01*
X0817030Y0121688D02*
X0847472Y0121688D01*
X0847472Y0123286D02*
X0817030Y0123286D01*
X0817030Y0124885D02*
X0847472Y0124885D01*
X0847472Y0126483D02*
X0817030Y0126483D01*
X0817030Y0128082D02*
X0847472Y0128082D01*
X0847472Y0129680D02*
X0817030Y0129680D01*
X0817030Y0131279D02*
X0847472Y0131279D01*
X0847472Y0132877D02*
X0817030Y0132877D01*
X0817030Y0134476D02*
X0847472Y0134476D01*
X0847472Y0136075D02*
X0817030Y0136075D01*
X0817030Y0137673D02*
X0847472Y0137673D01*
X0847472Y0139272D02*
X0817030Y0139272D01*
X0817030Y0140870D02*
X0847472Y0140870D01*
X0847472Y0142469D02*
X0817030Y0142469D01*
X0817030Y0144067D02*
X0847472Y0144067D01*
X0847472Y0145666D02*
X0817030Y0145666D01*
X0817030Y0147264D02*
X0847472Y0147264D01*
X0847472Y0148863D02*
X0817030Y0148863D01*
X0817030Y0150461D02*
X0847472Y0150461D01*
X0847472Y0152060D02*
X0817030Y0152060D01*
X0817030Y0153658D02*
X0847472Y0153658D01*
X0847472Y0155257D02*
X0817030Y0155257D01*
X0817030Y0156855D02*
X0847472Y0156855D01*
X0847472Y0158454D02*
X0817030Y0158454D01*
X0817030Y0160052D02*
X0847472Y0160052D01*
X0847472Y0161651D02*
X0817030Y0161651D01*
X0817030Y0163249D02*
X0847472Y0163249D01*
X0847472Y0164848D02*
X0817030Y0164848D01*
X0817030Y0166446D02*
X0847472Y0166446D01*
X0847472Y0168045D02*
X0817030Y0168045D01*
X0817030Y0169643D02*
X0847472Y0169643D01*
X0847472Y0171242D02*
X0817030Y0171242D01*
X0817030Y0172840D02*
X0847472Y0172840D01*
X0847472Y0174439D02*
X0817030Y0174439D01*
X0817030Y0176037D02*
X0847472Y0176037D01*
X0847472Y0177636D02*
X0817467Y0177636D01*
X0819066Y0179234D02*
X0847472Y0179234D01*
X0847472Y0180833D02*
X0820664Y0180833D01*
X0822263Y0182431D02*
X0847472Y0182431D01*
X0847472Y0184030D02*
X0823861Y0184030D01*
X0825460Y0185628D02*
X0847472Y0185628D01*
X0847472Y0187227D02*
X0827058Y0187227D01*
X0828657Y0188825D02*
X0847472Y0188825D01*
X0847472Y0190424D02*
X0830255Y0190424D01*
X0831854Y0192022D02*
X0847472Y0192022D01*
X0847472Y0193621D02*
X0833452Y0193621D01*
X0835051Y0195219D02*
X0847472Y0195219D01*
X0847472Y0196818D02*
X0836238Y0196818D01*
X0836494Y0198416D02*
X0847472Y0198416D01*
X0847472Y0200015D02*
X0836494Y0200015D01*
X0836494Y0201613D02*
X0847472Y0201613D01*
X0847472Y0203212D02*
X0836494Y0203212D01*
X0836494Y0204811D02*
X0847472Y0204811D01*
X0847472Y0206409D02*
X0836494Y0206409D01*
X0836494Y0208008D02*
X0847472Y0208008D01*
X0847472Y0209606D02*
X0836494Y0209606D01*
X0836494Y0211205D02*
X0847472Y0211205D01*
X0847472Y0212803D02*
X0836494Y0212803D01*
X0836494Y0214402D02*
X0847472Y0214402D01*
X0847472Y0216000D02*
X0836494Y0216000D01*
X0836494Y0217599D02*
X0847472Y0217599D01*
X0847472Y0219197D02*
X0836494Y0219197D01*
X0836494Y0220796D02*
X0847472Y0220796D01*
X0847472Y0222394D02*
X0836494Y0222394D01*
X0836494Y0223993D02*
X0847472Y0223993D01*
X0847472Y0225591D02*
X0836494Y0225591D01*
X0836635Y0227190D02*
X0847472Y0227190D01*
X0847472Y0228788D02*
X0837069Y0228788D01*
X0837069Y0230387D02*
X0847472Y0230387D01*
X0847472Y0231985D02*
X0837069Y0231985D01*
X0837069Y0233584D02*
X0847472Y0233584D01*
X0847472Y0235182D02*
X0837014Y0235182D01*
X0836235Y0236781D02*
X0847472Y0236781D01*
X0847472Y0238379D02*
X0833756Y0238379D01*
X0832033Y0238379D02*
X0823913Y0238379D01*
X0823882Y0238392D02*
X0822222Y0238392D01*
X0820687Y0237757D01*
X0819513Y0236582D01*
X0818877Y0235048D01*
X0818877Y0228237D01*
X0819513Y0226703D01*
X0820687Y0225528D01*
X0821098Y0225358D01*
X0821098Y0201287D01*
X0800072Y0180260D01*
X0799646Y0179231D01*
X0799646Y0122991D01*
X0796975Y0120320D01*
X0793309Y0120320D01*
X0792209Y0121420D01*
X0790518Y0122120D01*
X0782688Y0122120D01*
X0780997Y0121420D01*
X0779703Y0120126D01*
X0779003Y0118435D01*
X0779003Y0116605D01*
X0779703Y0114915D01*
X0780997Y0113621D01*
X0782688Y0112920D01*
X0790518Y0112920D01*
X0792209Y0113621D01*
X0793309Y0114720D01*
X0798692Y0114720D01*
X0799721Y0115147D01*
X0804032Y0119458D01*
X0804819Y0120245D01*
X0805246Y0121275D01*
X0805246Y0177514D01*
X0826272Y0198541D01*
X0826698Y0199570D01*
X0826698Y0226962D01*
X0827227Y0228237D01*
X0827227Y0235048D01*
X0826591Y0236582D01*
X0825417Y0237757D01*
X0823882Y0238392D01*
X0822190Y0238379D02*
X0814071Y0238379D01*
X0814040Y0238392D02*
X0812379Y0238392D01*
X0810845Y0237757D01*
X0809670Y0236582D01*
X0809035Y0235048D01*
X0809035Y0228237D01*
X0809670Y0226703D01*
X0810409Y0225964D01*
X0810409Y0220478D01*
X0652155Y0220478D01*
X0650949Y0221684D01*
X0649258Y0222384D01*
X0641428Y0222384D01*
X0639738Y0221684D01*
X0638444Y0220390D01*
X0637743Y0218699D01*
X0637743Y0216869D01*
X0638444Y0215179D01*
X0639738Y0213885D01*
X0641428Y0213184D01*
X0649258Y0213184D01*
X0650949Y0213885D01*
X0651942Y0214878D01*
X0812518Y0214878D01*
X0813547Y0215304D01*
X0814335Y0216092D01*
X0815583Y0217340D01*
X0816009Y0218369D01*
X0816009Y0225964D01*
X0816749Y0226703D01*
X0817384Y0228237D01*
X0817384Y0235048D01*
X0816749Y0236582D01*
X0815574Y0237757D01*
X0814040Y0238392D01*
X0812348Y0238379D02*
X0804228Y0238379D01*
X0804197Y0238392D02*
X0802537Y0238392D01*
X0801002Y0237757D01*
X0799828Y0236582D01*
X0799192Y0235048D01*
X0799192Y0228237D01*
X0799828Y0226703D01*
X0801002Y0225528D01*
X0802537Y0224893D01*
X0804197Y0224893D01*
X0805732Y0225528D01*
X0806906Y0226703D01*
X0807542Y0228237D01*
X0807542Y0235048D01*
X0806906Y0236582D01*
X0805732Y0237757D01*
X0804197Y0238392D01*
X0802505Y0238379D02*
X0624550Y0238379D01*
X0624739Y0236781D02*
X0800026Y0236781D01*
X0799248Y0235182D02*
X0624739Y0235182D01*
X0624449Y0233584D02*
X0799192Y0233584D01*
X0799192Y0231985D02*
X0650222Y0231985D01*
X0652244Y0230387D02*
X0799192Y0230387D01*
X0799192Y0228788D02*
X0652906Y0228788D01*
X0652943Y0227190D02*
X0799626Y0227190D01*
X0800939Y0225591D02*
X0652414Y0225591D01*
X0651057Y0223993D02*
X0810409Y0223993D01*
X0810409Y0225591D02*
X0805794Y0225591D01*
X0807108Y0227190D02*
X0809469Y0227190D01*
X0809035Y0228788D02*
X0807542Y0228788D01*
X0807542Y0230387D02*
X0809035Y0230387D01*
X0809035Y0231985D02*
X0807542Y0231985D01*
X0807542Y0233584D02*
X0809035Y0233584D01*
X0809090Y0235182D02*
X0807486Y0235182D01*
X0806708Y0236781D02*
X0809869Y0236781D01*
X0816550Y0236781D02*
X0819711Y0236781D01*
X0818933Y0235182D02*
X0817329Y0235182D01*
X0817384Y0233584D02*
X0818877Y0233584D01*
X0818877Y0231985D02*
X0817384Y0231985D01*
X0817384Y0230387D02*
X0818877Y0230387D01*
X0818877Y0228788D02*
X0817384Y0228788D01*
X0816950Y0227190D02*
X0819311Y0227190D01*
X0820624Y0225591D02*
X0816009Y0225591D01*
X0816009Y0223993D02*
X0821098Y0223993D01*
X0821098Y0222394D02*
X0816009Y0222394D01*
X0816009Y0220796D02*
X0821098Y0220796D01*
X0821098Y0219197D02*
X0816009Y0219197D01*
X0815690Y0217599D02*
X0821098Y0217599D01*
X0821098Y0216000D02*
X0814243Y0216000D01*
X0821098Y0214402D02*
X0651466Y0214402D01*
X0650186Y0212233D02*
X0649467Y0212466D01*
X0648721Y0212584D01*
X0645543Y0212584D01*
X0645543Y0207984D01*
X0645143Y0207984D01*
X0645143Y0207584D01*
X0637543Y0207584D01*
X0637543Y0207406D01*
X0637662Y0206660D01*
X0637895Y0205942D01*
X0638238Y0205269D01*
X0638682Y0204657D01*
X0639216Y0204123D01*
X0639828Y0203679D01*
X0640501Y0203336D01*
X0641219Y0203102D01*
X0641966Y0202984D01*
X0645143Y0202984D01*
X0645143Y0207584D01*
X0645543Y0207584D01*
X0645543Y0202984D01*
X0648721Y0202984D01*
X0649467Y0203102D01*
X0650186Y0203336D01*
X0650859Y0203679D01*
X0651470Y0204123D01*
X0652005Y0204657D01*
X0652449Y0205269D01*
X0652792Y0205942D01*
X0653025Y0206660D01*
X0653143Y0207406D01*
X0653143Y0207584D01*
X0645543Y0207584D01*
X0645543Y0207984D01*
X0653143Y0207984D01*
X0653143Y0208162D01*
X0653025Y0208908D01*
X0652792Y0209627D01*
X0652449Y0210300D01*
X0652005Y0210911D01*
X0651470Y0211445D01*
X0650859Y0211890D01*
X0650186Y0212233D01*
X0651711Y0211205D02*
X0821098Y0211205D01*
X0821098Y0212803D02*
X0511330Y0212803D01*
X0510427Y0211205D02*
X0638975Y0211205D01*
X0639216Y0211445D02*
X0638682Y0210911D01*
X0638238Y0210300D01*
X0637895Y0209627D01*
X0637662Y0208908D01*
X0637543Y0208162D01*
X0637543Y0207984D01*
X0645143Y0207984D01*
X0645143Y0212584D01*
X0641966Y0212584D01*
X0641219Y0212466D01*
X0640501Y0212233D01*
X0639828Y0211890D01*
X0639216Y0211445D01*
X0637888Y0209606D02*
X0510427Y0209606D01*
X0510427Y0208008D02*
X0637543Y0208008D01*
X0637743Y0206409D02*
X0510427Y0206409D01*
X0510427Y0204811D02*
X0638571Y0204811D01*
X0640882Y0203212D02*
X0510427Y0203212D01*
X0510427Y0201613D02*
X0821098Y0201613D01*
X0821098Y0203212D02*
X0649804Y0203212D01*
X0652116Y0204811D02*
X0821098Y0204811D01*
X0821098Y0206409D02*
X0652943Y0206409D01*
X0653143Y0208008D02*
X0821098Y0208008D01*
X0821098Y0209606D02*
X0652798Y0209606D01*
X0645543Y0209606D02*
X0645143Y0209606D01*
X0645143Y0208008D02*
X0645543Y0208008D01*
X0645543Y0206409D02*
X0645143Y0206409D01*
X0645143Y0204811D02*
X0645543Y0204811D01*
X0645543Y0203212D02*
X0645143Y0203212D01*
X0645143Y0211205D02*
X0645543Y0211205D01*
X0639221Y0214402D02*
X0512928Y0214402D01*
X0514527Y0216000D02*
X0638103Y0216000D01*
X0637743Y0217599D02*
X0516125Y0217599D01*
X0517724Y0219197D02*
X0622483Y0219197D01*
X0631589Y0219197D02*
X0637950Y0219197D01*
X0638849Y0220796D02*
X0631589Y0220796D01*
X0631589Y0222394D02*
X0810409Y0222394D01*
X0810409Y0220796D02*
X0651837Y0220796D01*
X0639630Y0223993D02*
X0631589Y0223993D01*
X0631476Y0225591D02*
X0638273Y0225591D01*
X0640465Y0231985D02*
X0631589Y0231985D01*
X0624122Y0239978D02*
X0847472Y0239978D01*
X0829554Y0236781D02*
X0826393Y0236781D01*
X0827171Y0235182D02*
X0828775Y0235182D01*
X0828720Y0233584D02*
X0827227Y0233584D01*
X0827227Y0231985D02*
X0828720Y0231985D01*
X0828720Y0230387D02*
X0827227Y0230387D01*
X0827227Y0228788D02*
X0828720Y0228788D01*
X0829154Y0227190D02*
X0826793Y0227190D01*
X0826698Y0225591D02*
X0829294Y0225591D01*
X0829294Y0223993D02*
X0826698Y0223993D01*
X0826698Y0222394D02*
X0829294Y0222394D01*
X0829294Y0220796D02*
X0826698Y0220796D01*
X0826698Y0219197D02*
X0829294Y0219197D01*
X0829294Y0217599D02*
X0826698Y0217599D01*
X0826698Y0216000D02*
X0829294Y0216000D01*
X0829294Y0214402D02*
X0826698Y0214402D01*
X0826698Y0212803D02*
X0829294Y0212803D01*
X0829294Y0211205D02*
X0826698Y0211205D01*
X0826698Y0209606D02*
X0829294Y0209606D01*
X0829294Y0208008D02*
X0826698Y0208008D01*
X0826698Y0206409D02*
X0829294Y0206409D01*
X0829294Y0204811D02*
X0826698Y0204811D01*
X0826698Y0203212D02*
X0829294Y0203212D01*
X0829294Y0201613D02*
X0826698Y0201613D01*
X0826698Y0200015D02*
X0829294Y0200015D01*
X0828065Y0198416D02*
X0826148Y0198416D01*
X0826467Y0196818D02*
X0824549Y0196818D01*
X0824868Y0195219D02*
X0822951Y0195219D01*
X0823270Y0193621D02*
X0821352Y0193621D01*
X0821671Y0192022D02*
X0819754Y0192022D01*
X0820073Y0190424D02*
X0818155Y0190424D01*
X0818474Y0188825D02*
X0816557Y0188825D01*
X0816876Y0187227D02*
X0814958Y0187227D01*
X0815277Y0185628D02*
X0813360Y0185628D01*
X0813679Y0184030D02*
X0811761Y0184030D01*
X0812080Y0182431D02*
X0810163Y0182431D01*
X0810482Y0180833D02*
X0808564Y0180833D01*
X0809830Y0179234D02*
X0806966Y0179234D01*
X0805367Y0177636D02*
X0809830Y0177636D01*
X0809830Y0176037D02*
X0805246Y0176037D01*
X0805246Y0174439D02*
X0809830Y0174439D01*
X0809830Y0172840D02*
X0805246Y0172840D01*
X0805246Y0171242D02*
X0809830Y0171242D01*
X0809830Y0169643D02*
X0805246Y0169643D01*
X0805246Y0168045D02*
X0809830Y0168045D01*
X0809830Y0166446D02*
X0805246Y0166446D01*
X0805246Y0164848D02*
X0809830Y0164848D01*
X0809830Y0163249D02*
X0805246Y0163249D01*
X0805246Y0161651D02*
X0809830Y0161651D01*
X0809830Y0160052D02*
X0805246Y0160052D01*
X0805246Y0158454D02*
X0809830Y0158454D01*
X0809830Y0156855D02*
X0805246Y0156855D01*
X0805246Y0155257D02*
X0809830Y0155257D01*
X0809830Y0153658D02*
X0805246Y0153658D01*
X0805246Y0152060D02*
X0809830Y0152060D01*
X0809830Y0150461D02*
X0805246Y0150461D01*
X0805246Y0148863D02*
X0809830Y0148863D01*
X0809830Y0147264D02*
X0805246Y0147264D01*
X0805246Y0145666D02*
X0809830Y0145666D01*
X0809830Y0144067D02*
X0805246Y0144067D01*
X0805246Y0142469D02*
X0809830Y0142469D01*
X0809830Y0140870D02*
X0805246Y0140870D01*
X0805246Y0139272D02*
X0809830Y0139272D01*
X0809830Y0137673D02*
X0805246Y0137673D01*
X0805246Y0136075D02*
X0809830Y0136075D01*
X0809830Y0134476D02*
X0805246Y0134476D01*
X0805246Y0132877D02*
X0809830Y0132877D01*
X0809830Y0131279D02*
X0805246Y0131279D01*
X0805246Y0129680D02*
X0809830Y0129680D01*
X0809830Y0128082D02*
X0805246Y0128082D01*
X0805246Y0126483D02*
X0809830Y0126483D01*
X0809830Y0124885D02*
X0805246Y0124885D01*
X0805246Y0123286D02*
X0809830Y0123286D01*
X0809830Y0121688D02*
X0805246Y0121688D01*
X0804663Y0120089D02*
X0809830Y0120089D01*
X0809830Y0118491D02*
X0803065Y0118491D01*
X0801466Y0116892D02*
X0809830Y0116892D01*
X0809830Y0115294D02*
X0799868Y0115294D01*
X0792283Y0113695D02*
X0809830Y0113695D01*
X0809830Y0112097D02*
X0791052Y0112097D01*
X0790727Y0112202D02*
X0791446Y0111969D01*
X0792119Y0111626D01*
X0792730Y0111182D01*
X0793264Y0110647D01*
X0793708Y0110036D01*
X0794051Y0109363D01*
X0794285Y0108644D01*
X0794403Y0107898D01*
X0794403Y0107720D01*
X0786803Y0107720D01*
X0786803Y0107320D01*
X0786803Y0102720D01*
X0789981Y0102720D01*
X0790727Y0102839D01*
X0791446Y0103072D01*
X0792119Y0103415D01*
X0792730Y0103859D01*
X0793264Y0104393D01*
X0793708Y0105005D01*
X0794051Y0105678D01*
X0794285Y0106396D01*
X0794403Y0107143D01*
X0794403Y0107320D01*
X0786803Y0107320D01*
X0786403Y0107320D01*
X0786403Y0102720D01*
X0783225Y0102720D01*
X0782479Y0102839D01*
X0781761Y0103072D01*
X0781087Y0103415D01*
X0780476Y0103859D01*
X0779942Y0104393D01*
X0779498Y0105005D01*
X0779155Y0105678D01*
X0778921Y0106396D01*
X0778803Y0107143D01*
X0778803Y0107320D01*
X0786403Y0107320D01*
X0786403Y0107720D01*
X0778803Y0107720D01*
X0778803Y0107898D01*
X0778921Y0108644D01*
X0779155Y0109363D01*
X0779498Y0110036D01*
X0779942Y0110647D01*
X0780476Y0111182D01*
X0781087Y0111626D01*
X0781761Y0111969D01*
X0782479Y0112202D01*
X0783225Y0112320D01*
X0786403Y0112320D01*
X0786403Y0107721D01*
X0786803Y0107721D01*
X0786803Y0112320D01*
X0789981Y0112320D01*
X0790727Y0112202D01*
X0793373Y0110498D02*
X0809830Y0110498D01*
X0809830Y0108900D02*
X0794202Y0108900D01*
X0794403Y0107301D02*
X0809830Y0107301D01*
X0809830Y0105703D02*
X0794060Y0105703D01*
X0792975Y0104104D02*
X0809830Y0104104D01*
X0809830Y0102506D02*
X0716502Y0102506D01*
X0716502Y0104104D02*
X0780231Y0104104D01*
X0779147Y0105703D02*
X0716502Y0105703D01*
X0716502Y0107301D02*
X0778803Y0107301D01*
X0779004Y0108900D02*
X0716502Y0108900D01*
X0716502Y0110498D02*
X0779834Y0110498D01*
X0782155Y0112097D02*
X0665933Y0112097D01*
X0664334Y0113695D02*
X0675209Y0113695D01*
X0675413Y0113491D02*
X0674476Y0114429D01*
X0674476Y0121691D01*
X0675413Y0122628D01*
X0682675Y0122628D01*
X0683613Y0121691D01*
X0683613Y0114429D01*
X0682675Y0113491D01*
X0675413Y0113491D01*
X0674476Y0115294D02*
X0552807Y0115294D01*
X0551208Y0116892D02*
X0674476Y0116892D01*
X0674476Y0118491D02*
X0549610Y0118491D01*
X0543020Y0123286D02*
X0675329Y0123286D01*
X0675381Y0123257D02*
X0675839Y0123134D01*
X0678860Y0123134D01*
X0678860Y0127718D01*
X0679228Y0127718D01*
X0679228Y0123134D01*
X0682250Y0123134D01*
X0682707Y0123257D01*
X0683118Y0123493D01*
X0683453Y0123829D01*
X0683690Y0124239D01*
X0683813Y0124697D01*
X0683813Y0127718D01*
X0679228Y0127718D01*
X0679228Y0128087D01*
X0678860Y0128087D01*
X0678860Y0127718D01*
X0674276Y0127718D01*
X0674276Y0124697D01*
X0674398Y0124239D01*
X0674635Y0123829D01*
X0674970Y0123493D01*
X0675381Y0123257D01*
X0674476Y0121688D02*
X0483471Y0121688D01*
X0483471Y0123286D02*
X0486485Y0123286D01*
X0485153Y0124619D02*
X0487847Y0121924D01*
X0491658Y0121924D01*
X0494353Y0124619D01*
X0494353Y0128430D01*
X0491658Y0131124D01*
X0487847Y0131124D01*
X0485153Y0128430D01*
X0485153Y0124619D01*
X0485153Y0124885D02*
X0484353Y0124885D01*
X0484353Y0126483D02*
X0485153Y0126483D01*
X0485153Y0128082D02*
X0484353Y0128082D01*
X0483102Y0129680D02*
X0486403Y0129680D01*
X0487847Y0131924D02*
X0491658Y0131924D01*
X0494353Y0134619D01*
X0494353Y0138430D01*
X0491658Y0141124D01*
X0487847Y0141124D01*
X0485153Y0138430D01*
X0485153Y0134619D01*
X0487847Y0131924D01*
X0486894Y0132877D02*
X0482611Y0132877D01*
X0484210Y0134476D02*
X0485296Y0134476D01*
X0485153Y0136075D02*
X0484353Y0136075D01*
X0484353Y0137673D02*
X0485153Y0137673D01*
X0485995Y0139272D02*
X0483511Y0139272D01*
X0481912Y0140870D02*
X0487593Y0140870D01*
X0491912Y0140870D02*
X0497310Y0140870D01*
X0497765Y0141324D02*
X0494953Y0138513D01*
X0494953Y0136724D01*
X0499553Y0136724D01*
X0499553Y0136324D01*
X0499953Y0136324D01*
X0499953Y0131724D01*
X0501741Y0131724D01*
X0504553Y0134536D01*
X0504553Y0136324D01*
X0499953Y0136324D01*
X0499953Y0136724D01*
X0504553Y0136724D01*
X0504553Y0138513D01*
X0501741Y0141324D01*
X0499953Y0141324D01*
X0499953Y0136724D01*
X0499553Y0136724D01*
X0499553Y0141324D01*
X0497765Y0141324D01*
X0499553Y0140870D02*
X0499953Y0140870D01*
X0499953Y0139272D02*
X0499553Y0139272D01*
X0499553Y0137673D02*
X0499953Y0137673D01*
X0499553Y0136324D02*
X0494953Y0136324D01*
X0494953Y0134536D01*
X0497765Y0131724D01*
X0499553Y0131724D01*
X0499553Y0136324D01*
X0499553Y0136075D02*
X0499953Y0136075D01*
X0499953Y0134476D02*
X0499553Y0134476D01*
X0499553Y0132877D02*
X0499953Y0132877D01*
X0501658Y0131124D02*
X0497847Y0131124D01*
X0495153Y0128430D01*
X0495153Y0124619D01*
X0497847Y0121924D01*
X0501658Y0121924D01*
X0504353Y0124619D01*
X0504353Y0128430D01*
X0501658Y0131124D01*
X0503102Y0129680D02*
X0506403Y0129680D01*
X0505153Y0128430D02*
X0505153Y0124619D01*
X0507847Y0121924D01*
X0511658Y0121924D01*
X0514353Y0124619D01*
X0514353Y0128430D01*
X0511658Y0131124D01*
X0507847Y0131124D01*
X0505153Y0128430D01*
X0505153Y0128082D02*
X0504353Y0128082D01*
X0504353Y0126483D02*
X0505153Y0126483D01*
X0505153Y0124885D02*
X0504353Y0124885D01*
X0503020Y0123286D02*
X0506485Y0123286D01*
X0513020Y0123286D02*
X0516485Y0123286D01*
X0515153Y0124619D02*
X0517847Y0121924D01*
X0521658Y0121924D01*
X0524353Y0124619D01*
X0524353Y0128430D01*
X0521658Y0131124D01*
X0517847Y0131124D01*
X0515153Y0128430D01*
X0515153Y0124619D01*
X0515153Y0124885D02*
X0514353Y0124885D01*
X0514353Y0126483D02*
X0515153Y0126483D01*
X0515153Y0128082D02*
X0514353Y0128082D01*
X0513102Y0129680D02*
X0516403Y0129680D01*
X0517847Y0131924D02*
X0521658Y0131924D01*
X0524353Y0134619D01*
X0524353Y0138430D01*
X0521658Y0141124D01*
X0517847Y0141124D01*
X0515153Y0138430D01*
X0515153Y0134619D01*
X0517847Y0131924D01*
X0516894Y0132877D02*
X0512611Y0132877D01*
X0514210Y0134476D02*
X0515296Y0134476D01*
X0515153Y0136075D02*
X0514353Y0136075D01*
X0514353Y0137673D02*
X0515153Y0137673D01*
X0515995Y0139272D02*
X0513511Y0139272D01*
X0512553Y0140870D02*
X0517593Y0140870D01*
X0521912Y0140870D02*
X0527593Y0140870D01*
X0527847Y0141124D02*
X0525153Y0138430D01*
X0525153Y0134619D01*
X0527847Y0131924D01*
X0531658Y0131924D01*
X0534353Y0134619D01*
X0534353Y0138430D01*
X0531658Y0141124D01*
X0527847Y0141124D01*
X0525995Y0139272D02*
X0523511Y0139272D01*
X0524353Y0137673D02*
X0525153Y0137673D01*
X0525153Y0136075D02*
X0524353Y0136075D01*
X0524210Y0134476D02*
X0525296Y0134476D01*
X0526894Y0132877D02*
X0522611Y0132877D01*
X0525153Y0128430D02*
X0527847Y0131124D01*
X0531658Y0131124D01*
X0534353Y0128430D01*
X0534353Y0124619D01*
X0531658Y0121924D01*
X0527847Y0121924D01*
X0525153Y0124619D01*
X0525153Y0128430D01*
X0525153Y0128082D02*
X0524353Y0128082D01*
X0524353Y0126483D02*
X0525153Y0126483D01*
X0525153Y0124885D02*
X0524353Y0124885D01*
X0523020Y0123286D02*
X0526485Y0123286D01*
X0533020Y0123286D02*
X0536485Y0123286D01*
X0535153Y0124885D02*
X0534353Y0124885D01*
X0534353Y0126483D02*
X0535153Y0126483D01*
X0535153Y0128082D02*
X0534353Y0128082D01*
X0533102Y0129680D02*
X0536403Y0129680D01*
X0544353Y0128082D02*
X0678860Y0128082D01*
X0679228Y0128087D02*
X0679228Y0132671D01*
X0682250Y0132671D01*
X0682707Y0132548D01*
X0683118Y0132311D01*
X0683453Y0131976D01*
X0683690Y0131566D01*
X0683813Y0131108D01*
X0683813Y0128087D01*
X0679228Y0128087D01*
X0679228Y0128082D02*
X0762074Y0128082D01*
X0762074Y0129680D02*
X0683813Y0129680D01*
X0683767Y0131279D02*
X0762074Y0131279D01*
X0771180Y0131279D02*
X0780856Y0131279D01*
X0771180Y0132877D02*
X0799646Y0132877D01*
X0799646Y0131279D02*
X0792350Y0131279D01*
X0793687Y0129680D02*
X0799646Y0129680D01*
X0799646Y0128082D02*
X0794203Y0128082D01*
X0794153Y0126483D02*
X0799646Y0126483D01*
X0799646Y0124885D02*
X0793473Y0124885D01*
X0791402Y0123286D02*
X0799646Y0123286D01*
X0798342Y0121688D02*
X0791562Y0121688D01*
X0781805Y0123286D02*
X0682759Y0123286D01*
X0683613Y0121688D02*
X0731475Y0121688D01*
X0731485Y0121723D02*
X0731362Y0121265D01*
X0731362Y0118244D01*
X0735946Y0118244D01*
X0735946Y0117876D01*
X0731362Y0117876D01*
X0731362Y0114854D01*
X0731485Y0114397D01*
X0731722Y0113986D01*
X0732057Y0113651D01*
X0732467Y0113414D01*
X0732925Y0113291D01*
X0735946Y0113291D01*
X0735946Y0117876D01*
X0736315Y0117876D01*
X0736315Y0118244D01*
X0740899Y0118244D01*
X0740899Y0121265D01*
X0740777Y0121723D01*
X0740540Y0122134D01*
X0740204Y0122469D01*
X0739794Y0122706D01*
X0739336Y0122828D01*
X0736315Y0122828D01*
X0736315Y0118244D01*
X0735946Y0118244D01*
X0735946Y0122828D01*
X0732925Y0122828D01*
X0732467Y0122706D01*
X0732057Y0122469D01*
X0731722Y0122134D01*
X0731485Y0121723D01*
X0731362Y0120089D02*
X0683613Y0120089D01*
X0683613Y0118491D02*
X0731362Y0118491D01*
X0731362Y0116892D02*
X0683613Y0116892D01*
X0683613Y0115294D02*
X0731362Y0115294D01*
X0732013Y0113695D02*
X0682879Y0113695D01*
X0670728Y0107301D02*
X0700641Y0107301D01*
X0700641Y0105703D02*
X0672327Y0105703D01*
X0673925Y0104104D02*
X0700641Y0104104D01*
X0700641Y0102506D02*
X0675524Y0102506D01*
X0677122Y0100907D02*
X0700641Y0100907D01*
X0700641Y0099309D02*
X0678721Y0099309D01*
X0680319Y0097710D02*
X0700641Y0097710D01*
X0700641Y0096893D02*
X0701578Y0095956D01*
X0715565Y0095956D01*
X0716502Y0096893D01*
X0716502Y0110880D01*
X0715565Y0111817D01*
X0701578Y0111817D01*
X0700641Y0110880D01*
X0700641Y0096893D01*
X0701422Y0096112D02*
X0681918Y0096112D01*
X0683517Y0094513D02*
X0803426Y0094513D01*
X0805025Y0096112D02*
X0715721Y0096112D01*
X0716502Y0097710D02*
X0806623Y0097710D01*
X0808222Y0099309D02*
X0716502Y0099309D01*
X0716502Y0100907D02*
X0809820Y0100907D01*
X0786803Y0104104D02*
X0786403Y0104104D01*
X0786403Y0105703D02*
X0786803Y0105703D01*
X0786803Y0107301D02*
X0786403Y0107301D01*
X0786403Y0108900D02*
X0786803Y0108900D01*
X0786803Y0110498D02*
X0786403Y0110498D01*
X0786403Y0112097D02*
X0786803Y0112097D01*
X0780923Y0113695D02*
X0740249Y0113695D01*
X0740204Y0113651D02*
X0740540Y0113986D01*
X0740777Y0114397D01*
X0740899Y0114854D01*
X0740899Y0117876D01*
X0736315Y0117876D01*
X0736315Y0113291D01*
X0739336Y0113291D01*
X0739794Y0113414D01*
X0740204Y0113651D01*
X0740899Y0115294D02*
X0779546Y0115294D01*
X0779003Y0116892D02*
X0740899Y0116892D01*
X0740899Y0118491D02*
X0779026Y0118491D01*
X0779688Y0120089D02*
X0740899Y0120089D01*
X0740786Y0121688D02*
X0781644Y0121688D01*
X0762074Y0124885D02*
X0683813Y0124885D01*
X0683813Y0126483D02*
X0762074Y0126483D01*
X0771180Y0134476D02*
X0799646Y0134476D01*
X0799646Y0136075D02*
X0771180Y0136075D01*
X0770957Y0137673D02*
X0799646Y0137673D01*
X0799646Y0139272D02*
X0769498Y0139272D01*
X0769498Y0140870D02*
X0799646Y0140870D01*
X0799646Y0142469D02*
X0769498Y0142469D01*
X0769498Y0144067D02*
X0799646Y0144067D01*
X0799646Y0145666D02*
X0769498Y0145666D01*
X0769461Y0147264D02*
X0799646Y0147264D01*
X0799646Y0148863D02*
X0768414Y0148863D01*
X0766815Y0150461D02*
X0799646Y0150461D01*
X0799646Y0152060D02*
X0765217Y0152060D01*
X0763618Y0153658D02*
X0799646Y0153658D01*
X0799646Y0155257D02*
X0762020Y0155257D01*
X0760421Y0156855D02*
X0799646Y0156855D01*
X0799646Y0158454D02*
X0758823Y0158454D01*
X0757224Y0160052D02*
X0799646Y0160052D01*
X0799646Y0161651D02*
X0755626Y0161651D01*
X0754027Y0163249D02*
X0799646Y0163249D01*
X0799646Y0164848D02*
X0752429Y0164848D01*
X0750830Y0166446D02*
X0799646Y0166446D01*
X0799646Y0168045D02*
X0748991Y0168045D01*
X0747706Y0161651D02*
X0416254Y0161651D01*
X0416254Y0163249D02*
X0485289Y0163249D01*
X0484439Y0164848D02*
X0416254Y0164848D01*
X0416254Y0166446D02*
X0484552Y0166446D01*
X0485582Y0168045D02*
X0416254Y0168045D01*
X0416254Y0169643D02*
X0505234Y0169643D01*
X0504316Y0171242D02*
X0416254Y0171242D01*
X0416254Y0172840D02*
X0504352Y0172840D01*
X0504827Y0174439D02*
X0416254Y0174439D01*
X0416254Y0176037D02*
X0504827Y0176037D01*
X0504827Y0177636D02*
X0416254Y0177636D01*
X0416254Y0179234D02*
X0504827Y0179234D01*
X0504827Y0180833D02*
X0416254Y0180833D01*
X0416254Y0182431D02*
X0504827Y0182431D01*
X0504827Y0184030D02*
X0416048Y0184030D01*
X0414762Y0185628D02*
X0504827Y0185628D01*
X0504827Y0187227D02*
X0413164Y0187227D01*
X0411565Y0188825D02*
X0504827Y0188825D01*
X0504827Y0190424D02*
X0409967Y0190424D01*
X0407936Y0192022D02*
X0504827Y0192022D01*
X0504827Y0193621D02*
X0328498Y0193621D01*
X0326899Y0195219D02*
X0504827Y0195219D01*
X0504827Y0196818D02*
X0325301Y0196818D01*
X0323702Y0198416D02*
X0384813Y0198416D01*
X0383557Y0200015D02*
X0322104Y0200015D01*
X0320505Y0201613D02*
X0383302Y0201613D01*
X0383813Y0203212D02*
X0318907Y0203212D01*
X0317308Y0204811D02*
X0383886Y0204811D01*
X0383886Y0206409D02*
X0315710Y0206409D01*
X0314111Y0208008D02*
X0383886Y0208008D01*
X0383886Y0209606D02*
X0312513Y0209606D01*
X0310914Y0211205D02*
X0383886Y0211205D01*
X0383886Y0212803D02*
X0309439Y0212803D01*
X0309439Y0214402D02*
X0383886Y0214402D01*
X0383886Y0216000D02*
X0309439Y0216000D01*
X0309439Y0217599D02*
X0383886Y0217599D01*
X0383886Y0219197D02*
X0309439Y0219197D01*
X0309439Y0220796D02*
X0383886Y0220796D01*
X0383886Y0222394D02*
X0309439Y0222394D01*
X0309439Y0223993D02*
X0383886Y0223993D01*
X0383886Y0225591D02*
X0309439Y0225591D01*
X0309439Y0227190D02*
X0314389Y0227190D01*
X0312296Y0228788D02*
X0311067Y0228788D01*
X0303839Y0227190D02*
X0298975Y0227190D01*
X0301067Y0228788D02*
X0302296Y0228788D01*
X0303839Y0225591D02*
X0290282Y0225591D01*
X0290282Y0223993D02*
X0303839Y0223993D01*
X0303839Y0222394D02*
X0290282Y0222394D01*
X0290282Y0220796D02*
X0303839Y0220796D01*
X0303839Y0219197D02*
X0290282Y0219197D01*
X0290683Y0217599D02*
X0303839Y0217599D01*
X0303839Y0216000D02*
X0290683Y0216000D01*
X0290683Y0214402D02*
X0303839Y0214402D01*
X0303839Y0212803D02*
X0290683Y0212803D01*
X0290683Y0211205D02*
X0303839Y0211205D01*
X0304593Y0209606D02*
X0290400Y0209606D01*
X0290400Y0208008D02*
X0306192Y0208008D01*
X0307790Y0206409D02*
X0290400Y0206409D01*
X0290400Y0204811D02*
X0309389Y0204811D01*
X0310987Y0203212D02*
X0290400Y0203212D01*
X0291684Y0201613D02*
X0312586Y0201613D01*
X0314184Y0200015D02*
X0293282Y0200015D01*
X0294881Y0198416D02*
X0315783Y0198416D01*
X0317381Y0196818D02*
X0296480Y0196818D01*
X0298078Y0195219D02*
X0318980Y0195219D01*
X0320578Y0193621D02*
X0299677Y0193621D01*
X0301275Y0192022D02*
X0322177Y0192022D01*
X0323775Y0190424D02*
X0302874Y0190424D01*
X0304472Y0188825D02*
X0325374Y0188825D01*
X0326972Y0187227D02*
X0306071Y0187227D01*
X0307669Y0185628D02*
X0406843Y0185628D01*
X0408441Y0184030D02*
X0309268Y0184030D01*
X0310866Y0182431D02*
X0410040Y0182431D01*
X0410654Y0180833D02*
X0312465Y0180833D01*
X0314063Y0179234D02*
X0410654Y0179234D01*
X0410654Y0177636D02*
X0315662Y0177636D01*
X0317260Y0176037D02*
X0410654Y0176037D01*
X0410654Y0174439D02*
X0318859Y0174439D01*
X0320457Y0172840D02*
X0390838Y0172840D01*
X0390813Y0172815D02*
X0390298Y0171572D01*
X0390298Y0171413D01*
X0390254Y0171307D01*
X0390254Y0170034D01*
X0390654Y0169068D01*
X0390654Y0140230D01*
X0388854Y0138430D01*
X0388854Y0134619D01*
X0391548Y0131924D01*
X0395359Y0131924D01*
X0398054Y0134619D01*
X0398054Y0138430D01*
X0396254Y0140230D01*
X0396254Y0168684D01*
X0396551Y0168981D01*
X0397066Y0170225D01*
X0397066Y0171572D01*
X0396551Y0172815D01*
X0395599Y0173767D01*
X0394355Y0174283D01*
X0393009Y0174283D01*
X0391765Y0173767D01*
X0390813Y0172815D01*
X0390254Y0171242D02*
X0322056Y0171242D01*
X0323654Y0169643D02*
X0390415Y0169643D01*
X0390654Y0168045D02*
X0325253Y0168045D01*
X0326851Y0166446D02*
X0390654Y0166446D01*
X0390654Y0164848D02*
X0328450Y0164848D01*
X0330048Y0163249D02*
X0390654Y0163249D01*
X0390654Y0161651D02*
X0331647Y0161651D01*
X0333245Y0160052D02*
X0390654Y0160052D01*
X0390654Y0158454D02*
X0334844Y0158454D01*
X0336442Y0156855D02*
X0390654Y0156855D01*
X0390654Y0155257D02*
X0338041Y0155257D01*
X0339639Y0153658D02*
X0390654Y0153658D01*
X0390654Y0152060D02*
X0341238Y0152060D01*
X0342836Y0150461D02*
X0390654Y0150461D01*
X0390654Y0148863D02*
X0344435Y0148863D01*
X0346033Y0147264D02*
X0390654Y0147264D01*
X0390654Y0145666D02*
X0347632Y0145666D01*
X0349230Y0144067D02*
X0390654Y0144067D01*
X0390654Y0142469D02*
X0350829Y0142469D01*
X0352427Y0140870D02*
X0381294Y0140870D01*
X0385613Y0140870D02*
X0390654Y0140870D01*
X0389695Y0139272D02*
X0387212Y0139272D01*
X0388054Y0137673D02*
X0388854Y0137673D01*
X0388854Y0136075D02*
X0388054Y0136075D01*
X0387911Y0134476D02*
X0388997Y0134476D01*
X0390595Y0132877D02*
X0386312Y0132877D01*
X0396312Y0132877D02*
X0400595Y0132877D01*
X0401548Y0131924D02*
X0398854Y0134619D01*
X0398854Y0138430D01*
X0401548Y0141124D01*
X0405359Y0141124D01*
X0408054Y0138430D01*
X0408054Y0134619D01*
X0405359Y0131924D01*
X0401548Y0131924D01*
X0401548Y0131124D02*
X0398854Y0128430D01*
X0398854Y0124619D01*
X0401548Y0121924D01*
X0405359Y0121924D01*
X0408054Y0124619D01*
X0408054Y0128430D01*
X0405359Y0131124D01*
X0401548Y0131124D01*
X0400104Y0129680D02*
X0396803Y0129680D01*
X0398054Y0128082D02*
X0398854Y0128082D01*
X0398854Y0126483D02*
X0398054Y0126483D01*
X0398054Y0124885D02*
X0398854Y0124885D01*
X0400186Y0123286D02*
X0396721Y0123286D01*
X0406721Y0123286D02*
X0410186Y0123286D01*
X0408854Y0124885D02*
X0408054Y0124885D01*
X0408054Y0126483D02*
X0408854Y0126483D01*
X0408854Y0128082D02*
X0408054Y0128082D01*
X0406803Y0129680D02*
X0410104Y0129680D01*
X0410595Y0132877D02*
X0406312Y0132877D01*
X0407911Y0134476D02*
X0408997Y0134476D01*
X0408854Y0136075D02*
X0408054Y0136075D01*
X0408054Y0137673D02*
X0408854Y0137673D01*
X0409695Y0139272D02*
X0407212Y0139272D01*
X0405613Y0140870D02*
X0410654Y0140870D01*
X0410654Y0142469D02*
X0396254Y0142469D01*
X0396254Y0144067D02*
X0410654Y0144067D01*
X0410654Y0145666D02*
X0396254Y0145666D01*
X0396254Y0147264D02*
X0410654Y0147264D01*
X0410654Y0148863D02*
X0396254Y0148863D01*
X0396254Y0150461D02*
X0410654Y0150461D01*
X0410654Y0152060D02*
X0396254Y0152060D01*
X0396254Y0153658D02*
X0410654Y0153658D01*
X0410654Y0155257D02*
X0396254Y0155257D01*
X0396254Y0156855D02*
X0410654Y0156855D01*
X0410654Y0158454D02*
X0396254Y0158454D01*
X0396254Y0160052D02*
X0410654Y0160052D01*
X0410654Y0161651D02*
X0396254Y0161651D01*
X0396254Y0163249D02*
X0410654Y0163249D01*
X0410654Y0164848D02*
X0396254Y0164848D01*
X0396254Y0166446D02*
X0410654Y0166446D01*
X0410654Y0168045D02*
X0396254Y0168045D01*
X0396825Y0169643D02*
X0410654Y0169643D01*
X0410654Y0171242D02*
X0397066Y0171242D01*
X0396526Y0172840D02*
X0410654Y0172840D01*
X0467885Y0150461D02*
X0470950Y0150461D01*
X0469352Y0148863D02*
X0466287Y0148863D01*
X0467753Y0147264D02*
X0464688Y0147264D01*
X0466155Y0145666D02*
X0463090Y0145666D01*
X0464556Y0144067D02*
X0461491Y0144067D01*
X0462958Y0142469D02*
X0459893Y0142469D01*
X0461359Y0140870D02*
X0458294Y0140870D01*
X0459761Y0139272D02*
X0456696Y0139272D01*
X0458162Y0137673D02*
X0455097Y0137673D01*
X0456564Y0136075D02*
X0453499Y0136075D01*
X0454965Y0134476D02*
X0451900Y0134476D01*
X0453367Y0132877D02*
X0426312Y0132877D01*
X0401294Y0140870D02*
X0396254Y0140870D01*
X0397212Y0139272D02*
X0399695Y0139272D01*
X0398854Y0137673D02*
X0398054Y0137673D01*
X0398054Y0136075D02*
X0398854Y0136075D01*
X0398997Y0134476D02*
X0397911Y0134476D01*
X0390104Y0129680D02*
X0387086Y0129680D01*
X0388254Y0128082D02*
X0388854Y0128082D01*
X0379821Y0129680D02*
X0351110Y0129680D01*
X0349512Y0128082D02*
X0378654Y0128082D01*
X0347181Y0135934D02*
X0322868Y0111620D01*
X0241143Y0111620D01*
X0242112Y0113960D01*
X0242112Y0225869D01*
X0242738Y0225507D01*
X0245648Y0224728D01*
X0248661Y0224728D01*
X0251571Y0225507D01*
X0254180Y0227014D01*
X0256311Y0229144D01*
X0257817Y0231753D01*
X0258597Y0234664D01*
X0258597Y0237677D01*
X0257817Y0240587D01*
X0257456Y0241213D01*
X0271048Y0241213D01*
X0270945Y0240559D01*
X0270945Y0236354D01*
X0276498Y0236354D01*
X0276498Y0235986D01*
X0276866Y0235986D01*
X0276866Y0226496D01*
X0277133Y0226496D01*
X0278025Y0226637D01*
X0278884Y0226916D01*
X0279689Y0227326D01*
X0280419Y0227857D01*
X0281058Y0228496D01*
X0281589Y0229226D01*
X0281779Y0229600D01*
X0281988Y0229097D01*
X0283082Y0228003D01*
X0283082Y0218849D01*
X0282926Y0218692D01*
X0282708Y0218910D01*
X0282298Y0219147D01*
X0281840Y0219269D01*
X0279524Y0219269D01*
X0279524Y0214996D01*
X0278565Y0214996D01*
X0278565Y0219269D01*
X0276248Y0219269D01*
X0275790Y0219147D01*
X0275380Y0218910D01*
X0275045Y0218575D01*
X0274808Y0218164D01*
X0274685Y0217706D01*
X0274685Y0214996D01*
X0278564Y0214996D01*
X0278564Y0214037D01*
X0274685Y0214037D01*
X0274685Y0211327D01*
X0274808Y0210869D01*
X0275045Y0210459D01*
X0275380Y0210123D01*
X0275790Y0209886D01*
X0276248Y0209764D01*
X0278565Y0209764D01*
X0278565Y0214037D01*
X0279524Y0214037D01*
X0279524Y0209764D01*
X0281840Y0209764D01*
X0282298Y0209886D01*
X0282708Y0210123D01*
X0282926Y0210341D01*
X0283200Y0210066D01*
X0283200Y0200690D01*
X0283748Y0199367D01*
X0347181Y0135934D01*
X0347041Y0136075D02*
X0242112Y0136075D01*
X0242112Y0137673D02*
X0345442Y0137673D01*
X0343844Y0139272D02*
X0242112Y0139272D01*
X0242112Y0140870D02*
X0342245Y0140870D01*
X0340647Y0142469D02*
X0242112Y0142469D01*
X0242112Y0144067D02*
X0339048Y0144067D01*
X0337450Y0145666D02*
X0242112Y0145666D01*
X0242112Y0147264D02*
X0335851Y0147264D01*
X0334253Y0148863D02*
X0242112Y0148863D01*
X0242112Y0150461D02*
X0332654Y0150461D01*
X0331055Y0152060D02*
X0242112Y0152060D01*
X0242112Y0153658D02*
X0329457Y0153658D01*
X0327858Y0155257D02*
X0242112Y0155257D01*
X0242112Y0156855D02*
X0326260Y0156855D01*
X0324661Y0158454D02*
X0242112Y0158454D01*
X0242112Y0160052D02*
X0323063Y0160052D01*
X0321464Y0161651D02*
X0242112Y0161651D01*
X0242112Y0163249D02*
X0319866Y0163249D01*
X0318267Y0164848D02*
X0242112Y0164848D01*
X0242112Y0166446D02*
X0316669Y0166446D01*
X0315070Y0168045D02*
X0242112Y0168045D01*
X0242112Y0169643D02*
X0313472Y0169643D01*
X0311873Y0171242D02*
X0242112Y0171242D01*
X0242112Y0172840D02*
X0310275Y0172840D01*
X0308676Y0174439D02*
X0242112Y0174439D01*
X0242112Y0176037D02*
X0307078Y0176037D01*
X0305479Y0177636D02*
X0242112Y0177636D01*
X0242112Y0179234D02*
X0303881Y0179234D01*
X0302282Y0180833D02*
X0242112Y0180833D01*
X0242112Y0182431D02*
X0300684Y0182431D01*
X0299085Y0184030D02*
X0242112Y0184030D01*
X0242112Y0185628D02*
X0297487Y0185628D01*
X0295888Y0187227D02*
X0242112Y0187227D01*
X0242112Y0188825D02*
X0294290Y0188825D01*
X0292691Y0190424D02*
X0242112Y0190424D01*
X0242112Y0192022D02*
X0291093Y0192022D01*
X0289494Y0193621D02*
X0242112Y0193621D01*
X0242112Y0195219D02*
X0287896Y0195219D01*
X0286297Y0196818D02*
X0242112Y0196818D01*
X0242112Y0198416D02*
X0284699Y0198416D01*
X0283480Y0200015D02*
X0242112Y0200015D01*
X0242112Y0201613D02*
X0283200Y0201613D01*
X0283200Y0203212D02*
X0242112Y0203212D01*
X0242112Y0204811D02*
X0283200Y0204811D01*
X0283200Y0206409D02*
X0242112Y0206409D01*
X0242112Y0208008D02*
X0283200Y0208008D01*
X0283200Y0209606D02*
X0242112Y0209606D01*
X0242112Y0211205D02*
X0274718Y0211205D01*
X0274685Y0212803D02*
X0242112Y0212803D01*
X0242112Y0214402D02*
X0278564Y0214402D01*
X0278565Y0216000D02*
X0279524Y0216000D01*
X0279524Y0217599D02*
X0278565Y0217599D01*
X0278565Y0219197D02*
X0279524Y0219197D01*
X0282109Y0219197D02*
X0283082Y0219197D01*
X0283082Y0220796D02*
X0242112Y0220796D01*
X0242112Y0222394D02*
X0283082Y0222394D01*
X0283082Y0223993D02*
X0242112Y0223993D01*
X0242112Y0225591D02*
X0242593Y0225591D01*
X0251716Y0225591D02*
X0283082Y0225591D01*
X0283082Y0227190D02*
X0279420Y0227190D01*
X0281270Y0228788D02*
X0282296Y0228788D01*
X0276866Y0228788D02*
X0276498Y0228788D01*
X0276498Y0227190D02*
X0276866Y0227190D01*
X0276498Y0226496D02*
X0276498Y0235986D01*
X0270945Y0235986D01*
X0270945Y0231782D01*
X0271086Y0230890D01*
X0271365Y0230031D01*
X0271775Y0229226D01*
X0272306Y0228496D01*
X0272944Y0227857D01*
X0273675Y0227326D01*
X0274480Y0226916D01*
X0275338Y0226637D01*
X0276230Y0226496D01*
X0276498Y0226496D01*
X0273943Y0227190D02*
X0254356Y0227190D01*
X0255955Y0228788D02*
X0272093Y0228788D01*
X0271250Y0230387D02*
X0257028Y0230387D01*
X0257879Y0231985D02*
X0270945Y0231985D01*
X0270945Y0233584D02*
X0258307Y0233584D01*
X0258597Y0235182D02*
X0270945Y0235182D01*
X0270945Y0236781D02*
X0258597Y0236781D01*
X0258409Y0238379D02*
X0270945Y0238379D01*
X0270945Y0239978D02*
X0257980Y0239978D01*
X0276498Y0235182D02*
X0276866Y0235182D01*
X0276866Y0233584D02*
X0276498Y0233584D01*
X0276498Y0231985D02*
X0276866Y0231985D01*
X0276866Y0230387D02*
X0276498Y0230387D01*
X0290282Y0227190D02*
X0294389Y0227190D01*
X0292296Y0228788D02*
X0291067Y0228788D01*
X0275979Y0219197D02*
X0242112Y0219197D01*
X0242112Y0217599D02*
X0274685Y0217599D01*
X0274685Y0216000D02*
X0242112Y0216000D01*
X0278565Y0212803D02*
X0279524Y0212803D01*
X0279524Y0211205D02*
X0278565Y0211205D01*
X0318975Y0227190D02*
X0324389Y0227190D01*
X0322296Y0228788D02*
X0321067Y0228788D01*
X0328975Y0227190D02*
X0333943Y0227190D01*
X0332093Y0228788D02*
X0331067Y0228788D01*
X0336498Y0228788D02*
X0336866Y0228788D01*
X0336866Y0227190D02*
X0336498Y0227190D01*
X0339420Y0227190D02*
X0343943Y0227190D01*
X0342093Y0228788D02*
X0341270Y0228788D01*
X0336866Y0230387D02*
X0336498Y0230387D01*
X0336498Y0231985D02*
X0336866Y0231985D01*
X0336866Y0233584D02*
X0336498Y0233584D01*
X0336498Y0235182D02*
X0336866Y0235182D01*
X0336866Y0235986D02*
X0336866Y0236354D01*
X0346498Y0236354D01*
X0346498Y0235986D01*
X0340945Y0235986D01*
X0336866Y0235986D01*
X0346498Y0235182D02*
X0346866Y0235182D01*
X0346866Y0235986D02*
X0346866Y0236354D01*
X0356498Y0236354D01*
X0356498Y0235986D01*
X0350945Y0235986D01*
X0346866Y0235986D01*
X0346866Y0233584D02*
X0346498Y0233584D01*
X0346498Y0231985D02*
X0346866Y0231985D01*
X0346866Y0230387D02*
X0346498Y0230387D01*
X0346498Y0228788D02*
X0346866Y0228788D01*
X0346866Y0227190D02*
X0346498Y0227190D01*
X0349420Y0227190D02*
X0353943Y0227190D01*
X0352093Y0228788D02*
X0351270Y0228788D01*
X0356498Y0228788D02*
X0356866Y0228788D01*
X0356866Y0227190D02*
X0356498Y0227190D01*
X0359420Y0227190D02*
X0363943Y0227190D01*
X0362093Y0228788D02*
X0361270Y0228788D01*
X0356866Y0230387D02*
X0356498Y0230387D01*
X0356498Y0231985D02*
X0356866Y0231985D01*
X0356866Y0233584D02*
X0356498Y0233584D01*
X0356498Y0235182D02*
X0356866Y0235182D01*
X0356866Y0235986D02*
X0356866Y0236354D01*
X0366498Y0236354D01*
X0366498Y0235986D01*
X0360945Y0235986D01*
X0356866Y0235986D01*
X0366498Y0235182D02*
X0366866Y0235182D01*
X0366866Y0233584D02*
X0366498Y0233584D01*
X0366498Y0231985D02*
X0366866Y0231985D01*
X0366866Y0230387D02*
X0366498Y0230387D01*
X0366498Y0228788D02*
X0366866Y0228788D01*
X0366866Y0227190D02*
X0366498Y0227190D01*
X0369420Y0227190D02*
X0374389Y0227190D01*
X0372296Y0228788D02*
X0371270Y0228788D01*
X0378975Y0227190D02*
X0383886Y0227190D01*
X0382296Y0228788D02*
X0381067Y0228788D01*
X0389486Y0227190D02*
X0394389Y0227190D01*
X0392296Y0228788D02*
X0391067Y0228788D01*
X0389486Y0225591D02*
X0608734Y0225591D01*
X0606094Y0227190D02*
X0428975Y0227190D01*
X0431067Y0228788D02*
X0604496Y0228788D01*
X0603422Y0230387D02*
X0431910Y0230387D01*
X0432219Y0231985D02*
X0602571Y0231985D01*
X0602143Y0233584D02*
X0432219Y0233584D01*
X0432219Y0235182D02*
X0601854Y0235182D01*
X0601854Y0236781D02*
X0432219Y0236781D01*
X0432219Y0238379D02*
X0602042Y0238379D01*
X0602470Y0239978D02*
X0432219Y0239978D01*
X0422296Y0228788D02*
X0421067Y0228788D01*
X0418975Y0227190D02*
X0424389Y0227190D01*
X0414389Y0227190D02*
X0408975Y0227190D01*
X0411067Y0228788D02*
X0412296Y0228788D01*
X0404389Y0227190D02*
X0398975Y0227190D01*
X0401067Y0228788D02*
X0402296Y0228788D01*
X0389486Y0223993D02*
X0514600Y0223993D01*
X0513001Y0222394D02*
X0389486Y0222394D01*
X0389486Y0220796D02*
X0511403Y0220796D01*
X0509804Y0219197D02*
X0389486Y0219197D01*
X0389486Y0217599D02*
X0508206Y0217599D01*
X0506607Y0216000D02*
X0389486Y0216000D01*
X0389486Y0214402D02*
X0505152Y0214402D01*
X0504827Y0212803D02*
X0389486Y0212803D01*
X0389486Y0211205D02*
X0504827Y0211205D01*
X0504827Y0209606D02*
X0389486Y0209606D01*
X0389486Y0208008D02*
X0504827Y0208008D01*
X0504827Y0206409D02*
X0389486Y0206409D01*
X0389486Y0204811D02*
X0504827Y0204811D01*
X0504827Y0203212D02*
X0389559Y0203212D01*
X0390070Y0201613D02*
X0504827Y0201613D01*
X0504827Y0200015D02*
X0389815Y0200015D01*
X0388558Y0198416D02*
X0504827Y0198416D01*
X0510427Y0198416D02*
X0818228Y0198416D01*
X0816630Y0196818D02*
X0510427Y0196818D01*
X0510427Y0195219D02*
X0815031Y0195219D01*
X0813433Y0193621D02*
X0510427Y0193621D01*
X0510427Y0192022D02*
X0811834Y0192022D01*
X0810236Y0190424D02*
X0510427Y0190424D01*
X0510427Y0188825D02*
X0808637Y0188825D01*
X0807039Y0187227D02*
X0510427Y0187227D01*
X0510427Y0185628D02*
X0805440Y0185628D01*
X0803842Y0184030D02*
X0510427Y0184030D01*
X0510427Y0182431D02*
X0802243Y0182431D01*
X0800645Y0180833D02*
X0510427Y0180833D01*
X0510427Y0179234D02*
X0799647Y0179234D01*
X0799646Y0177636D02*
X0510427Y0177636D01*
X0510427Y0176037D02*
X0799646Y0176037D01*
X0799646Y0174439D02*
X0510427Y0174439D01*
X0510980Y0172840D02*
X0799646Y0172840D01*
X0799646Y0171242D02*
X0511016Y0171242D01*
X0510099Y0169643D02*
X0799646Y0169643D01*
X0752502Y0156855D02*
X0716502Y0156855D01*
X0716502Y0155257D02*
X0754100Y0155257D01*
X0755699Y0153658D02*
X0716502Y0153658D01*
X0716502Y0152060D02*
X0757297Y0152060D01*
X0758896Y0150461D02*
X0716502Y0150461D01*
X0716502Y0148863D02*
X0760494Y0148863D01*
X0762093Y0147264D02*
X0716502Y0147264D01*
X0716502Y0145666D02*
X0763691Y0145666D01*
X0763898Y0144067D02*
X0715645Y0144067D01*
X0715565Y0143987D02*
X0716502Y0144925D01*
X0716502Y0158912D01*
X0715565Y0159849D01*
X0701578Y0159849D01*
X0700641Y0158912D01*
X0700641Y0144925D01*
X0701578Y0143987D01*
X0715565Y0143987D01*
X0701666Y0142469D02*
X0763898Y0142469D01*
X0731562Y0134476D02*
X0683613Y0134476D01*
X0679228Y0131279D02*
X0678860Y0131279D01*
X0678860Y0129680D02*
X0679228Y0129680D01*
X0679228Y0126483D02*
X0678860Y0126483D01*
X0678860Y0124885D02*
X0679228Y0124885D01*
X0679228Y0123286D02*
X0678860Y0123286D01*
X0674276Y0124885D02*
X0544353Y0124885D01*
X0544353Y0126483D02*
X0674276Y0126483D01*
X0674476Y0120089D02*
X0483471Y0120089D01*
X0493020Y0123286D02*
X0496485Y0123286D01*
X0495153Y0124885D02*
X0494353Y0124885D01*
X0494353Y0126483D02*
X0495153Y0126483D01*
X0495153Y0128082D02*
X0494353Y0128082D01*
X0493102Y0129680D02*
X0496403Y0129680D01*
X0496611Y0132877D02*
X0492611Y0132877D01*
X0494210Y0134476D02*
X0495013Y0134476D01*
X0494953Y0136075D02*
X0494353Y0136075D01*
X0494353Y0137673D02*
X0494953Y0137673D01*
X0495712Y0139272D02*
X0493511Y0139272D01*
X0502195Y0140870D02*
X0506953Y0140870D01*
X0506305Y0142469D02*
X0470877Y0142469D01*
X0472476Y0144067D02*
X0504707Y0144067D01*
X0503794Y0139272D02*
X0505995Y0139272D01*
X0505153Y0137673D02*
X0504553Y0137673D01*
X0504553Y0136075D02*
X0505153Y0136075D01*
X0505296Y0134476D02*
X0504493Y0134476D01*
X0502894Y0132877D02*
X0506894Y0132877D01*
X0523102Y0129680D02*
X0526403Y0129680D01*
X0532611Y0132877D02*
X0536894Y0132877D01*
X0535296Y0134476D02*
X0534210Y0134476D01*
X0534353Y0136075D02*
X0535153Y0136075D01*
X0535153Y0137673D02*
X0534353Y0137673D01*
X0533511Y0139272D02*
X0535995Y0139272D01*
X0537593Y0140870D02*
X0531912Y0140870D01*
X0541912Y0140870D02*
X0674476Y0140870D01*
X0674476Y0139272D02*
X0543511Y0139272D01*
X0544353Y0137673D02*
X0674476Y0137673D01*
X0674476Y0136075D02*
X0544353Y0136075D01*
X0544210Y0134476D02*
X0674476Y0134476D01*
X0700068Y0144067D02*
X0701499Y0144067D01*
X0700641Y0145666D02*
X0698469Y0145666D01*
X0696870Y0147264D02*
X0700641Y0147264D01*
X0700641Y0148863D02*
X0695272Y0148863D01*
X0693673Y0150461D02*
X0700641Y0150461D01*
X0700641Y0152060D02*
X0579910Y0152060D01*
X0578311Y0153658D02*
X0700641Y0153658D01*
X0700641Y0155257D02*
X0576713Y0155257D01*
X0575114Y0156855D02*
X0700641Y0156855D01*
X0700641Y0158454D02*
X0573516Y0158454D01*
X0571917Y0160052D02*
X0749305Y0160052D01*
X0750903Y0158454D02*
X0716502Y0158454D01*
X0735946Y0121688D02*
X0736315Y0121688D01*
X0736315Y0120089D02*
X0735946Y0120089D01*
X0735946Y0118491D02*
X0736315Y0118491D01*
X0736315Y0116892D02*
X0735946Y0116892D01*
X0735946Y0115294D02*
X0736315Y0115294D01*
X0736315Y0113695D02*
X0735946Y0113695D01*
X0700641Y0110498D02*
X0667531Y0110498D01*
X0669130Y0108900D02*
X0700641Y0108900D01*
X0762598Y0080127D02*
X0571213Y0080127D01*
X0465017Y0068937D02*
X0319918Y0068937D01*
X0215078Y0088119D02*
X0131921Y0088119D01*
X0133520Y0089718D02*
X0213539Y0089718D01*
X0213539Y0091316D02*
X0135119Y0091316D01*
X0136717Y0092915D02*
X0213539Y0092915D01*
X0214583Y0094513D02*
X0138316Y0094513D01*
X0121879Y0100907D02*
X0014553Y0100907D01*
X0014553Y0099309D02*
X0120281Y0099309D01*
X0118682Y0097710D02*
X0014553Y0097710D01*
X0014553Y0096112D02*
X0066292Y0096112D01*
X0066544Y0096364D02*
X0063732Y0093552D01*
X0063732Y0091764D01*
X0068332Y0091764D01*
X0068332Y0091364D01*
X0068732Y0091364D01*
X0068732Y0086764D01*
X0070520Y0086764D01*
X0073332Y0089576D01*
X0073332Y0091364D01*
X0068732Y0091364D01*
X0068732Y0091764D01*
X0068332Y0091764D01*
X0068332Y0096364D01*
X0066544Y0096364D01*
X0068332Y0096112D02*
X0068732Y0096112D01*
X0068732Y0096364D02*
X0070520Y0096364D01*
X0073332Y0093552D01*
X0073332Y0091764D01*
X0068732Y0091764D01*
X0068732Y0096364D01*
X0068732Y0094513D02*
X0068332Y0094513D01*
X0068332Y0092915D02*
X0068732Y0092915D01*
X0068732Y0091316D02*
X0068332Y0091316D01*
X0068332Y0089718D02*
X0068732Y0089718D01*
X0068732Y0088119D02*
X0068332Y0088119D01*
X0071876Y0088119D02*
X0075471Y0088119D01*
X0073932Y0089718D02*
X0073332Y0089718D01*
X0073332Y0091316D02*
X0073932Y0091316D01*
X0073932Y0092915D02*
X0073332Y0092915D01*
X0072371Y0094513D02*
X0074976Y0094513D01*
X0076575Y0096112D02*
X0070773Y0096112D01*
X0064694Y0094513D02*
X0014553Y0094513D01*
X0014553Y0092915D02*
X0063732Y0092915D01*
X0063732Y0091316D02*
X0014553Y0091316D01*
X0014553Y0089718D02*
X0063732Y0089718D01*
X0080490Y0096112D02*
X0117084Y0096112D01*
X0123478Y0102506D02*
X0014553Y0102506D01*
X0014553Y0104104D02*
X0125076Y0104104D01*
X0126675Y0105703D02*
X0014553Y0105703D01*
X0014553Y0107301D02*
X0060736Y0107301D01*
X0058347Y0108291D02*
X0058347Y0108291D01*
X0057738Y0108900D02*
X0014553Y0108900D01*
X0014553Y0110498D02*
X0056139Y0110498D01*
X0055331Y0112097D02*
X0014553Y0112097D01*
X0014553Y0113695D02*
X0054669Y0113695D01*
X0054559Y0115294D02*
X0014553Y0115294D01*
X0014553Y0116892D02*
X0054559Y0116892D01*
X0054559Y0118491D02*
X0014553Y0118491D01*
X0065856Y0107301D02*
X0128273Y0107301D01*
X0129872Y0108900D02*
X0068854Y0108900D01*
X0068245Y0108291D02*
X0068245Y0108291D01*
X0070453Y0110498D02*
X0131470Y0110498D01*
X0135258Y0104104D02*
X0139987Y0104104D01*
X0138389Y0102506D02*
X0133660Y0102506D01*
X0070703Y0110749D02*
X0070703Y0110749D01*
X0241340Y0112097D02*
X0323344Y0112097D01*
X0324943Y0113695D02*
X0242002Y0113695D01*
X0242112Y0115294D02*
X0326541Y0115294D01*
X0328140Y0116892D02*
X0242112Y0116892D01*
X0242112Y0118491D02*
X0329738Y0118491D01*
X0331337Y0120089D02*
X0242112Y0120089D01*
X0242112Y0121688D02*
X0332935Y0121688D01*
X0334534Y0123286D02*
X0242112Y0123286D01*
X0242112Y0124885D02*
X0336132Y0124885D01*
X0337731Y0126483D02*
X0242112Y0126483D01*
X0242112Y0128082D02*
X0339329Y0128082D01*
X0340928Y0129680D02*
X0242112Y0129680D01*
X0242112Y0131279D02*
X0342526Y0131279D01*
X0344125Y0132877D02*
X0242112Y0132877D01*
X0242112Y0134476D02*
X0345723Y0134476D01*
X0462885Y0134476D02*
X0475296Y0134476D01*
X0475153Y0136075D02*
X0464483Y0136075D01*
X0466082Y0137673D02*
X0475153Y0137673D01*
X0475995Y0139272D02*
X0467680Y0139272D01*
X0469279Y0140870D02*
X0477593Y0140870D01*
X0510427Y0200015D02*
X0819827Y0200015D01*
X0793403Y0028974D02*
X0847472Y0028974D01*
X0847472Y0027376D02*
X0795604Y0027376D01*
X0796425Y0026779D02*
X0796425Y0026779D01*
X0797153Y0025777D02*
X0847472Y0025777D01*
X0847472Y0024179D02*
X0798314Y0024179D01*
X0799094Y0022580D02*
X0847472Y0022580D01*
X0847472Y0020982D02*
X0799613Y0020982D01*
X0800025Y0019383D02*
X0847472Y0019383D01*
X0847472Y0017785D02*
X0800025Y0017785D01*
X0799986Y0016186D02*
X0847472Y0016186D01*
D22*
X0832587Y0029477D03*
X0832587Y0167272D03*
X0029438Y0088532D03*
D23*
X0068532Y0081564D02*
X0068532Y0072509D01*
X0078454Y0062587D01*
X0078454Y0062391D01*
X0081800Y0059044D01*
X0544556Y0059044D01*
X0555776Y0070265D01*
X0570076Y0077304D02*
X0549831Y0097548D01*
X0494438Y0097548D01*
X0491643Y0100343D01*
X0529517Y0089595D02*
X0230107Y0089595D01*
X0228139Y0091564D01*
X0223139Y0096564D02*
X0218139Y0091564D01*
X0218257Y0089713D01*
X0223139Y0096564D02*
X0411761Y0096564D01*
X0422076Y0106879D01*
X0539595Y0106879D01*
X0529635Y0089713D02*
X0529517Y0089595D01*
X0519202Y0079635D02*
X0230068Y0079635D01*
X0228139Y0081564D01*
X0142036Y0102194D02*
X0121406Y0081564D01*
X0078532Y0081564D01*
X0142036Y0102194D02*
X0329753Y0102194D01*
X0341446Y0113887D01*
X0446721Y0113887D01*
X0451564Y0118729D01*
X0451564Y0127115D01*
X0472548Y0148099D01*
X0504635Y0148099D01*
X0509753Y0142981D01*
X0509753Y0136524D01*
X0471879Y0158414D02*
X0451979Y0138515D01*
X0449989Y0136524D01*
X0423454Y0136524D01*
X0413454Y0136524D02*
X0413454Y0182977D01*
X0407087Y0189343D01*
X0328816Y0189343D01*
X0306639Y0211520D01*
X0306639Y0236127D01*
X0306682Y0236170D01*
X0286682Y0214674D02*
X0286524Y0214517D01*
X0386686Y0201304D02*
X0386686Y0236170D01*
X0386682Y0236170D01*
X0507627Y0213060D02*
X0507627Y0172036D01*
X0507666Y0171997D01*
X0487824Y0165501D02*
X0747816Y0165501D01*
X0766698Y0146619D01*
X0766698Y0134300D01*
X0766627Y0134229D01*
X0766627Y0127536D02*
X0766643Y0127520D01*
X0786603Y0127520D01*
X0798135Y0117520D02*
X0802446Y0121831D01*
X0802446Y0178674D01*
X0823898Y0200127D01*
X0823898Y0230796D01*
X0823052Y0231643D01*
X0813209Y0231643D02*
X0813209Y0218926D01*
X0811961Y0217678D01*
X0645450Y0217678D01*
X0645343Y0217784D01*
X0627036Y0222233D02*
X0516800Y0222233D01*
X0507627Y0213060D01*
X0627036Y0228926D02*
X0644202Y0228926D01*
X0645343Y0227784D01*
X0569595Y0158414D02*
X0471879Y0158414D01*
X0393454Y0170670D02*
X0393454Y0136524D01*
X0569595Y0158414D02*
X0579320Y0148690D01*
X0691485Y0148690D01*
X0702587Y0137587D01*
X0735973Y0137587D01*
X0736131Y0137745D01*
X0786603Y0117520D02*
X0798135Y0117520D01*
X0786646Y0080973D02*
X0781103Y0080973D01*
X0775812Y0075682D01*
X0775812Y0071898D01*
X0775005Y0071091D01*
X0767316Y0071091D01*
X0767150Y0070926D01*
X0767150Y0070611D01*
X0767316Y0071091D02*
X0765698Y0071091D01*
X0765020Y0070414D01*
X0765784Y0070757D02*
X0765060Y0071481D01*
X0767150Y0077304D02*
X0570076Y0077304D01*
X0640806Y0047281D02*
X0640806Y0021681D01*
X0466997Y0066131D02*
X0318178Y0066131D01*
X0316879Y0067430D01*
D24*
X0324359Y0108020D02*
X0352863Y0136524D01*
X0351682Y0136524D01*
X0286800Y0201406D01*
X0286800Y0214241D01*
X0286524Y0214517D01*
X0286682Y0214674D02*
X0286682Y0236170D01*
X0352863Y0136524D02*
X0383454Y0136524D01*
X0324359Y0108020D02*
X0134083Y0108020D01*
X0117627Y0091564D01*
X0078532Y0091564D01*
X0479871Y0118257D02*
X0482509Y0115619D01*
X0547391Y0115619D01*
X0551650Y0111359D01*
X0661580Y0111359D01*
X0683450Y0089489D01*
X0803493Y0089489D01*
X0813430Y0099426D01*
X0813430Y0178690D01*
X0832894Y0198154D01*
X0832894Y0231643D01*
X0479871Y0126406D02*
X0479753Y0126524D01*
X0479871Y0126406D02*
X0479871Y0118257D01*
D25*
X0491643Y0100343D03*
X0529635Y0089713D03*
X0519202Y0079635D03*
X0555776Y0070265D03*
X0466997Y0066131D03*
X0539595Y0106879D03*
X0487824Y0165501D03*
X0507666Y0171997D03*
X0393682Y0170898D03*
X0386686Y0201304D03*
X0316879Y0067430D03*
D26*
X0393454Y0170670D02*
X0393682Y0170898D01*
M02*
