%
M48
M72
T01C0.01575
T02C0.04000
T03C0.06102
T04C0.12598
%
T01
X114792Y114242
X108690Y121526
X124831Y121526
X126800Y138652
X110265Y138848
X94910Y137077
X91564Y128612
X27194Y143770
X19123Y143770
X10855Y143967
T02
X11170Y112943
X21170Y112943
X21170Y102943
X11170Y102943
X160776Y102943
X160776Y112943
X170776Y112943
X170776Y102943
T03
X137981Y49675
X42469Y49675
T04
X16170Y42195
X165776Y42195
M30
