G75*
%MOIN*%
%OFA0B0*%
%FSLAX25Y25*%
%IPPOS*%
%LPD*%
%AMOC8*
5,1,8,0,0,1.08239X$1,22.5*
%
%ADD10C,0.00000*%
%ADD11C,0.01000*%
%ADD12C,0.00300*%
%ADD13C,0.00600*%
%ADD14C,0.00500*%
D10*
X0002391Y0028415D02*
X0179556Y0028415D01*
X0179556Y0152431D01*
X0002391Y0152431D01*
X0002391Y0028415D01*
X0039418Y0049675D02*
X0039420Y0049785D01*
X0039426Y0049895D01*
X0039436Y0050005D01*
X0039450Y0050114D01*
X0039468Y0050223D01*
X0039489Y0050331D01*
X0039515Y0050438D01*
X0039544Y0050544D01*
X0039578Y0050649D01*
X0039615Y0050753D01*
X0039656Y0050855D01*
X0039700Y0050956D01*
X0039748Y0051055D01*
X0039800Y0051153D01*
X0039855Y0051248D01*
X0039913Y0051341D01*
X0039975Y0051432D01*
X0040040Y0051521D01*
X0040108Y0051608D01*
X0040180Y0051692D01*
X0040254Y0051773D01*
X0040331Y0051852D01*
X0040411Y0051928D01*
X0040494Y0052000D01*
X0040579Y0052070D01*
X0040667Y0052137D01*
X0040757Y0052200D01*
X0040849Y0052260D01*
X0040943Y0052317D01*
X0041040Y0052371D01*
X0041138Y0052420D01*
X0041238Y0052467D01*
X0041340Y0052509D01*
X0041443Y0052548D01*
X0041547Y0052583D01*
X0041653Y0052615D01*
X0041759Y0052642D01*
X0041867Y0052666D01*
X0041975Y0052686D01*
X0042084Y0052702D01*
X0042194Y0052714D01*
X0042304Y0052722D01*
X0042414Y0052726D01*
X0042524Y0052726D01*
X0042634Y0052722D01*
X0042744Y0052714D01*
X0042854Y0052702D01*
X0042963Y0052686D01*
X0043071Y0052666D01*
X0043179Y0052642D01*
X0043285Y0052615D01*
X0043391Y0052583D01*
X0043495Y0052548D01*
X0043598Y0052509D01*
X0043700Y0052467D01*
X0043800Y0052420D01*
X0043898Y0052371D01*
X0043994Y0052317D01*
X0044089Y0052260D01*
X0044181Y0052200D01*
X0044271Y0052137D01*
X0044359Y0052070D01*
X0044444Y0052000D01*
X0044527Y0051928D01*
X0044607Y0051852D01*
X0044684Y0051773D01*
X0044758Y0051692D01*
X0044830Y0051608D01*
X0044898Y0051521D01*
X0044963Y0051432D01*
X0045025Y0051341D01*
X0045083Y0051248D01*
X0045138Y0051153D01*
X0045190Y0051055D01*
X0045238Y0050956D01*
X0045282Y0050855D01*
X0045323Y0050753D01*
X0045360Y0050649D01*
X0045394Y0050544D01*
X0045423Y0050438D01*
X0045449Y0050331D01*
X0045470Y0050223D01*
X0045488Y0050114D01*
X0045502Y0050005D01*
X0045512Y0049895D01*
X0045518Y0049785D01*
X0045520Y0049675D01*
X0045518Y0049565D01*
X0045512Y0049455D01*
X0045502Y0049345D01*
X0045488Y0049236D01*
X0045470Y0049127D01*
X0045449Y0049019D01*
X0045423Y0048912D01*
X0045394Y0048806D01*
X0045360Y0048701D01*
X0045323Y0048597D01*
X0045282Y0048495D01*
X0045238Y0048394D01*
X0045190Y0048295D01*
X0045138Y0048197D01*
X0045083Y0048102D01*
X0045025Y0048009D01*
X0044963Y0047918D01*
X0044898Y0047829D01*
X0044830Y0047742D01*
X0044758Y0047658D01*
X0044684Y0047577D01*
X0044607Y0047498D01*
X0044527Y0047422D01*
X0044444Y0047350D01*
X0044359Y0047280D01*
X0044271Y0047213D01*
X0044181Y0047150D01*
X0044089Y0047090D01*
X0043995Y0047033D01*
X0043898Y0046979D01*
X0043800Y0046930D01*
X0043700Y0046883D01*
X0043598Y0046841D01*
X0043495Y0046802D01*
X0043391Y0046767D01*
X0043285Y0046735D01*
X0043179Y0046708D01*
X0043071Y0046684D01*
X0042963Y0046664D01*
X0042854Y0046648D01*
X0042744Y0046636D01*
X0042634Y0046628D01*
X0042524Y0046624D01*
X0042414Y0046624D01*
X0042304Y0046628D01*
X0042194Y0046636D01*
X0042084Y0046648D01*
X0041975Y0046664D01*
X0041867Y0046684D01*
X0041759Y0046708D01*
X0041653Y0046735D01*
X0041547Y0046767D01*
X0041443Y0046802D01*
X0041340Y0046841D01*
X0041238Y0046883D01*
X0041138Y0046930D01*
X0041040Y0046979D01*
X0040943Y0047033D01*
X0040849Y0047090D01*
X0040757Y0047150D01*
X0040667Y0047213D01*
X0040579Y0047280D01*
X0040494Y0047350D01*
X0040411Y0047422D01*
X0040331Y0047498D01*
X0040254Y0047577D01*
X0040180Y0047658D01*
X0040108Y0047742D01*
X0040040Y0047829D01*
X0039975Y0047918D01*
X0039913Y0048009D01*
X0039855Y0048102D01*
X0039800Y0048197D01*
X0039748Y0048295D01*
X0039700Y0048394D01*
X0039656Y0048495D01*
X0039615Y0048597D01*
X0039578Y0048701D01*
X0039544Y0048806D01*
X0039515Y0048912D01*
X0039489Y0049019D01*
X0039468Y0049127D01*
X0039450Y0049236D01*
X0039436Y0049345D01*
X0039426Y0049455D01*
X0039420Y0049565D01*
X0039418Y0049675D01*
X0134930Y0049675D02*
X0134932Y0049785D01*
X0134938Y0049895D01*
X0134948Y0050005D01*
X0134962Y0050114D01*
X0134980Y0050223D01*
X0135001Y0050331D01*
X0135027Y0050438D01*
X0135056Y0050544D01*
X0135090Y0050649D01*
X0135127Y0050753D01*
X0135168Y0050855D01*
X0135212Y0050956D01*
X0135260Y0051055D01*
X0135312Y0051153D01*
X0135367Y0051248D01*
X0135425Y0051341D01*
X0135487Y0051432D01*
X0135552Y0051521D01*
X0135620Y0051608D01*
X0135692Y0051692D01*
X0135766Y0051773D01*
X0135843Y0051852D01*
X0135923Y0051928D01*
X0136006Y0052000D01*
X0136091Y0052070D01*
X0136179Y0052137D01*
X0136269Y0052200D01*
X0136361Y0052260D01*
X0136455Y0052317D01*
X0136552Y0052371D01*
X0136650Y0052420D01*
X0136750Y0052467D01*
X0136852Y0052509D01*
X0136955Y0052548D01*
X0137059Y0052583D01*
X0137165Y0052615D01*
X0137271Y0052642D01*
X0137379Y0052666D01*
X0137487Y0052686D01*
X0137596Y0052702D01*
X0137706Y0052714D01*
X0137816Y0052722D01*
X0137926Y0052726D01*
X0138036Y0052726D01*
X0138146Y0052722D01*
X0138256Y0052714D01*
X0138366Y0052702D01*
X0138475Y0052686D01*
X0138583Y0052666D01*
X0138691Y0052642D01*
X0138797Y0052615D01*
X0138903Y0052583D01*
X0139007Y0052548D01*
X0139110Y0052509D01*
X0139212Y0052467D01*
X0139312Y0052420D01*
X0139410Y0052371D01*
X0139506Y0052317D01*
X0139601Y0052260D01*
X0139693Y0052200D01*
X0139783Y0052137D01*
X0139871Y0052070D01*
X0139956Y0052000D01*
X0140039Y0051928D01*
X0140119Y0051852D01*
X0140196Y0051773D01*
X0140270Y0051692D01*
X0140342Y0051608D01*
X0140410Y0051521D01*
X0140475Y0051432D01*
X0140537Y0051341D01*
X0140595Y0051248D01*
X0140650Y0051153D01*
X0140702Y0051055D01*
X0140750Y0050956D01*
X0140794Y0050855D01*
X0140835Y0050753D01*
X0140872Y0050649D01*
X0140906Y0050544D01*
X0140935Y0050438D01*
X0140961Y0050331D01*
X0140982Y0050223D01*
X0141000Y0050114D01*
X0141014Y0050005D01*
X0141024Y0049895D01*
X0141030Y0049785D01*
X0141032Y0049675D01*
X0141030Y0049565D01*
X0141024Y0049455D01*
X0141014Y0049345D01*
X0141000Y0049236D01*
X0140982Y0049127D01*
X0140961Y0049019D01*
X0140935Y0048912D01*
X0140906Y0048806D01*
X0140872Y0048701D01*
X0140835Y0048597D01*
X0140794Y0048495D01*
X0140750Y0048394D01*
X0140702Y0048295D01*
X0140650Y0048197D01*
X0140595Y0048102D01*
X0140537Y0048009D01*
X0140475Y0047918D01*
X0140410Y0047829D01*
X0140342Y0047742D01*
X0140270Y0047658D01*
X0140196Y0047577D01*
X0140119Y0047498D01*
X0140039Y0047422D01*
X0139956Y0047350D01*
X0139871Y0047280D01*
X0139783Y0047213D01*
X0139693Y0047150D01*
X0139601Y0047090D01*
X0139507Y0047033D01*
X0139410Y0046979D01*
X0139312Y0046930D01*
X0139212Y0046883D01*
X0139110Y0046841D01*
X0139007Y0046802D01*
X0138903Y0046767D01*
X0138797Y0046735D01*
X0138691Y0046708D01*
X0138583Y0046684D01*
X0138475Y0046664D01*
X0138366Y0046648D01*
X0138256Y0046636D01*
X0138146Y0046628D01*
X0138036Y0046624D01*
X0137926Y0046624D01*
X0137816Y0046628D01*
X0137706Y0046636D01*
X0137596Y0046648D01*
X0137487Y0046664D01*
X0137379Y0046684D01*
X0137271Y0046708D01*
X0137165Y0046735D01*
X0137059Y0046767D01*
X0136955Y0046802D01*
X0136852Y0046841D01*
X0136750Y0046883D01*
X0136650Y0046930D01*
X0136552Y0046979D01*
X0136455Y0047033D01*
X0136361Y0047090D01*
X0136269Y0047150D01*
X0136179Y0047213D01*
X0136091Y0047280D01*
X0136006Y0047350D01*
X0135923Y0047422D01*
X0135843Y0047498D01*
X0135766Y0047577D01*
X0135692Y0047658D01*
X0135620Y0047742D01*
X0135552Y0047829D01*
X0135487Y0047918D01*
X0135425Y0048009D01*
X0135367Y0048102D01*
X0135312Y0048197D01*
X0135260Y0048295D01*
X0135212Y0048394D01*
X0135168Y0048495D01*
X0135127Y0048597D01*
X0135090Y0048701D01*
X0135056Y0048806D01*
X0135027Y0048912D01*
X0135001Y0049019D01*
X0134980Y0049127D01*
X0134962Y0049236D01*
X0134948Y0049345D01*
X0134938Y0049455D01*
X0134932Y0049565D01*
X0134930Y0049675D01*
D11*
X0147343Y0055388D02*
X0147343Y0027675D01*
X0141761Y0027628D01*
X0038418Y0027675D02*
X0034568Y0027675D01*
X0034568Y0050813D01*
X0034568Y0120781D02*
X0034568Y0141781D01*
X0034918Y0141781D01*
X0130418Y0141781D02*
X0147737Y0141781D01*
X0147737Y0120781D01*
D12*
X0148162Y0143463D02*
X0146227Y0143463D01*
X0147195Y0143463D02*
X0147195Y0146365D01*
X0146227Y0145398D01*
X0145216Y0146365D02*
X0145216Y0143947D01*
X0144732Y0143463D01*
X0143764Y0143463D01*
X0143281Y0143947D01*
X0143281Y0146365D01*
D13*
X0158276Y0117943D02*
X0163276Y0117943D01*
X0165776Y0115443D01*
X0165776Y0100443D01*
X0163276Y0097943D01*
X0158276Y0097943D01*
X0155776Y0100443D01*
X0155776Y0115443D01*
X0158276Y0117943D01*
X0165776Y0115443D02*
X0168276Y0117943D01*
X0173276Y0117943D01*
X0175776Y0115443D01*
X0175776Y0100443D01*
X0173276Y0097943D01*
X0168276Y0097943D01*
X0165776Y0100443D01*
X0026170Y0100443D02*
X0023670Y0097943D01*
X0018670Y0097943D01*
X0016170Y0100443D01*
X0016170Y0115443D01*
X0013670Y0117943D01*
X0008670Y0117943D01*
X0006170Y0115443D01*
X0006170Y0100443D01*
X0008670Y0097943D01*
X0013670Y0097943D01*
X0016170Y0100443D01*
X0026170Y0100443D02*
X0026170Y0115443D01*
X0023670Y0117943D01*
X0018670Y0117943D01*
X0016170Y0115443D01*
D14*
X0014118Y0121185D02*
X0014118Y0125689D01*
X0016370Y0125689D01*
X0017121Y0124938D01*
X0017121Y0123437D01*
X0016370Y0122686D01*
X0014118Y0122686D01*
X0011766Y0121936D02*
X0011015Y0121185D01*
X0010265Y0121185D01*
X0009514Y0121936D01*
X0011766Y0121936D02*
X0011766Y0125689D01*
X0011015Y0125689D02*
X0012517Y0125689D01*
X0018722Y0124188D02*
X0020223Y0125689D01*
X0020223Y0121185D01*
X0018722Y0121185D02*
X0021725Y0121185D01*
X0159120Y0121936D02*
X0159871Y0121185D01*
X0160622Y0121185D01*
X0161372Y0121936D01*
X0161372Y0125689D01*
X0160622Y0125689D02*
X0162123Y0125689D01*
X0163724Y0125689D02*
X0165976Y0125689D01*
X0166727Y0124938D01*
X0166727Y0123437D01*
X0165976Y0122686D01*
X0163724Y0122686D01*
X0163724Y0121185D02*
X0163724Y0125689D01*
X0168328Y0124938D02*
X0169079Y0125689D01*
X0170580Y0125689D01*
X0171331Y0124938D01*
X0171331Y0124188D01*
X0168328Y0121185D01*
X0171331Y0121185D01*
M02*
