G75*
%MOIN*%
%OFA0B0*%
%FSLAX25Y25*%
%IPPOS*%
%LPD*%
%AMOC8*
5,1,8,0,0,1.08239X$1,22.5*
%
%ADD10C,0.00000*%
%ADD11C,0.00400*%
%ADD12C,0.00800*%
%ADD13C,0.00300*%
%ADD14C,0.00600*%
%ADD15C,0.00200*%
D10*
X0002391Y0028415D02*
X0179556Y0028415D01*
X0179556Y0152431D01*
X0002391Y0152431D01*
X0002391Y0028415D01*
X0039418Y0049675D02*
X0039420Y0049785D01*
X0039426Y0049895D01*
X0039436Y0050005D01*
X0039450Y0050114D01*
X0039468Y0050223D01*
X0039489Y0050331D01*
X0039515Y0050438D01*
X0039544Y0050544D01*
X0039578Y0050649D01*
X0039615Y0050753D01*
X0039656Y0050855D01*
X0039700Y0050956D01*
X0039748Y0051055D01*
X0039800Y0051153D01*
X0039855Y0051248D01*
X0039913Y0051341D01*
X0039975Y0051432D01*
X0040040Y0051521D01*
X0040108Y0051608D01*
X0040180Y0051692D01*
X0040254Y0051773D01*
X0040331Y0051852D01*
X0040411Y0051928D01*
X0040494Y0052000D01*
X0040579Y0052070D01*
X0040667Y0052137D01*
X0040757Y0052200D01*
X0040849Y0052260D01*
X0040943Y0052317D01*
X0041040Y0052371D01*
X0041138Y0052420D01*
X0041238Y0052467D01*
X0041340Y0052509D01*
X0041443Y0052548D01*
X0041547Y0052583D01*
X0041653Y0052615D01*
X0041759Y0052642D01*
X0041867Y0052666D01*
X0041975Y0052686D01*
X0042084Y0052702D01*
X0042194Y0052714D01*
X0042304Y0052722D01*
X0042414Y0052726D01*
X0042524Y0052726D01*
X0042634Y0052722D01*
X0042744Y0052714D01*
X0042854Y0052702D01*
X0042963Y0052686D01*
X0043071Y0052666D01*
X0043179Y0052642D01*
X0043285Y0052615D01*
X0043391Y0052583D01*
X0043495Y0052548D01*
X0043598Y0052509D01*
X0043700Y0052467D01*
X0043800Y0052420D01*
X0043898Y0052371D01*
X0043994Y0052317D01*
X0044089Y0052260D01*
X0044181Y0052200D01*
X0044271Y0052137D01*
X0044359Y0052070D01*
X0044444Y0052000D01*
X0044527Y0051928D01*
X0044607Y0051852D01*
X0044684Y0051773D01*
X0044758Y0051692D01*
X0044830Y0051608D01*
X0044898Y0051521D01*
X0044963Y0051432D01*
X0045025Y0051341D01*
X0045083Y0051248D01*
X0045138Y0051153D01*
X0045190Y0051055D01*
X0045238Y0050956D01*
X0045282Y0050855D01*
X0045323Y0050753D01*
X0045360Y0050649D01*
X0045394Y0050544D01*
X0045423Y0050438D01*
X0045449Y0050331D01*
X0045470Y0050223D01*
X0045488Y0050114D01*
X0045502Y0050005D01*
X0045512Y0049895D01*
X0045518Y0049785D01*
X0045520Y0049675D01*
X0045518Y0049565D01*
X0045512Y0049455D01*
X0045502Y0049345D01*
X0045488Y0049236D01*
X0045470Y0049127D01*
X0045449Y0049019D01*
X0045423Y0048912D01*
X0045394Y0048806D01*
X0045360Y0048701D01*
X0045323Y0048597D01*
X0045282Y0048495D01*
X0045238Y0048394D01*
X0045190Y0048295D01*
X0045138Y0048197D01*
X0045083Y0048102D01*
X0045025Y0048009D01*
X0044963Y0047918D01*
X0044898Y0047829D01*
X0044830Y0047742D01*
X0044758Y0047658D01*
X0044684Y0047577D01*
X0044607Y0047498D01*
X0044527Y0047422D01*
X0044444Y0047350D01*
X0044359Y0047280D01*
X0044271Y0047213D01*
X0044181Y0047150D01*
X0044089Y0047090D01*
X0043995Y0047033D01*
X0043898Y0046979D01*
X0043800Y0046930D01*
X0043700Y0046883D01*
X0043598Y0046841D01*
X0043495Y0046802D01*
X0043391Y0046767D01*
X0043285Y0046735D01*
X0043179Y0046708D01*
X0043071Y0046684D01*
X0042963Y0046664D01*
X0042854Y0046648D01*
X0042744Y0046636D01*
X0042634Y0046628D01*
X0042524Y0046624D01*
X0042414Y0046624D01*
X0042304Y0046628D01*
X0042194Y0046636D01*
X0042084Y0046648D01*
X0041975Y0046664D01*
X0041867Y0046684D01*
X0041759Y0046708D01*
X0041653Y0046735D01*
X0041547Y0046767D01*
X0041443Y0046802D01*
X0041340Y0046841D01*
X0041238Y0046883D01*
X0041138Y0046930D01*
X0041040Y0046979D01*
X0040943Y0047033D01*
X0040849Y0047090D01*
X0040757Y0047150D01*
X0040667Y0047213D01*
X0040579Y0047280D01*
X0040494Y0047350D01*
X0040411Y0047422D01*
X0040331Y0047498D01*
X0040254Y0047577D01*
X0040180Y0047658D01*
X0040108Y0047742D01*
X0040040Y0047829D01*
X0039975Y0047918D01*
X0039913Y0048009D01*
X0039855Y0048102D01*
X0039800Y0048197D01*
X0039748Y0048295D01*
X0039700Y0048394D01*
X0039656Y0048495D01*
X0039615Y0048597D01*
X0039578Y0048701D01*
X0039544Y0048806D01*
X0039515Y0048912D01*
X0039489Y0049019D01*
X0039468Y0049127D01*
X0039450Y0049236D01*
X0039436Y0049345D01*
X0039426Y0049455D01*
X0039420Y0049565D01*
X0039418Y0049675D01*
X0134930Y0049675D02*
X0134932Y0049785D01*
X0134938Y0049895D01*
X0134948Y0050005D01*
X0134962Y0050114D01*
X0134980Y0050223D01*
X0135001Y0050331D01*
X0135027Y0050438D01*
X0135056Y0050544D01*
X0135090Y0050649D01*
X0135127Y0050753D01*
X0135168Y0050855D01*
X0135212Y0050956D01*
X0135260Y0051055D01*
X0135312Y0051153D01*
X0135367Y0051248D01*
X0135425Y0051341D01*
X0135487Y0051432D01*
X0135552Y0051521D01*
X0135620Y0051608D01*
X0135692Y0051692D01*
X0135766Y0051773D01*
X0135843Y0051852D01*
X0135923Y0051928D01*
X0136006Y0052000D01*
X0136091Y0052070D01*
X0136179Y0052137D01*
X0136269Y0052200D01*
X0136361Y0052260D01*
X0136455Y0052317D01*
X0136552Y0052371D01*
X0136650Y0052420D01*
X0136750Y0052467D01*
X0136852Y0052509D01*
X0136955Y0052548D01*
X0137059Y0052583D01*
X0137165Y0052615D01*
X0137271Y0052642D01*
X0137379Y0052666D01*
X0137487Y0052686D01*
X0137596Y0052702D01*
X0137706Y0052714D01*
X0137816Y0052722D01*
X0137926Y0052726D01*
X0138036Y0052726D01*
X0138146Y0052722D01*
X0138256Y0052714D01*
X0138366Y0052702D01*
X0138475Y0052686D01*
X0138583Y0052666D01*
X0138691Y0052642D01*
X0138797Y0052615D01*
X0138903Y0052583D01*
X0139007Y0052548D01*
X0139110Y0052509D01*
X0139212Y0052467D01*
X0139312Y0052420D01*
X0139410Y0052371D01*
X0139506Y0052317D01*
X0139601Y0052260D01*
X0139693Y0052200D01*
X0139783Y0052137D01*
X0139871Y0052070D01*
X0139956Y0052000D01*
X0140039Y0051928D01*
X0140119Y0051852D01*
X0140196Y0051773D01*
X0140270Y0051692D01*
X0140342Y0051608D01*
X0140410Y0051521D01*
X0140475Y0051432D01*
X0140537Y0051341D01*
X0140595Y0051248D01*
X0140650Y0051153D01*
X0140702Y0051055D01*
X0140750Y0050956D01*
X0140794Y0050855D01*
X0140835Y0050753D01*
X0140872Y0050649D01*
X0140906Y0050544D01*
X0140935Y0050438D01*
X0140961Y0050331D01*
X0140982Y0050223D01*
X0141000Y0050114D01*
X0141014Y0050005D01*
X0141024Y0049895D01*
X0141030Y0049785D01*
X0141032Y0049675D01*
X0141030Y0049565D01*
X0141024Y0049455D01*
X0141014Y0049345D01*
X0141000Y0049236D01*
X0140982Y0049127D01*
X0140961Y0049019D01*
X0140935Y0048912D01*
X0140906Y0048806D01*
X0140872Y0048701D01*
X0140835Y0048597D01*
X0140794Y0048495D01*
X0140750Y0048394D01*
X0140702Y0048295D01*
X0140650Y0048197D01*
X0140595Y0048102D01*
X0140537Y0048009D01*
X0140475Y0047918D01*
X0140410Y0047829D01*
X0140342Y0047742D01*
X0140270Y0047658D01*
X0140196Y0047577D01*
X0140119Y0047498D01*
X0140039Y0047422D01*
X0139956Y0047350D01*
X0139871Y0047280D01*
X0139783Y0047213D01*
X0139693Y0047150D01*
X0139601Y0047090D01*
X0139507Y0047033D01*
X0139410Y0046979D01*
X0139312Y0046930D01*
X0139212Y0046883D01*
X0139110Y0046841D01*
X0139007Y0046802D01*
X0138903Y0046767D01*
X0138797Y0046735D01*
X0138691Y0046708D01*
X0138583Y0046684D01*
X0138475Y0046664D01*
X0138366Y0046648D01*
X0138256Y0046636D01*
X0138146Y0046628D01*
X0138036Y0046624D01*
X0137926Y0046624D01*
X0137816Y0046628D01*
X0137706Y0046636D01*
X0137596Y0046648D01*
X0137487Y0046664D01*
X0137379Y0046684D01*
X0137271Y0046708D01*
X0137165Y0046735D01*
X0137059Y0046767D01*
X0136955Y0046802D01*
X0136852Y0046841D01*
X0136750Y0046883D01*
X0136650Y0046930D01*
X0136552Y0046979D01*
X0136455Y0047033D01*
X0136361Y0047090D01*
X0136269Y0047150D01*
X0136179Y0047213D01*
X0136091Y0047280D01*
X0136006Y0047350D01*
X0135923Y0047422D01*
X0135843Y0047498D01*
X0135766Y0047577D01*
X0135692Y0047658D01*
X0135620Y0047742D01*
X0135552Y0047829D01*
X0135487Y0047918D01*
X0135425Y0048009D01*
X0135367Y0048102D01*
X0135312Y0048197D01*
X0135260Y0048295D01*
X0135212Y0048394D01*
X0135168Y0048495D01*
X0135127Y0048597D01*
X0135090Y0048701D01*
X0135056Y0048806D01*
X0135027Y0048912D01*
X0135001Y0049019D01*
X0134980Y0049127D01*
X0134962Y0049236D01*
X0134948Y0049345D01*
X0134938Y0049455D01*
X0134932Y0049565D01*
X0134930Y0049675D01*
D11*
X0116757Y0041310D02*
X0116757Y0040543D01*
X0115990Y0039776D01*
X0114456Y0039776D01*
X0113688Y0039008D01*
X0113688Y0038241D01*
X0114456Y0037474D01*
X0115990Y0037474D01*
X0116757Y0038241D01*
X0116757Y0041310D02*
X0115990Y0042078D01*
X0114456Y0042078D01*
X0113688Y0041310D01*
X0112154Y0042078D02*
X0109852Y0042078D01*
X0109084Y0041310D01*
X0109084Y0038241D01*
X0109852Y0037474D01*
X0112154Y0037474D01*
X0112154Y0042078D01*
X0102946Y0042078D02*
X0102946Y0037474D01*
X0100644Y0037474D01*
X0099876Y0038241D01*
X0099876Y0039008D01*
X0100644Y0039776D01*
X0102946Y0039776D01*
X0100644Y0039776D02*
X0099876Y0040543D01*
X0099876Y0041310D01*
X0100644Y0042078D01*
X0102946Y0042078D01*
X0098342Y0037474D02*
X0095273Y0042078D01*
X0093738Y0042078D02*
X0091436Y0042078D01*
X0090669Y0041310D01*
X0090669Y0038241D01*
X0091436Y0037474D01*
X0093738Y0037474D01*
X0093738Y0042078D01*
X0084530Y0042078D02*
X0084530Y0039008D01*
X0082995Y0037474D01*
X0081461Y0039008D01*
X0081461Y0042078D01*
X0079159Y0040543D02*
X0077624Y0040543D01*
X0076857Y0039776D01*
X0076857Y0039008D01*
X0079926Y0039008D01*
X0079926Y0038241D02*
X0079926Y0039776D01*
X0079159Y0040543D01*
X0079926Y0038241D02*
X0079159Y0037474D01*
X0077624Y0037474D01*
X0075322Y0037474D02*
X0075322Y0040543D01*
X0073788Y0040543D02*
X0075322Y0039008D01*
X0073788Y0040543D02*
X0073020Y0040543D01*
X0071486Y0038241D02*
X0070718Y0038241D01*
X0070718Y0037474D01*
X0071486Y0037474D01*
X0071486Y0038241D01*
X0069184Y0037474D02*
X0066114Y0037474D01*
X0064580Y0037474D02*
X0063812Y0037474D01*
X0063812Y0038241D01*
X0064580Y0038241D01*
X0064580Y0037474D01*
X0062278Y0038241D02*
X0059208Y0041310D01*
X0059208Y0038241D01*
X0059976Y0037474D01*
X0061510Y0037474D01*
X0062278Y0038241D01*
X0062278Y0041310D01*
X0061510Y0042078D01*
X0059976Y0042078D01*
X0059208Y0041310D01*
X0067649Y0042078D02*
X0067649Y0037474D01*
X0069184Y0040543D02*
X0067649Y0042078D01*
X0060302Y0100643D02*
X0060302Y0103712D01*
X0061836Y0102177D02*
X0058767Y0102177D01*
X0030734Y0113004D02*
X0027665Y0113004D01*
X0029199Y0114539D02*
X0029199Y0111469D01*
D12*
X0035662Y0109132D02*
X0047749Y0109132D01*
X0047749Y0115415D02*
X0035662Y0115415D01*
X0056769Y0110049D02*
X0056769Y0122136D01*
X0063052Y0122136D02*
X0063052Y0110049D01*
X0039843Y0080095D02*
X0039843Y0054295D01*
X0026843Y0054295D01*
X0026843Y0080095D01*
X0039843Y0080095D01*
D13*
X0037122Y0051496D02*
X0036155Y0051496D01*
X0036638Y0051496D02*
X0036638Y0048594D01*
X0036155Y0048594D02*
X0037122Y0048594D01*
X0035158Y0049077D02*
X0035158Y0051012D01*
X0034674Y0051496D01*
X0033706Y0051496D01*
X0033223Y0051012D01*
X0032211Y0050045D02*
X0030276Y0050045D01*
X0030760Y0048594D02*
X0030760Y0051496D01*
X0032211Y0050045D01*
X0033223Y0049077D02*
X0033706Y0048594D01*
X0034674Y0048594D01*
X0035158Y0049077D01*
X0091144Y0105090D02*
X0092111Y0105090D01*
X0092595Y0105573D01*
X0093606Y0105573D02*
X0094090Y0105090D01*
X0095058Y0105090D01*
X0095541Y0105573D01*
X0095541Y0107508D01*
X0095058Y0107992D01*
X0094090Y0107992D01*
X0093606Y0107508D01*
X0092595Y0107508D02*
X0092111Y0107992D01*
X0091144Y0107992D01*
X0090660Y0107508D01*
X0090660Y0107025D01*
X0091144Y0106541D01*
X0090660Y0106057D01*
X0090660Y0105573D01*
X0091144Y0105090D01*
X0091144Y0106541D02*
X0091627Y0106541D01*
X0074050Y0123644D02*
X0073082Y0123644D01*
X0072599Y0124128D01*
X0071587Y0125095D02*
X0069652Y0125095D01*
X0070136Y0123644D02*
X0070136Y0126547D01*
X0071587Y0125095D01*
X0072599Y0126063D02*
X0073082Y0126547D01*
X0074050Y0126547D01*
X0074534Y0126063D01*
X0074534Y0124128D01*
X0074050Y0123644D01*
X0062707Y0129640D02*
X0062223Y0129156D01*
X0061256Y0129156D01*
X0060772Y0129640D01*
X0059760Y0129156D02*
X0057825Y0131091D01*
X0057825Y0131575D01*
X0058309Y0132058D01*
X0059277Y0132058D01*
X0059760Y0131575D01*
X0060772Y0131575D02*
X0061256Y0132058D01*
X0062223Y0132058D01*
X0062707Y0131575D01*
X0062707Y0129640D01*
X0059760Y0129156D02*
X0057825Y0129156D01*
X0044502Y0121535D02*
X0044502Y0119600D01*
X0044018Y0119117D01*
X0043051Y0119117D01*
X0042567Y0119600D01*
X0041556Y0119117D02*
X0039621Y0119117D01*
X0040588Y0119117D02*
X0040588Y0122019D01*
X0041556Y0121052D01*
X0042567Y0121535D02*
X0043051Y0122019D01*
X0044018Y0122019D01*
X0044502Y0121535D01*
X0118552Y0096428D02*
X0120487Y0096428D01*
X0119519Y0096428D02*
X0119519Y0099331D01*
X0120487Y0098363D01*
X0121498Y0098847D02*
X0121982Y0099331D01*
X0122950Y0099331D01*
X0123433Y0098847D01*
X0123433Y0096912D01*
X0122950Y0096428D01*
X0121982Y0096428D01*
X0121498Y0096912D01*
X0124430Y0096428D02*
X0125398Y0096428D01*
X0124914Y0096428D02*
X0124914Y0099331D01*
X0125398Y0099331D02*
X0124430Y0099331D01*
D14*
X0140119Y0110188D02*
X0103119Y0110188D01*
X0103043Y0110190D01*
X0102967Y0110196D01*
X0102892Y0110205D01*
X0102817Y0110219D01*
X0102743Y0110236D01*
X0102670Y0110257D01*
X0102598Y0110281D01*
X0102527Y0110310D01*
X0102458Y0110341D01*
X0102391Y0110376D01*
X0102326Y0110415D01*
X0102262Y0110457D01*
X0102201Y0110502D01*
X0102142Y0110550D01*
X0102086Y0110601D01*
X0102032Y0110655D01*
X0101981Y0110711D01*
X0101933Y0110770D01*
X0101888Y0110831D01*
X0101846Y0110895D01*
X0101807Y0110960D01*
X0101772Y0111027D01*
X0101741Y0111096D01*
X0101712Y0111167D01*
X0101688Y0111239D01*
X0101667Y0111312D01*
X0101650Y0111386D01*
X0101636Y0111461D01*
X0101627Y0111536D01*
X0101621Y0111612D01*
X0101619Y0111688D01*
X0101619Y0115888D01*
X0101619Y0119888D01*
X0101619Y0124088D01*
X0101621Y0124164D01*
X0101627Y0124240D01*
X0101636Y0124315D01*
X0101650Y0124390D01*
X0101667Y0124464D01*
X0101688Y0124537D01*
X0101712Y0124609D01*
X0101741Y0124680D01*
X0101772Y0124749D01*
X0101807Y0124816D01*
X0101846Y0124881D01*
X0101888Y0124945D01*
X0101933Y0125006D01*
X0101981Y0125065D01*
X0102032Y0125121D01*
X0102086Y0125175D01*
X0102142Y0125226D01*
X0102201Y0125274D01*
X0102262Y0125319D01*
X0102326Y0125361D01*
X0102391Y0125400D01*
X0102458Y0125435D01*
X0102527Y0125466D01*
X0102598Y0125495D01*
X0102670Y0125519D01*
X0102743Y0125540D01*
X0102817Y0125557D01*
X0102892Y0125571D01*
X0102967Y0125580D01*
X0103043Y0125586D01*
X0103119Y0125588D01*
X0140119Y0125588D01*
X0140195Y0125586D01*
X0140271Y0125580D01*
X0140346Y0125571D01*
X0140421Y0125557D01*
X0140495Y0125540D01*
X0140568Y0125519D01*
X0140640Y0125495D01*
X0140711Y0125466D01*
X0140780Y0125435D01*
X0140847Y0125400D01*
X0140912Y0125361D01*
X0140976Y0125319D01*
X0141037Y0125274D01*
X0141096Y0125226D01*
X0141152Y0125175D01*
X0141206Y0125121D01*
X0141257Y0125065D01*
X0141305Y0125006D01*
X0141350Y0124945D01*
X0141392Y0124881D01*
X0141431Y0124816D01*
X0141466Y0124749D01*
X0141497Y0124680D01*
X0141526Y0124609D01*
X0141550Y0124537D01*
X0141571Y0124464D01*
X0141588Y0124390D01*
X0141602Y0124315D01*
X0141611Y0124240D01*
X0141617Y0124164D01*
X0141619Y0124088D01*
X0141619Y0111688D01*
X0141617Y0111612D01*
X0141611Y0111536D01*
X0141602Y0111461D01*
X0141588Y0111386D01*
X0141571Y0111312D01*
X0141550Y0111239D01*
X0141526Y0111167D01*
X0141497Y0111096D01*
X0141466Y0111027D01*
X0141431Y0110960D01*
X0141392Y0110895D01*
X0141350Y0110831D01*
X0141305Y0110770D01*
X0141257Y0110711D01*
X0141206Y0110655D01*
X0141152Y0110601D01*
X0141096Y0110550D01*
X0141037Y0110502D01*
X0140976Y0110457D01*
X0140912Y0110415D01*
X0140847Y0110376D01*
X0140780Y0110341D01*
X0140711Y0110310D01*
X0140640Y0110281D01*
X0140568Y0110257D01*
X0140495Y0110236D01*
X0140421Y0110219D01*
X0140346Y0110205D01*
X0140271Y0110196D01*
X0140195Y0110190D01*
X0140119Y0110188D01*
X0101619Y0115888D02*
X0101707Y0115890D01*
X0101796Y0115896D01*
X0101884Y0115906D01*
X0101971Y0115919D01*
X0102058Y0115937D01*
X0102144Y0115958D01*
X0102229Y0115983D01*
X0102312Y0116012D01*
X0102395Y0116045D01*
X0102475Y0116081D01*
X0102554Y0116120D01*
X0102632Y0116163D01*
X0102707Y0116210D01*
X0102780Y0116260D01*
X0102851Y0116313D01*
X0102920Y0116369D01*
X0102986Y0116428D01*
X0103049Y0116490D01*
X0103109Y0116554D01*
X0103167Y0116621D01*
X0103221Y0116691D01*
X0103273Y0116763D01*
X0103321Y0116837D01*
X0103366Y0116914D01*
X0103407Y0116992D01*
X0103445Y0117072D01*
X0103479Y0117153D01*
X0103510Y0117236D01*
X0103537Y0117321D01*
X0103560Y0117406D01*
X0103579Y0117492D01*
X0103595Y0117580D01*
X0103607Y0117667D01*
X0103615Y0117755D01*
X0103619Y0117844D01*
X0103619Y0117932D01*
X0103615Y0118021D01*
X0103607Y0118109D01*
X0103595Y0118196D01*
X0103579Y0118284D01*
X0103560Y0118370D01*
X0103537Y0118455D01*
X0103510Y0118540D01*
X0103479Y0118623D01*
X0103445Y0118704D01*
X0103407Y0118784D01*
X0103366Y0118862D01*
X0103321Y0118939D01*
X0103273Y0119013D01*
X0103221Y0119085D01*
X0103167Y0119155D01*
X0103109Y0119222D01*
X0103049Y0119286D01*
X0102986Y0119348D01*
X0102920Y0119407D01*
X0102851Y0119463D01*
X0102780Y0119516D01*
X0102707Y0119566D01*
X0102632Y0119613D01*
X0102554Y0119656D01*
X0102475Y0119695D01*
X0102395Y0119731D01*
X0102312Y0119764D01*
X0102229Y0119793D01*
X0102144Y0119818D01*
X0102058Y0119839D01*
X0101971Y0119857D01*
X0101884Y0119870D01*
X0101796Y0119880D01*
X0101707Y0119886D01*
X0101619Y0119888D01*
D15*
X0101619Y0124188D02*
X0141619Y0124188D01*
M02*
