G75*
%MOIN*%
%OFA0B0*%
%FSLAX25Y25*%
%IPPOS*%
%LPD*%
%AMOC8*
5,1,8,0,0,1.08239X$1,22.5*
%
%ADD10R,0.08800X0.04800*%
%ADD11R,0.08661X0.14173*%
%ADD12R,0.02600X0.08000*%
%ADD13R,0.04724X0.07874*%
%ADD14R,0.05906X0.05118*%
%ADD15R,0.07874X0.04724*%
%ADD16OC8,0.06000*%
%ADD17C,0.05000*%
%ADD18C,0.04000*%
%ADD19C,0.01600*%
%ADD20C,0.03175*%
%ADD21C,0.16598*%
D10*
X0021143Y0058095D03*
X0021143Y0067195D03*
X0021143Y0076295D03*
D11*
X0045544Y0067195D03*
D12*
X0104119Y0105788D03*
X0109119Y0105788D03*
X0114119Y0105788D03*
X0119119Y0105788D03*
X0124119Y0105788D03*
X0129119Y0105788D03*
X0134119Y0105788D03*
X0139119Y0105788D03*
X0139119Y0129988D03*
X0134119Y0129988D03*
X0129119Y0129988D03*
X0124119Y0129988D03*
X0119119Y0129988D03*
X0114119Y0129988D03*
X0109119Y0129988D03*
X0104119Y0129988D03*
D13*
X0059910Y0121604D03*
X0059910Y0110581D03*
D14*
X0071737Y0110510D03*
X0071737Y0117203D03*
X0092745Y0120352D03*
X0092745Y0113659D03*
D15*
X0047217Y0112274D03*
X0036194Y0112274D03*
D16*
X0021170Y0112943D03*
X0011170Y0112943D03*
X0011170Y0102943D03*
X0021170Y0102943D03*
X0160776Y0102943D03*
X0160776Y0112943D03*
X0170776Y0112943D03*
X0170776Y0102943D03*
D17*
X0045544Y0067195D02*
X0021143Y0067195D01*
X0021143Y0076295D02*
X0021170Y0076322D01*
X0021170Y0102943D01*
D18*
X0026863Y0102943D01*
X0036194Y0112274D01*
X0059910Y0110581D02*
X0071666Y0110581D01*
X0071737Y0110510D01*
X0075627Y0110510D01*
X0085658Y0120541D01*
X0092556Y0120541D01*
X0092745Y0120352D01*
X0059910Y0110581D02*
X0059910Y0081561D01*
X0045544Y0067195D01*
D19*
X0021778Y0033803D02*
X0020359Y0033215D01*
X0161587Y0033215D01*
X0160169Y0033803D01*
X0157384Y0036587D01*
X0155877Y0040226D01*
X0155877Y0044164D01*
X0157384Y0047802D01*
X0160169Y0050587D01*
X0163807Y0052094D01*
X0167745Y0052094D01*
X0171384Y0050587D01*
X0174169Y0047802D01*
X0174756Y0046384D01*
X0174756Y0100417D01*
X0173176Y0098838D01*
X0173176Y0098292D01*
X0172811Y0097410D01*
X0168205Y0092804D01*
X0167530Y0092129D01*
X0166647Y0091763D01*
X0152504Y0091763D01*
X0151622Y0092129D01*
X0147685Y0096066D01*
X0147009Y0096741D01*
X0146644Y0097623D01*
X0146644Y0107539D01*
X0132084Y0122099D01*
X0131719Y0122981D01*
X0131719Y0124825D01*
X0131619Y0124925D01*
X0131082Y0124388D01*
X0127156Y0124388D01*
X0126619Y0124925D01*
X0126519Y0124825D01*
X0126519Y0124277D01*
X0126637Y0124228D01*
X0127534Y0123331D01*
X0128019Y0122160D01*
X0128019Y0120892D01*
X0127534Y0119720D01*
X0126637Y0118823D01*
X0125466Y0118338D01*
X0124197Y0118338D01*
X0123026Y0118823D01*
X0122129Y0119720D01*
X0121644Y0120892D01*
X0121644Y0122160D01*
X0121719Y0122340D01*
X0121719Y0124825D01*
X0121619Y0124925D01*
X0121082Y0124388D01*
X0117156Y0124388D01*
X0116619Y0124925D01*
X0116519Y0124825D01*
X0116519Y0116977D01*
X0116598Y0116944D01*
X0117494Y0116048D01*
X0117980Y0114876D01*
X0117980Y0113608D01*
X0117494Y0112437D01*
X0116598Y0111540D01*
X0116240Y0111392D01*
X0116524Y0111228D01*
X0116760Y0110992D01*
X0117156Y0111388D01*
X0121082Y0111388D01*
X0121619Y0110851D01*
X0122156Y0111388D01*
X0126082Y0111388D01*
X0126477Y0110992D01*
X0126714Y0111228D01*
X0127124Y0111465D01*
X0127582Y0111588D01*
X0129119Y0111588D01*
X0129119Y0105788D01*
X0129119Y0105788D01*
X0129119Y0111588D01*
X0130656Y0111588D01*
X0131114Y0111465D01*
X0131524Y0111228D01*
X0131760Y0110992D01*
X0132156Y0111388D01*
X0136082Y0111388D01*
X0136477Y0110992D01*
X0136714Y0111228D01*
X0137124Y0111465D01*
X0137582Y0111588D01*
X0139119Y0111588D01*
X0139119Y0105788D01*
X0139119Y0105788D01*
X0142219Y0105788D01*
X0142219Y0110025D01*
X0142096Y0110483D01*
X0141859Y0110893D01*
X0141524Y0111228D01*
X0141114Y0111465D01*
X0140656Y0111588D01*
X0139119Y0111588D01*
X0139119Y0105788D01*
X0139119Y0105788D01*
X0142219Y0105788D01*
X0142219Y0101551D01*
X0142096Y0101093D01*
X0141859Y0100683D01*
X0141524Y0100347D01*
X0141114Y0100110D01*
X0140656Y0099988D01*
X0139119Y0099988D01*
X0139119Y0105788D01*
X0139119Y0105788D01*
X0139119Y0099988D01*
X0137582Y0099988D01*
X0137124Y0100110D01*
X0136714Y0100347D01*
X0136477Y0100584D01*
X0136082Y0100188D01*
X0132156Y0100188D01*
X0131760Y0100584D01*
X0131524Y0100347D01*
X0131114Y0100110D01*
X0130656Y0099988D01*
X0129119Y0099988D01*
X0129119Y0105788D01*
X0129119Y0105788D01*
X0129119Y0099988D01*
X0127582Y0099988D01*
X0127124Y0100110D01*
X0126714Y0100347D01*
X0126477Y0100584D01*
X0126082Y0100188D01*
X0122156Y0100188D01*
X0121619Y0100725D01*
X0121082Y0100188D01*
X0117156Y0100188D01*
X0116760Y0100584D01*
X0116524Y0100347D01*
X0116114Y0100110D01*
X0115656Y0099988D01*
X0114119Y0099988D01*
X0114119Y0105788D01*
X0114119Y0105788D01*
X0114119Y0099988D01*
X0112582Y0099988D01*
X0112124Y0100110D01*
X0111714Y0100347D01*
X0111477Y0100584D01*
X0111082Y0100188D01*
X0107156Y0100188D01*
X0106619Y0100725D01*
X0106082Y0100188D01*
X0102156Y0100188D01*
X0101219Y0101125D01*
X0101219Y0110451D01*
X0102156Y0111388D01*
X0106082Y0111388D01*
X0106619Y0110851D01*
X0107156Y0111388D01*
X0111082Y0111388D01*
X0111477Y0110992D01*
X0111714Y0111228D01*
X0112124Y0111465D01*
X0112582Y0111588D01*
X0112939Y0111588D01*
X0112090Y0112437D01*
X0111605Y0113608D01*
X0111605Y0114876D01*
X0111719Y0115152D01*
X0111719Y0120510D01*
X0111392Y0119720D01*
X0110495Y0118823D01*
X0109324Y0118338D01*
X0108056Y0118338D01*
X0106884Y0118823D01*
X0105988Y0119720D01*
X0105502Y0120892D01*
X0105502Y0122160D01*
X0105988Y0123331D01*
X0106489Y0123832D01*
X0106489Y0124673D01*
X0106154Y0123863D01*
X0101276Y0118985D01*
X0100600Y0118310D01*
X0099718Y0117944D01*
X0097298Y0117944D01*
X0097298Y0117131D01*
X0097267Y0117100D01*
X0097375Y0116913D01*
X0097498Y0116455D01*
X0097498Y0114139D01*
X0093224Y0114139D01*
X0093224Y0113180D01*
X0093224Y0109300D01*
X0095935Y0109300D01*
X0096392Y0109423D01*
X0096803Y0109660D01*
X0097138Y0109995D01*
X0097375Y0110406D01*
X0097498Y0110863D01*
X0097498Y0113180D01*
X0093224Y0113180D01*
X0092265Y0113180D01*
X0087992Y0113180D01*
X0087992Y0110863D01*
X0088115Y0110406D01*
X0088352Y0109995D01*
X0088687Y0109660D01*
X0089097Y0109423D01*
X0089555Y0109300D01*
X0092265Y0109300D01*
X0092265Y0113180D01*
X0092265Y0114139D01*
X0087992Y0114139D01*
X0087992Y0116455D01*
X0088115Y0116913D01*
X0088131Y0116941D01*
X0087149Y0116941D01*
X0077666Y0107458D01*
X0076343Y0106910D01*
X0075912Y0106910D01*
X0075352Y0106351D01*
X0068122Y0106351D01*
X0067492Y0106981D01*
X0063872Y0106981D01*
X0063872Y0105981D01*
X0063510Y0105619D01*
X0063510Y0080845D01*
X0062962Y0079522D01*
X0051475Y0068034D01*
X0051475Y0059446D01*
X0050538Y0058508D01*
X0040551Y0058508D01*
X0039613Y0059446D01*
X0039613Y0063095D01*
X0020328Y0063095D01*
X0020086Y0063195D01*
X0016081Y0063195D01*
X0015143Y0064132D01*
X0015143Y0070258D01*
X0016081Y0071195D01*
X0020086Y0071195D01*
X0020328Y0071295D01*
X0039613Y0071295D01*
X0039613Y0074944D01*
X0040551Y0075881D01*
X0049140Y0075881D01*
X0056310Y0083052D01*
X0056310Y0105619D01*
X0055948Y0105981D01*
X0055948Y0115180D01*
X0056793Y0116025D01*
X0056443Y0116227D01*
X0056108Y0116562D01*
X0055871Y0116973D01*
X0055748Y0117430D01*
X0055748Y0121223D01*
X0059529Y0121223D01*
X0059529Y0121985D01*
X0055748Y0121985D01*
X0055748Y0125778D01*
X0055871Y0126236D01*
X0056108Y0126647D01*
X0056443Y0126982D01*
X0056853Y0127219D01*
X0057311Y0127341D01*
X0059529Y0127341D01*
X0059529Y0121986D01*
X0060291Y0121986D01*
X0060291Y0127341D01*
X0062509Y0127341D01*
X0062967Y0127219D01*
X0063378Y0126982D01*
X0063713Y0126647D01*
X0063950Y0126236D01*
X0064072Y0125778D01*
X0064072Y0121985D01*
X0060291Y0121985D01*
X0060291Y0121223D01*
X0064072Y0121223D01*
X0064072Y0117430D01*
X0063950Y0116973D01*
X0063713Y0116562D01*
X0063378Y0116227D01*
X0063028Y0116025D01*
X0063872Y0115180D01*
X0063872Y0114181D01*
X0067045Y0114181D01*
X0066984Y0114407D01*
X0066984Y0116723D01*
X0071257Y0116723D01*
X0071257Y0117682D01*
X0066984Y0117682D01*
X0066984Y0119999D01*
X0067107Y0120457D01*
X0067344Y0120867D01*
X0067679Y0121202D01*
X0068089Y0121439D01*
X0068547Y0121562D01*
X0071257Y0121562D01*
X0071257Y0117682D01*
X0072217Y0117682D01*
X0076490Y0117682D01*
X0076490Y0119999D01*
X0076367Y0120457D01*
X0076130Y0120867D01*
X0075795Y0121202D01*
X0075385Y0121439D01*
X0074927Y0121562D01*
X0072217Y0121562D01*
X0072217Y0117682D01*
X0072217Y0116723D01*
X0076490Y0116723D01*
X0076490Y0116464D01*
X0082606Y0122581D01*
X0083619Y0123593D01*
X0084942Y0124141D01*
X0088759Y0124141D01*
X0089129Y0124511D01*
X0096360Y0124511D01*
X0097298Y0123574D01*
X0097298Y0122744D01*
X0098247Y0122744D01*
X0101219Y0125717D01*
X0101219Y0126212D01*
X0093671Y0126212D01*
X0093369Y0125910D01*
X0092198Y0125425D01*
X0090930Y0125425D01*
X0089758Y0125910D01*
X0088862Y0126807D01*
X0088376Y0127978D01*
X0088376Y0129246D01*
X0088862Y0130418D01*
X0089758Y0131314D01*
X0090930Y0131800D01*
X0092198Y0131800D01*
X0093369Y0131314D01*
X0093671Y0131012D01*
X0101219Y0131012D01*
X0101219Y0134651D01*
X0102156Y0135588D01*
X0106082Y0135588D01*
X0106619Y0135051D01*
X0107156Y0135588D01*
X0111082Y0135588D01*
X0111619Y0135051D01*
X0112156Y0135588D01*
X0114659Y0135588D01*
X0113798Y0136448D01*
X0112372Y0136448D01*
X0112070Y0136146D01*
X0110899Y0135661D01*
X0109631Y0135661D01*
X0108459Y0136146D01*
X0107562Y0137043D01*
X0107077Y0138214D01*
X0107077Y0139482D01*
X0107562Y0140654D01*
X0108459Y0141551D01*
X0109631Y0142036D01*
X0110899Y0142036D01*
X0112070Y0141551D01*
X0112372Y0141248D01*
X0115270Y0141248D01*
X0116152Y0140883D01*
X0121154Y0135881D01*
X0121412Y0135258D01*
X0121619Y0135051D01*
X0122156Y0135588D01*
X0125868Y0135588D01*
X0124994Y0135949D01*
X0124098Y0136846D01*
X0123613Y0138018D01*
X0123613Y0139286D01*
X0124098Y0140457D01*
X0124994Y0141354D01*
X0126166Y0141839D01*
X0127434Y0141839D01*
X0128606Y0141354D01*
X0129502Y0140457D01*
X0129987Y0139286D01*
X0129987Y0139145D01*
X0130211Y0138962D01*
X0130325Y0138915D01*
X0130578Y0138662D01*
X0130855Y0138435D01*
X0130913Y0138327D01*
X0131000Y0138239D01*
X0131137Y0137909D01*
X0131306Y0137594D01*
X0131318Y0137471D01*
X0131365Y0137357D01*
X0131365Y0137000D01*
X0131401Y0136644D01*
X0131365Y0136526D01*
X0131365Y0135304D01*
X0131619Y0135051D01*
X0132156Y0135588D01*
X0136082Y0135588D01*
X0136477Y0135192D01*
X0136714Y0135428D01*
X0137124Y0135665D01*
X0137582Y0135788D01*
X0139119Y0135788D01*
X0139119Y0129988D01*
X0139119Y0129988D01*
X0142219Y0129988D01*
X0142219Y0134225D01*
X0142096Y0134683D01*
X0141859Y0135093D01*
X0141524Y0135428D01*
X0141114Y0135665D01*
X0140656Y0135788D01*
X0139119Y0135788D01*
X0139119Y0129988D01*
X0139119Y0129988D01*
X0142219Y0129988D01*
X0142219Y0125751D01*
X0142096Y0125293D01*
X0141859Y0124883D01*
X0141524Y0124547D01*
X0141114Y0124310D01*
X0140656Y0124188D01*
X0139119Y0124188D01*
X0139119Y0129988D01*
X0139119Y0129988D01*
X0139119Y0124188D01*
X0137582Y0124188D01*
X0137124Y0124310D01*
X0136714Y0124547D01*
X0136519Y0124742D01*
X0136519Y0124453D01*
X0150404Y0110568D01*
X0151079Y0109893D01*
X0151444Y0109011D01*
X0151444Y0099095D01*
X0153975Y0096563D01*
X0165176Y0096563D01*
X0167913Y0099301D01*
X0166176Y0101038D01*
X0166176Y0104848D01*
X0168871Y0107543D01*
X0172682Y0107543D01*
X0174756Y0105469D01*
X0174756Y0110417D01*
X0172682Y0108343D01*
X0168871Y0108343D01*
X0166176Y0111038D01*
X0166176Y0114848D01*
X0168871Y0117543D01*
X0172682Y0117543D01*
X0174756Y0115469D01*
X0174756Y0147631D01*
X0007191Y0147631D01*
X0007191Y0115469D01*
X0009265Y0117543D01*
X0013075Y0117543D01*
X0015770Y0114848D01*
X0015770Y0111038D01*
X0013075Y0108343D01*
X0009265Y0108343D01*
X0007191Y0110417D01*
X0007191Y0105752D01*
X0009182Y0107743D01*
X0010970Y0107743D01*
X0010970Y0103143D01*
X0011370Y0103143D01*
X0011370Y0107743D01*
X0013158Y0107743D01*
X0015970Y0104931D01*
X0015970Y0103143D01*
X0011370Y0103143D01*
X0011370Y0102743D01*
X0015970Y0102743D01*
X0015970Y0100955D01*
X0013158Y0098143D01*
X0011370Y0098143D01*
X0011370Y0102743D01*
X0010970Y0102743D01*
X0010970Y0098143D01*
X0009182Y0098143D01*
X0007191Y0100134D01*
X0007191Y0046384D01*
X0007778Y0047802D01*
X0010563Y0050587D01*
X0014201Y0052094D01*
X0018139Y0052094D01*
X0021778Y0050587D01*
X0024562Y0047802D01*
X0026069Y0044164D01*
X0026069Y0040226D01*
X0024562Y0036587D01*
X0021778Y0033803D01*
X0022784Y0034809D02*
X0159162Y0034809D01*
X0157564Y0036408D02*
X0024383Y0036408D01*
X0025150Y0038006D02*
X0156796Y0038006D01*
X0156134Y0039605D02*
X0025812Y0039605D01*
X0026069Y0041203D02*
X0155877Y0041203D01*
X0155877Y0042802D02*
X0141904Y0042802D01*
X0142428Y0043019D02*
X0144637Y0045228D01*
X0145832Y0048113D01*
X0145832Y0051237D01*
X0144637Y0054123D01*
X0142428Y0056331D01*
X0139543Y0057526D01*
X0136419Y0057526D01*
X0133534Y0056331D01*
X0131325Y0054123D01*
X0130130Y0051237D01*
X0130130Y0048113D01*
X0131325Y0045228D01*
X0133534Y0043019D01*
X0136419Y0041824D01*
X0139543Y0041824D01*
X0142428Y0043019D01*
X0143810Y0044400D02*
X0155975Y0044400D01*
X0156637Y0045999D02*
X0144956Y0045999D01*
X0145619Y0047597D02*
X0157299Y0047597D01*
X0158778Y0049196D02*
X0145832Y0049196D01*
X0145832Y0050795D02*
X0160670Y0050795D01*
X0170883Y0050795D02*
X0174756Y0050795D01*
X0174756Y0052393D02*
X0145353Y0052393D01*
X0144691Y0053992D02*
X0174756Y0053992D01*
X0174756Y0055590D02*
X0143169Y0055590D01*
X0140358Y0057189D02*
X0174756Y0057189D01*
X0174756Y0058787D02*
X0050816Y0058787D01*
X0051475Y0060386D02*
X0174756Y0060386D01*
X0174756Y0061984D02*
X0051475Y0061984D01*
X0051475Y0063583D02*
X0174756Y0063583D01*
X0174756Y0065181D02*
X0051475Y0065181D01*
X0051475Y0066780D02*
X0174756Y0066780D01*
X0174756Y0068378D02*
X0051819Y0068378D01*
X0053417Y0069977D02*
X0174756Y0069977D01*
X0174756Y0071575D02*
X0055016Y0071575D01*
X0056614Y0073174D02*
X0174756Y0073174D01*
X0174756Y0074772D02*
X0058213Y0074772D01*
X0059811Y0076371D02*
X0174756Y0076371D01*
X0174756Y0077969D02*
X0061410Y0077969D01*
X0062981Y0079568D02*
X0174756Y0079568D01*
X0174756Y0081166D02*
X0063510Y0081166D01*
X0063510Y0082765D02*
X0174756Y0082765D01*
X0174756Y0084363D02*
X0063510Y0084363D01*
X0063510Y0085962D02*
X0174756Y0085962D01*
X0174756Y0087560D02*
X0063510Y0087560D01*
X0063510Y0089159D02*
X0174756Y0089159D01*
X0174756Y0090757D02*
X0063510Y0090757D01*
X0063510Y0092356D02*
X0151395Y0092356D01*
X0149796Y0093954D02*
X0063510Y0093954D01*
X0063510Y0095553D02*
X0148198Y0095553D01*
X0146839Y0097151D02*
X0063510Y0097151D01*
X0063510Y0098750D02*
X0146644Y0098750D01*
X0146644Y0100348D02*
X0141525Y0100348D01*
X0142219Y0101947D02*
X0146644Y0101947D01*
X0146644Y0103545D02*
X0142219Y0103545D01*
X0142219Y0105144D02*
X0146644Y0105144D01*
X0146644Y0106742D02*
X0142219Y0106742D01*
X0142219Y0108341D02*
X0145843Y0108341D01*
X0144244Y0109939D02*
X0142219Y0109939D01*
X0142645Y0111538D02*
X0140842Y0111538D01*
X0141047Y0113136D02*
X0117784Y0113136D01*
X0117980Y0114735D02*
X0139448Y0114735D01*
X0137850Y0116333D02*
X0117208Y0116333D01*
X0116519Y0117932D02*
X0136251Y0117932D01*
X0134653Y0119530D02*
X0127344Y0119530D01*
X0128019Y0121129D02*
X0133054Y0121129D01*
X0131824Y0122728D02*
X0127784Y0122728D01*
X0126519Y0124326D02*
X0131719Y0124326D01*
X0134119Y0123459D02*
X0149044Y0108533D01*
X0149044Y0098100D01*
X0152981Y0094163D01*
X0166170Y0094163D01*
X0170776Y0098770D01*
X0170776Y0102943D01*
X0168070Y0106742D02*
X0163482Y0106742D01*
X0162682Y0107543D02*
X0158871Y0107543D01*
X0156176Y0104848D01*
X0156176Y0101038D01*
X0158871Y0098343D01*
X0162682Y0098343D01*
X0165376Y0101038D01*
X0165376Y0104848D01*
X0162682Y0107543D01*
X0162765Y0108143D02*
X0165576Y0110955D01*
X0165576Y0112743D01*
X0160976Y0112743D01*
X0160976Y0108143D01*
X0162765Y0108143D01*
X0162963Y0108341D02*
X0174756Y0108341D01*
X0174756Y0109939D02*
X0174278Y0109939D01*
X0174756Y0106742D02*
X0173482Y0106742D01*
X0167274Y0109939D02*
X0164561Y0109939D01*
X0165576Y0111538D02*
X0166176Y0111538D01*
X0166176Y0113136D02*
X0160976Y0113136D01*
X0160976Y0113143D02*
X0165576Y0113143D01*
X0165576Y0114931D01*
X0162765Y0117743D01*
X0160976Y0117743D01*
X0160976Y0113143D01*
X0160576Y0113143D01*
X0160576Y0112743D01*
X0155976Y0112743D01*
X0155976Y0110955D01*
X0158788Y0108143D01*
X0160576Y0108143D01*
X0160576Y0112743D01*
X0160976Y0112743D01*
X0160976Y0113143D01*
X0160576Y0113143D02*
X0160576Y0117743D01*
X0158788Y0117743D01*
X0155976Y0114931D01*
X0155976Y0113143D01*
X0160576Y0113143D01*
X0160576Y0113136D02*
X0147835Y0113136D01*
X0149434Y0111538D02*
X0155976Y0111538D01*
X0156992Y0109939D02*
X0151032Y0109939D01*
X0151444Y0108341D02*
X0158590Y0108341D01*
X0158070Y0106742D02*
X0151444Y0106742D01*
X0151444Y0105144D02*
X0156472Y0105144D01*
X0156176Y0103545D02*
X0151444Y0103545D01*
X0151444Y0101947D02*
X0156176Y0101947D01*
X0156866Y0100348D02*
X0151444Y0100348D01*
X0151789Y0098750D02*
X0158464Y0098750D01*
X0163089Y0098750D02*
X0167362Y0098750D01*
X0166866Y0100348D02*
X0164687Y0100348D01*
X0165376Y0101947D02*
X0166176Y0101947D01*
X0166176Y0103545D02*
X0165376Y0103545D01*
X0165081Y0105144D02*
X0166472Y0105144D01*
X0160976Y0108341D02*
X0160576Y0108341D01*
X0160576Y0109939D02*
X0160976Y0109939D01*
X0160976Y0111538D02*
X0160576Y0111538D01*
X0160576Y0114735D02*
X0160976Y0114735D01*
X0160976Y0116333D02*
X0160576Y0116333D01*
X0157379Y0116333D02*
X0144638Y0116333D01*
X0146237Y0114735D02*
X0155976Y0114735D01*
X0164174Y0116333D02*
X0167662Y0116333D01*
X0166176Y0114735D02*
X0165576Y0114735D01*
X0173891Y0116333D02*
X0174756Y0116333D01*
X0174756Y0117932D02*
X0143040Y0117932D01*
X0141441Y0119530D02*
X0174756Y0119530D01*
X0174756Y0121129D02*
X0139843Y0121129D01*
X0138244Y0122728D02*
X0174756Y0122728D01*
X0174756Y0124326D02*
X0141141Y0124326D01*
X0142219Y0125925D02*
X0174756Y0125925D01*
X0174756Y0127523D02*
X0142219Y0127523D01*
X0142219Y0129122D02*
X0174756Y0129122D01*
X0174756Y0130720D02*
X0142219Y0130720D01*
X0142219Y0132319D02*
X0174756Y0132319D01*
X0174756Y0133917D02*
X0142219Y0133917D01*
X0141373Y0135516D02*
X0174756Y0135516D01*
X0174756Y0137114D02*
X0131365Y0137114D01*
X0131365Y0135516D02*
X0132084Y0135516D01*
X0128965Y0136880D02*
X0128965Y0130141D01*
X0129119Y0129988D01*
X0134119Y0129988D02*
X0134119Y0123459D01*
X0136646Y0124326D02*
X0137097Y0124326D01*
X0139119Y0124326D02*
X0139119Y0124326D01*
X0139119Y0125925D02*
X0139119Y0125925D01*
X0139119Y0127523D02*
X0139119Y0127523D01*
X0139119Y0129122D02*
X0139119Y0129122D01*
X0139119Y0130720D02*
X0139119Y0130720D01*
X0139119Y0132319D02*
X0139119Y0132319D01*
X0139119Y0133917D02*
X0139119Y0133917D01*
X0139119Y0135516D02*
X0139119Y0135516D01*
X0136865Y0135516D02*
X0136154Y0135516D01*
X0130527Y0138713D02*
X0174756Y0138713D01*
X0174756Y0140311D02*
X0129563Y0140311D01*
X0126800Y0138652D02*
X0128965Y0136880D01*
X0123987Y0137114D02*
X0119921Y0137114D01*
X0121305Y0135516D02*
X0122084Y0135516D01*
X0119119Y0134522D02*
X0114792Y0138848D01*
X0110265Y0138848D01*
X0107077Y0138713D02*
X0097683Y0138713D01*
X0097612Y0138882D02*
X0096716Y0139779D01*
X0095544Y0140264D01*
X0094276Y0140264D01*
X0093105Y0139779D01*
X0092803Y0139477D01*
X0033803Y0139477D01*
X0032921Y0139111D01*
X0019057Y0125247D01*
X0018691Y0124365D01*
X0018691Y0116970D01*
X0016570Y0114848D01*
X0016570Y0111038D01*
X0019265Y0108343D01*
X0023075Y0108343D01*
X0025770Y0111038D01*
X0025770Y0114848D01*
X0023491Y0117127D01*
X0023491Y0122894D01*
X0035274Y0134677D01*
X0092803Y0134677D01*
X0093105Y0134375D01*
X0094276Y0133889D01*
X0095544Y0133889D01*
X0096716Y0134375D01*
X0097612Y0135271D01*
X0098098Y0136443D01*
X0098098Y0137711D01*
X0097612Y0138882D01*
X0098098Y0137114D02*
X0107533Y0137114D01*
X0107084Y0135516D02*
X0106154Y0135516D01*
X0111154Y0135516D02*
X0112084Y0135516D01*
X0116723Y0140311D02*
X0124037Y0140311D01*
X0123613Y0138713D02*
X0118322Y0138713D01*
X0119119Y0134522D02*
X0119119Y0129988D01*
X0124119Y0129988D02*
X0124119Y0122238D01*
X0124831Y0121526D01*
X0122319Y0119530D02*
X0116519Y0119530D01*
X0116519Y0121129D02*
X0121644Y0121129D01*
X0121719Y0122728D02*
X0116519Y0122728D01*
X0116519Y0124326D02*
X0121719Y0124326D01*
X0114119Y0129988D02*
X0114119Y0114915D01*
X0114792Y0114242D01*
X0111800Y0113136D02*
X0097498Y0113136D01*
X0097498Y0111538D02*
X0112396Y0111538D01*
X0111605Y0114735D02*
X0097498Y0114735D01*
X0097498Y0116333D02*
X0111719Y0116333D01*
X0111719Y0117932D02*
X0097298Y0117932D01*
X0099241Y0120344D02*
X0092753Y0120344D01*
X0092745Y0120352D01*
X0096546Y0124326D02*
X0099828Y0124326D01*
X0101219Y0125925D02*
X0093384Y0125925D01*
X0091564Y0128612D02*
X0102743Y0128612D01*
X0104119Y0129988D01*
X0104119Y0125222D01*
X0099241Y0120344D01*
X0101821Y0119530D02*
X0106177Y0119530D01*
X0105502Y0121129D02*
X0103420Y0121129D01*
X0105018Y0122728D02*
X0105738Y0122728D01*
X0106345Y0124326D02*
X0106489Y0124326D01*
X0108889Y0121725D02*
X0108690Y0121526D01*
X0108889Y0121725D02*
X0108889Y0129988D01*
X0108887Y0129990D01*
X0108889Y0129988D02*
X0109119Y0129988D01*
X0101219Y0132319D02*
X0032916Y0132319D01*
X0034515Y0133917D02*
X0094209Y0133917D01*
X0095611Y0133917D02*
X0101219Y0133917D01*
X0102084Y0135516D02*
X0097714Y0135516D01*
X0094910Y0137077D02*
X0034280Y0137077D01*
X0021091Y0123888D01*
X0021091Y0113022D01*
X0021170Y0112943D01*
X0016570Y0113136D02*
X0015770Y0113136D01*
X0015770Y0111538D02*
X0016570Y0111538D01*
X0017668Y0109939D02*
X0014672Y0109939D01*
X0014159Y0106742D02*
X0018464Y0106742D01*
X0019265Y0107543D02*
X0016570Y0104848D01*
X0016570Y0101038D01*
X0017070Y0100538D01*
X0017070Y0080295D01*
X0016081Y0080295D01*
X0015143Y0079358D01*
X0015143Y0073232D01*
X0016081Y0072295D01*
X0020086Y0072295D01*
X0020328Y0072195D01*
X0021959Y0072195D01*
X0022200Y0072295D01*
X0026206Y0072295D01*
X0027143Y0073232D01*
X0027143Y0079358D01*
X0026206Y0080295D01*
X0025270Y0080295D01*
X0025270Y0099343D01*
X0027579Y0099343D01*
X0028902Y0099891D01*
X0037323Y0108311D01*
X0040793Y0108311D01*
X0041638Y0109156D01*
X0041840Y0108806D01*
X0042175Y0108471D01*
X0042586Y0108234D01*
X0043043Y0108111D01*
X0046836Y0108111D01*
X0046836Y0111892D01*
X0047598Y0111892D01*
X0047598Y0108111D01*
X0051391Y0108111D01*
X0051849Y0108234D01*
X0052260Y0108471D01*
X0052595Y0108806D01*
X0052832Y0109217D01*
X0052954Y0109674D01*
X0052954Y0111892D01*
X0047598Y0111892D01*
X0047598Y0112655D01*
X0046836Y0112655D01*
X0046836Y0116436D01*
X0043043Y0116436D01*
X0042586Y0116313D01*
X0042175Y0116076D01*
X0041840Y0115741D01*
X0041638Y0115391D01*
X0040793Y0116236D01*
X0031594Y0116236D01*
X0030657Y0115299D01*
X0030657Y0111828D01*
X0025372Y0106543D01*
X0024075Y0106543D01*
X0023075Y0107543D01*
X0019265Y0107543D01*
X0016866Y0105144D02*
X0015757Y0105144D01*
X0015970Y0103545D02*
X0016570Y0103545D01*
X0016570Y0101947D02*
X0015970Y0101947D01*
X0015364Y0100348D02*
X0017070Y0100348D01*
X0017070Y0098750D02*
X0013765Y0098750D01*
X0011370Y0098750D02*
X0010970Y0098750D01*
X0010970Y0100348D02*
X0011370Y0100348D01*
X0011370Y0101947D02*
X0010970Y0101947D01*
X0010970Y0103545D02*
X0011370Y0103545D01*
X0011370Y0105144D02*
X0010970Y0105144D01*
X0010970Y0106742D02*
X0011370Y0106742D01*
X0008181Y0106742D02*
X0007191Y0106742D01*
X0007191Y0108341D02*
X0027170Y0108341D01*
X0028768Y0109939D02*
X0024672Y0109939D01*
X0025770Y0111538D02*
X0030367Y0111538D01*
X0030657Y0113136D02*
X0025770Y0113136D01*
X0025770Y0114735D02*
X0030657Y0114735D01*
X0024285Y0116333D02*
X0042661Y0116333D01*
X0046836Y0116333D02*
X0047598Y0116333D01*
X0047598Y0116436D02*
X0047598Y0112655D01*
X0052954Y0112655D01*
X0052954Y0114873D01*
X0052832Y0115331D01*
X0052595Y0115741D01*
X0052260Y0116076D01*
X0051849Y0116313D01*
X0051391Y0116436D01*
X0047598Y0116436D01*
X0047598Y0114735D02*
X0046836Y0114735D01*
X0046836Y0113136D02*
X0047598Y0113136D01*
X0047598Y0111538D02*
X0046836Y0111538D01*
X0046836Y0109939D02*
X0047598Y0109939D01*
X0047598Y0108341D02*
X0046836Y0108341D01*
X0042400Y0108341D02*
X0040823Y0108341D01*
X0035754Y0106742D02*
X0055948Y0106742D01*
X0055948Y0108341D02*
X0052034Y0108341D01*
X0052954Y0109939D02*
X0055948Y0109939D01*
X0055948Y0111538D02*
X0052954Y0111538D01*
X0052954Y0113136D02*
X0055948Y0113136D01*
X0055948Y0114735D02*
X0052954Y0114735D01*
X0051773Y0116333D02*
X0056336Y0116333D01*
X0055748Y0117932D02*
X0023491Y0117932D01*
X0023491Y0119530D02*
X0055748Y0119530D01*
X0055748Y0121129D02*
X0023491Y0121129D01*
X0023491Y0122728D02*
X0055748Y0122728D01*
X0055748Y0124326D02*
X0024924Y0124326D01*
X0026522Y0125925D02*
X0055787Y0125925D01*
X0059529Y0125925D02*
X0060291Y0125925D01*
X0060291Y0124326D02*
X0059529Y0124326D01*
X0059529Y0122728D02*
X0060291Y0122728D01*
X0064072Y0122728D02*
X0082753Y0122728D01*
X0081155Y0121129D02*
X0075868Y0121129D01*
X0076490Y0119530D02*
X0079556Y0119530D01*
X0077958Y0117932D02*
X0076490Y0117932D01*
X0072217Y0117932D02*
X0071257Y0117932D01*
X0071257Y0119530D02*
X0072217Y0119530D01*
X0072217Y0121129D02*
X0071257Y0121129D01*
X0067606Y0121129D02*
X0064072Y0121129D01*
X0064072Y0119530D02*
X0066984Y0119530D01*
X0066984Y0117932D02*
X0064072Y0117932D01*
X0063484Y0116333D02*
X0066984Y0116333D01*
X0066984Y0114735D02*
X0063872Y0114735D01*
X0063872Y0106742D02*
X0067730Y0106742D01*
X0063510Y0105144D02*
X0101219Y0105144D01*
X0101219Y0106742D02*
X0075744Y0106742D01*
X0078549Y0108341D02*
X0101219Y0108341D01*
X0101219Y0109939D02*
X0097082Y0109939D01*
X0093224Y0109939D02*
X0092265Y0109939D01*
X0092265Y0111538D02*
X0093224Y0111538D01*
X0093224Y0113136D02*
X0092265Y0113136D01*
X0087992Y0113136D02*
X0083345Y0113136D01*
X0081746Y0111538D02*
X0087992Y0111538D01*
X0088407Y0109939D02*
X0080148Y0109939D01*
X0084943Y0114735D02*
X0087992Y0114735D01*
X0087992Y0116333D02*
X0086542Y0116333D01*
X0088944Y0124326D02*
X0064072Y0124326D01*
X0064033Y0125925D02*
X0089744Y0125925D01*
X0088565Y0127523D02*
X0028121Y0127523D01*
X0029719Y0129122D02*
X0088376Y0129122D01*
X0089164Y0130720D02*
X0031318Y0130720D01*
X0027727Y0133917D02*
X0007191Y0133917D01*
X0007191Y0132319D02*
X0026128Y0132319D01*
X0024530Y0130720D02*
X0007191Y0130720D01*
X0007191Y0129122D02*
X0022931Y0129122D01*
X0021332Y0127523D02*
X0007191Y0127523D01*
X0007191Y0125925D02*
X0019734Y0125925D01*
X0018691Y0124326D02*
X0007191Y0124326D01*
X0007191Y0122728D02*
X0018691Y0122728D01*
X0018691Y0121129D02*
X0007191Y0121129D01*
X0007191Y0119530D02*
X0018691Y0119530D01*
X0018691Y0117932D02*
X0007191Y0117932D01*
X0007191Y0116333D02*
X0008055Y0116333D01*
X0014285Y0116333D02*
X0018055Y0116333D01*
X0016570Y0114735D02*
X0015770Y0114735D01*
X0007668Y0109939D02*
X0007191Y0109939D01*
X0007191Y0098750D02*
X0008575Y0098750D01*
X0007191Y0097151D02*
X0017070Y0097151D01*
X0017070Y0095553D02*
X0007191Y0095553D01*
X0007191Y0093954D02*
X0017070Y0093954D01*
X0017070Y0092356D02*
X0007191Y0092356D01*
X0007191Y0090757D02*
X0017070Y0090757D01*
X0017070Y0089159D02*
X0007191Y0089159D01*
X0007191Y0087560D02*
X0017070Y0087560D01*
X0017070Y0085962D02*
X0007191Y0085962D01*
X0007191Y0084363D02*
X0017070Y0084363D01*
X0017070Y0082765D02*
X0007191Y0082765D01*
X0007191Y0081166D02*
X0017070Y0081166D01*
X0015353Y0079568D02*
X0007191Y0079568D01*
X0007191Y0077969D02*
X0015143Y0077969D01*
X0015143Y0076371D02*
X0007191Y0076371D01*
X0007191Y0074772D02*
X0015143Y0074772D01*
X0015202Y0073174D02*
X0007191Y0073174D01*
X0007191Y0071575D02*
X0039613Y0071575D01*
X0039613Y0073174D02*
X0027085Y0073174D01*
X0027143Y0074772D02*
X0039613Y0074772D01*
X0049629Y0076371D02*
X0027143Y0076371D01*
X0027143Y0077969D02*
X0051227Y0077969D01*
X0052826Y0079568D02*
X0026933Y0079568D01*
X0025270Y0081166D02*
X0054424Y0081166D01*
X0056023Y0082765D02*
X0025270Y0082765D01*
X0025270Y0084363D02*
X0056310Y0084363D01*
X0056310Y0085962D02*
X0025270Y0085962D01*
X0025270Y0087560D02*
X0056310Y0087560D01*
X0056310Y0089159D02*
X0025270Y0089159D01*
X0025270Y0090757D02*
X0056310Y0090757D01*
X0056310Y0092356D02*
X0025270Y0092356D01*
X0025270Y0093954D02*
X0056310Y0093954D01*
X0056310Y0095553D02*
X0025270Y0095553D01*
X0025270Y0097151D02*
X0056310Y0097151D01*
X0056310Y0098750D02*
X0025270Y0098750D01*
X0029360Y0100348D02*
X0056310Y0100348D01*
X0056310Y0101947D02*
X0030958Y0101947D01*
X0032557Y0103545D02*
X0056310Y0103545D01*
X0056310Y0105144D02*
X0034155Y0105144D01*
X0025571Y0106742D02*
X0023876Y0106742D01*
X0029325Y0135516D02*
X0007191Y0135516D01*
X0007191Y0137114D02*
X0030924Y0137114D01*
X0032522Y0138713D02*
X0007191Y0138713D01*
X0007191Y0140311D02*
X0107420Y0140311D01*
X0109326Y0141910D02*
X0007191Y0141910D01*
X0007191Y0143508D02*
X0174756Y0143508D01*
X0174756Y0141910D02*
X0111203Y0141910D01*
X0111202Y0119530D02*
X0111719Y0119530D01*
X0116593Y0111538D02*
X0127396Y0111538D01*
X0129119Y0111538D02*
X0129119Y0111538D01*
X0129119Y0109939D02*
X0129119Y0109939D01*
X0129119Y0108341D02*
X0129119Y0108341D01*
X0129119Y0106742D02*
X0129119Y0106742D01*
X0129119Y0105144D02*
X0129119Y0105144D01*
X0129119Y0103545D02*
X0129119Y0103545D01*
X0129119Y0101947D02*
X0129119Y0101947D01*
X0129119Y0100348D02*
X0129119Y0100348D01*
X0131525Y0100348D02*
X0131996Y0100348D01*
X0136242Y0100348D02*
X0136713Y0100348D01*
X0139119Y0100348D02*
X0139119Y0100348D01*
X0139119Y0101947D02*
X0139119Y0101947D01*
X0139119Y0103545D02*
X0139119Y0103545D01*
X0139119Y0105144D02*
X0139119Y0105144D01*
X0139119Y0106742D02*
X0139119Y0106742D01*
X0139119Y0108341D02*
X0139119Y0108341D01*
X0139119Y0109939D02*
X0139119Y0109939D01*
X0139119Y0111538D02*
X0139119Y0111538D01*
X0137396Y0111538D02*
X0130842Y0111538D01*
X0126713Y0100348D02*
X0126242Y0100348D01*
X0121996Y0100348D02*
X0121242Y0100348D01*
X0116996Y0100348D02*
X0116525Y0100348D01*
X0114119Y0100348D02*
X0114119Y0100348D01*
X0114119Y0101947D02*
X0114119Y0101947D01*
X0114119Y0103545D02*
X0114119Y0103545D01*
X0114119Y0105144D02*
X0114119Y0105144D01*
X0111713Y0100348D02*
X0111242Y0100348D01*
X0106996Y0100348D02*
X0106242Y0100348D01*
X0101996Y0100348D02*
X0063510Y0100348D01*
X0063510Y0101947D02*
X0101219Y0101947D01*
X0101219Y0103545D02*
X0063510Y0103545D01*
X0026238Y0062172D02*
X0025780Y0062295D01*
X0021543Y0062295D01*
X0021543Y0058495D01*
X0020743Y0058495D01*
X0020743Y0057695D01*
X0014943Y0057695D01*
X0014943Y0055458D01*
X0015066Y0055000D01*
X0015303Y0054590D01*
X0015638Y0054255D01*
X0016049Y0054018D01*
X0016506Y0053895D01*
X0020743Y0053895D01*
X0020743Y0057695D01*
X0021543Y0057695D01*
X0021543Y0053895D01*
X0025780Y0053895D01*
X0026238Y0054018D01*
X0026649Y0054255D01*
X0026984Y0054590D01*
X0027221Y0055000D01*
X0027343Y0055458D01*
X0027343Y0057695D01*
X0021543Y0057695D01*
X0021543Y0058495D01*
X0027343Y0058495D01*
X0027343Y0060732D01*
X0027221Y0061190D01*
X0026984Y0061600D01*
X0026649Y0061935D01*
X0026238Y0062172D01*
X0026564Y0061984D02*
X0039613Y0061984D01*
X0039613Y0060386D02*
X0027343Y0060386D01*
X0027343Y0058787D02*
X0040272Y0058787D01*
X0040908Y0057526D02*
X0038022Y0056331D01*
X0035813Y0054123D01*
X0034618Y0051237D01*
X0034618Y0048113D01*
X0035813Y0045228D01*
X0038022Y0043019D01*
X0040908Y0041824D01*
X0044031Y0041824D01*
X0046917Y0043019D01*
X0049125Y0045228D01*
X0050320Y0048113D01*
X0050320Y0051237D01*
X0049125Y0054123D01*
X0046917Y0056331D01*
X0044031Y0057526D01*
X0040908Y0057526D01*
X0040092Y0057189D02*
X0027343Y0057189D01*
X0027343Y0055590D02*
X0037281Y0055590D01*
X0035759Y0053992D02*
X0026141Y0053992D01*
X0021543Y0053992D02*
X0020743Y0053992D01*
X0020743Y0055590D02*
X0021543Y0055590D01*
X0021543Y0057189D02*
X0020743Y0057189D01*
X0020743Y0058495D02*
X0014943Y0058495D01*
X0014943Y0060732D01*
X0015066Y0061190D01*
X0015303Y0061600D01*
X0015638Y0061935D01*
X0016049Y0062172D01*
X0016506Y0062295D01*
X0020743Y0062295D01*
X0020743Y0058495D01*
X0020743Y0058787D02*
X0021543Y0058787D01*
X0021543Y0060386D02*
X0020743Y0060386D01*
X0020743Y0061984D02*
X0021543Y0061984D01*
X0015723Y0061984D02*
X0007191Y0061984D01*
X0007191Y0060386D02*
X0014943Y0060386D01*
X0014943Y0058787D02*
X0007191Y0058787D01*
X0007191Y0057189D02*
X0014943Y0057189D01*
X0014943Y0055590D02*
X0007191Y0055590D01*
X0007191Y0053992D02*
X0016146Y0053992D01*
X0011064Y0050795D02*
X0007191Y0050795D01*
X0007191Y0052393D02*
X0035097Y0052393D01*
X0034618Y0050795D02*
X0021277Y0050795D01*
X0023169Y0049196D02*
X0034618Y0049196D01*
X0034832Y0047597D02*
X0024647Y0047597D01*
X0025309Y0045999D02*
X0035494Y0045999D01*
X0036641Y0044400D02*
X0025971Y0044400D01*
X0026069Y0042802D02*
X0038547Y0042802D01*
X0046392Y0042802D02*
X0134058Y0042802D01*
X0132153Y0044400D02*
X0048298Y0044400D01*
X0049445Y0045999D02*
X0131006Y0045999D01*
X0130344Y0047597D02*
X0050107Y0047597D01*
X0050320Y0049196D02*
X0130130Y0049196D01*
X0130130Y0050795D02*
X0050320Y0050795D01*
X0049842Y0052393D02*
X0130609Y0052393D01*
X0131271Y0053992D02*
X0049179Y0053992D01*
X0047658Y0055590D02*
X0132793Y0055590D01*
X0135604Y0057189D02*
X0044847Y0057189D01*
X0015693Y0063583D02*
X0007191Y0063583D01*
X0007191Y0065181D02*
X0015143Y0065181D01*
X0015143Y0066780D02*
X0007191Y0066780D01*
X0007191Y0068378D02*
X0015143Y0068378D01*
X0015143Y0069977D02*
X0007191Y0069977D01*
X0007191Y0049196D02*
X0009172Y0049196D01*
X0007693Y0047597D02*
X0007191Y0047597D01*
X0007191Y0145107D02*
X0174756Y0145107D01*
X0174756Y0146705D02*
X0007191Y0146705D01*
X0153387Y0097151D02*
X0165764Y0097151D01*
X0169355Y0093954D02*
X0174756Y0093954D01*
X0174756Y0092356D02*
X0167757Y0092356D01*
X0170954Y0095553D02*
X0174756Y0095553D01*
X0174756Y0097151D02*
X0172552Y0097151D01*
X0173176Y0098750D02*
X0174756Y0098750D01*
X0174756Y0100348D02*
X0174687Y0100348D01*
X0174756Y0049196D02*
X0172775Y0049196D01*
X0174253Y0047597D02*
X0174756Y0047597D01*
D20*
X0114792Y0114242D03*
X0108690Y0121526D03*
X0124831Y0121526D03*
X0126800Y0138652D03*
X0110265Y0138848D03*
X0094910Y0137077D03*
X0091564Y0128612D03*
X0027194Y0143770D03*
X0019123Y0143770D03*
X0010855Y0143967D03*
D21*
X0016170Y0042195D03*
X0165776Y0042195D03*
M02*
