G75*
%MOIN*%
%OFA0B0*%
%FSLAX25Y25*%
%IPPOS*%
%LPD*%
%AMOC8*
5,1,8,0,0,1.08239X$1,22.5*
%
%ADD10R,0.09600X0.05600*%
%ADD11R,0.09461X0.14973*%
%ADD12R,0.03400X0.08800*%
%ADD13R,0.05524X0.08674*%
%ADD14R,0.06706X0.05918*%
%ADD15C,0.06902*%
%ADD16R,0.08674X0.05524*%
%ADD17OC8,0.06800*%
%ADD18C,0.03975*%
%ADD19C,0.17398*%
D10*
X0021143Y0058095D03*
X0021143Y0067195D03*
X0021143Y0076295D03*
D11*
X0045544Y0067195D03*
D12*
X0104119Y0105788D03*
X0109119Y0105788D03*
X0114119Y0105788D03*
X0119119Y0105788D03*
X0124119Y0105788D03*
X0129119Y0105788D03*
X0134119Y0105788D03*
X0139119Y0105788D03*
X0139119Y0129988D03*
X0134119Y0129988D03*
X0129119Y0129988D03*
X0124119Y0129988D03*
X0119119Y0129988D03*
X0114119Y0129988D03*
X0109119Y0129988D03*
X0104119Y0129988D03*
D13*
X0059910Y0121604D03*
X0059910Y0110581D03*
D14*
X0071737Y0110510D03*
X0071737Y0117203D03*
X0092745Y0120352D03*
X0092745Y0113659D03*
D15*
X0137981Y0049675D03*
X0042469Y0049675D03*
D16*
X0047217Y0112274D03*
X0036194Y0112274D03*
D17*
X0021170Y0112943D03*
X0011170Y0112943D03*
X0011170Y0102943D03*
X0021170Y0102943D03*
X0160776Y0102943D03*
X0160776Y0112943D03*
X0170776Y0112943D03*
X0170776Y0102943D03*
D18*
X0126800Y0138652D03*
X0110265Y0138848D03*
X0094910Y0137077D03*
X0091564Y0128612D03*
X0108690Y0121526D03*
X0114792Y0114242D03*
X0124831Y0121526D03*
X0027194Y0143770D03*
X0019123Y0143770D03*
X0010855Y0143967D03*
D19*
X0016170Y0042195D03*
X0165776Y0042195D03*
M02*
